<?xml version="1.0" encoding="UTF-8"?>
<svg version="1.1" xmlns="http://www.w3.org/2000/svg" width="256" height="256">
<path d="M0 0 C1.25165451 -0.00571014 2.50330902 -0.01142029 3.79289246 -0.01730347 C5.17246999 -0.01854869 6.55204764 -0.01967381 7.93162537 -0.02069092 C9.39070765 -0.02532254 10.84978873 -0.03034767 12.30886841 -0.03573608 C16.26792903 -0.0488326 20.22697271 -0.05530017 24.18605161 -0.05974674 C26.66381064 -0.06268311 29.1415651 -0.06678907 31.61932182 -0.07125092 C39.38382621 -0.08492127 47.14832008 -0.09458906 54.91283566 -0.09845281 C63.85248231 -0.10292656 72.79197553 -0.1204446 81.73157555 -0.1494534 C88.65580127 -0.17113595 95.57998404 -0.18116065 102.50424331 -0.18249393 C106.63274699 -0.18353765 110.76110636 -0.18935222 114.88957405 -0.20731354 C118.77941039 -0.22390737 122.66899573 -0.2258955 126.55885506 -0.21717453 C127.9777138 -0.21641005 129.39658666 -0.22066809 130.81541061 -0.23063278 C150.5520866 -0.36099095 165.50901918 5.63463774 179.90208435 19.12481689 C184.09555868 23.46514441 187.20024811 28.19592164 190.09739685 33.45294189 C190.58587097 34.32221313 190.58587097 34.32221313 191.08421326 35.20904541 C196.53005564 45.61788248 197.22785834 56.54199271 197.17308044 68.08184814 C197.17715602 69.54196564 197.18250338 71.00208004 197.18901062 72.46218872 C197.20257302 76.39198896 197.19743192 80.32155033 197.18787336 84.25135422 C197.1802188 88.38569479 197.18733833 92.52001643 197.19203186 96.65435791 C197.19747267 103.5940921 197.19034199 110.53373015 197.17601013 117.47344971 C197.15968683 125.46923178 197.16497653 133.46478428 197.18148935 141.4605608 C197.19515217 148.3552206 197.19700054 155.24981173 197.18917334 162.14448071 C197.18452307 166.24938399 197.18379837 170.35417977 197.19378281 174.45907593 C197.20252045 178.32030989 197.19630819 182.18125106 197.17910004 186.04245377 C197.17517115 187.45001873 197.17620659 188.85760883 197.18288803 190.26516342 C197.26287069 208.84361291 191.90065819 224.56032584 179.06419373 238.12896729 C166.57817914 250.59571333 150.62800502 256.32483667 133.27922058 256.42260742 C131.91416894 256.42031435 130.54911766 256.41780475 129.18406677 256.4151001 C127.72439312 256.41945463 126.26472174 256.42464023 124.80505371 256.43058777 C120.86273187 256.44391074 116.92050629 256.44456385 112.97816634 256.44202447 C109.67583687 256.44094999 106.3735265 256.44585039 103.07120115 256.45062989 C95.27352185 256.46170235 87.47589074 256.46217553 79.6782074 256.45611572 C71.6603443 256.45008014 63.64265688 256.46238156 55.62482375 256.48368579 C48.71749422 256.50135777 41.81022032 256.50729428 34.90286905 256.50404805 C30.78785025 256.50224362 26.67295673 256.50478654 22.5579586 256.51876259 C18.68446895 256.5314275 14.81125107 256.52931594 10.93776512 256.5163517 C9.52535913 256.51400492 8.11293349 256.51665154 6.70055008 256.52497482 C-11.81412317 256.626119 -27.62098898 251.32295508 -41.13331604 238.48345947 C-52.16744395 227.39263969 -59.31228469 212.71834568 -59.35554504 196.92533875 C-59.36125519 195.67368423 -59.36696533 194.42202972 -59.37284851 193.13244629 C-59.37409373 191.75286875 -59.37521886 190.3732911 -59.37623596 188.99371338 C-59.38086759 187.5346311 -59.38589271 186.07555002 -59.39128113 184.61647034 C-59.40437765 180.65740971 -59.41084521 176.69836603 -59.41529179 172.73928714 C-59.41822816 170.26152811 -59.42233412 167.78377364 -59.42679596 165.30601692 C-59.44046632 157.54151254 -59.45013411 149.77701867 -59.45399785 142.01250309 C-59.45847161 133.07285644 -59.47598964 124.13336322 -59.50499845 115.1937632 C-59.526681 108.26953748 -59.5367057 101.34535471 -59.53803897 94.42109543 C-59.5390827 90.29259175 -59.54489726 86.16423239 -59.56285858 82.03576469 C-59.57945241 78.14592835 -59.58144054 74.25634302 -59.57271957 70.36648369 C-59.57195509 68.94762495 -59.57621313 67.52875208 -59.58617783 66.10992813 C-59.7157728 46.48880248 -53.82062708 31.08730477 -40.09010315 16.95294189 C-29.38912636 6.86344949 -14.81472682 0.04058064 0 0 Z " fill="#242A39" transform="translate(59.21510314941406,-0.14044189453125)"/>
<path d="M0 0 C7.52423847 3.14968122 11.73588354 16.89410294 15.33935547 24.07470703 C16.10003689 25.58352009 16.86101607 27.09218306 17.62226868 28.60070801 C20.10542498 33.52522597 22.58024928 38.45390983 25.0546875 43.3828125 C25.90935229 45.08403998 26.76406981 46.78524097 27.61883926 48.48641586 C31.63011971 56.47095769 35.63758752 64.45739857 39.64035022 72.44621384 C44.25698375 81.65988632 48.88682469 90.86676426 53.52783477 100.06818116 C57.1195847 107.19142765 60.69908131 114.32074591 64.26940262 121.45475662 C66.4004515 125.71215099 68.53671981 129.96673074 70.68597031 134.21496964 C72.70439471 138.20535956 74.70754347 142.20304659 76.69916344 146.20687866 C77.43253143 147.67460763 78.17138624 149.13960973 78.91609001 150.60161972 C79.93175028 152.59763249 80.92718824 154.60252433 81.91818237 156.61087036 C82.48043455 157.73059801 83.04268673 158.85032566 83.62197685 160.00398445 C84.83607184 163.56018062 84.7623 165.54894256 83.6875 169.125 C80.98930525 170.47409738 78.85355775 170.28206026 75.83251953 170.31787109 C74.60429474 170.33393402 73.37606995 170.34999695 72.11062622 170.36654663 C70.763862 170.37803243 69.41709007 170.38864125 68.0703125 170.3984375 C67.39312038 170.40376118 66.71592827 170.40908485 66.01821518 170.41456985 C62.43451825 170.44129047 58.85085604 170.46066963 55.26708984 170.47509766 C51.5655813 170.49175282 47.8649619 170.53653881 44.16378975 170.5874691 C41.31732153 170.62112126 38.47106506 170.63267258 35.62441635 170.63832474 C34.26002066 170.64504193 32.89563913 170.66027662 31.53143692 170.68421555 C29.62162545 170.71581933 27.71133738 170.71290568 25.80126953 170.70849609 C24.71476105 170.71658295 23.62825256 170.7246698 22.50881958 170.73300171 C19.6875 170.125 19.6875 170.125 17.49519348 167.94288635 C15.71358798 165.16566673 14.13273785 162.40322656 12.65063477 159.45532227 C12.08647354 158.33968399 11.52231232 157.22404572 10.9410553 156.07460022 C10.33664072 154.86371763 9.73260075 153.652648 9.12890625 152.44140625 C8.49670369 151.1815716 7.86420627 149.92188488 7.23143005 148.66233826 C5.90700828 146.02241218 4.58713323 143.38027321 3.27026367 140.73657227 C1.60119468 137.38702857 -0.08035345 134.04393809 -1.76570034 130.70256138 C-3.07644908 128.09963577 -4.37953148 125.49292601 -5.68058968 122.88514519 C-6.29637135 121.65343073 -6.91456109 120.42291651 -7.535429 119.19375801 C-22.04340828 90.4303175 -26.89279838 60.41549068 -17.3125 29.125 C-7.2653928 0.39272394 -7.2653928 0.39272394 0 0 Z " fill="#2583FD" transform="translate(128.3125,42.875)"/>
<path d="M0 0 C5.47076193 0.79192713 8.48832352 6.21324042 11.64453125 10.3828125 C16.67609952 17.7563471 20.22169099 25.26225546 23.08203125 33.6953125 C23.32912842 34.42363281 23.57622559 35.15195313 23.83081055 35.90234375 C28.91149795 51.89971671 29.25134643 73.70749427 22.08203125 89.0703125 C20.64453125 91.3828125 20.64453125 91.3828125 18.64453125 93.3828125 C16.07044983 93.64350891 16.07044983 93.64350891 12.77368164 93.6574707 C11.54222916 93.66700272 10.31077667 93.67653473 9.04200745 93.68635559 C7.69206718 93.68609417 6.34212689 93.68515714 4.9921875 93.68359375 C3.61217621 93.68747949 2.23216612 93.69181391 0.85215759 93.69657898 C-2.04220453 93.70404665 -4.93644469 93.70374614 -7.83081055 93.69848633 C-11.54117113 93.69269254 -15.25103238 93.70961719 -18.96131039 93.732831 C-21.81204653 93.74755899 -24.66266219 93.74844133 -27.51342964 93.74532127 C-28.88138378 93.74583502 -30.24934457 93.75108277 -31.61726189 93.76113319 C-33.52987745 93.77345992 -35.44259366 93.7647765 -37.35522461 93.75512695 C-38.98831825 93.75607109 -38.98831825 93.75607109 -40.65440369 93.7570343 C-43.35546875 93.3828125 -43.35546875 93.3828125 -45.29298401 92.23454285 C-46.35546875 90.3828125 -46.35546875 90.3828125 -46.28330994 87.70635986 C-45.13432459 83.59066929 -43.43928893 80.00704338 -41.51000977 76.20605469 C-41.11317993 75.40859833 -40.7163501 74.61114197 -40.30749512 73.78952026 C-38.99923081 71.16560701 -37.6795701 68.54761552 -36.359375 65.9296875 C-35.4457817 64.104886 -34.53278044 62.27978799 -33.62034607 60.45440674 C-31.70944131 56.63572137 -29.79320003 52.81977955 -27.87280273 49.00585938 C-25.40863239 44.11156489 -22.95508141 39.21204314 -20.50512791 34.31061935 C-18.62191421 30.54473504 -16.73454255 26.78094779 -14.84574699 23.01786041 C-13.93931998 21.21137899 -13.03386704 19.40440847 -12.12939644 17.59694672 C-10.86705361 15.07658515 -9.59948346 12.55892565 -8.33032227 10.04199219 C-7.95570358 9.29184845 -7.5810849 8.54170471 -7.19511414 7.76882935 C-3.55472077 0.57771581 -3.55472077 0.57771581 0 0 Z " fill="#1770EA" transform="translate(89.35546875,119.6171875)"/>
</svg>
