<?xml version="1.0" encoding="UTF-8"?>
<svg version="1.1" xmlns="http://www.w3.org/2000/svg" width="256" height="256">
<path d="M0 0 C1.25165451 -0.00571014 2.50330902 -0.01142029 3.79289246 -0.01730347 C5.17246999 -0.01854869 6.55204764 -0.01967381 7.93162537 -0.02069092 C9.39070765 -0.02532254 10.84978873 -0.03034767 12.30886841 -0.03573608 C16.26792903 -0.0488326 20.22697271 -0.05530017 24.18605161 -0.05974674 C26.66381064 -0.06268311 29.1415651 -0.06678907 31.61932182 -0.07125092 C39.38382621 -0.08492127 47.14832008 -0.09458906 54.91283566 -0.09845281 C63.85248231 -0.10292656 72.79197553 -0.1204446 81.73157555 -0.1494534 C88.65580127 -0.17113595 95.57998404 -0.18116065 102.50424331 -0.18249393 C106.63274699 -0.18353765 110.76110636 -0.18935222 114.88957405 -0.20731354 C118.77941039 -0.22390737 122.66899573 -0.2258955 126.55885506 -0.21717453 C127.9777138 -0.21641005 129.39658666 -0.22066809 130.81541061 -0.23063278 C150.5520866 -0.36099095 165.50901918 5.63463774 179.90208435 19.12481689 C184.09555868 23.46514441 187.20024811 28.19592164 190.09739685 33.45294189 C190.58587097 34.32221313 190.58587097 34.32221313 191.08421326 35.20904541 C196.53005564 45.61788248 197.22785834 56.54199271 197.17308044 68.08184814 C197.17715602 69.54196564 197.18250338 71.00208004 197.18901062 72.46218872 C197.20257302 76.39198896 197.19743192 80.32155033 197.18787336 84.25135422 C197.1802188 88.38569479 197.18733833 92.52001643 197.19203186 96.65435791 C197.19747267 103.5940921 197.19034199 110.53373015 197.17601013 117.47344971 C197.15968683 125.46923178 197.16497653 133.46478428 197.18148935 141.4605608 C197.19515217 148.3552206 197.19700054 155.24981173 197.18917334 162.14448071 C197.18452307 166.24938399 197.18379837 170.35417977 197.19378281 174.45907593 C197.20252045 178.32030989 197.19630819 182.18125106 197.17910004 186.04245377 C197.17517115 187.45001873 197.17620659 188.85760883 197.18288803 190.26516342 C197.26287069 208.84361291 191.90065819 224.56032584 179.06419373 238.12896729 C166.57817914 250.59571333 150.62800502 256.32483667 133.27922058 256.42260742 C131.91416894 256.42031435 130.54911766 256.41780475 129.18406677 256.4151001 C127.72439312 256.41945463 126.26472174 256.42464023 124.80505371 256.43058777 C120.86273187 256.44391074 116.92050629 256.44456385 112.97816634 256.44202447 C109.67583687 256.44094999 106.3735265 256.44585039 103.07120115 256.45062989 C95.27352185 256.46170235 87.47589074 256.46217553 79.6782074 256.45611572 C71.6603443 256.45008014 63.64265688 256.46238156 55.62482375 256.48368579 C48.71749422 256.50135777 41.81022032 256.50729428 34.90286905 256.50404805 C30.78785025 256.50224362 26.67295673 256.50478654 22.5579586 256.51876259 C18.68446895 256.5314275 14.81125107 256.52931594 10.93776512 256.5163517 C9.52535913 256.51400492 8.11293349 256.51665154 6.70055008 256.52497482 C-11.81412317 256.626119 -27.62098898 251.32295508 -41.13331604 238.48345947 C-52.16744395 227.39263969 -59.31228469 212.71834568 -59.35554504 196.92533875 C-59.36125519 195.67368423 -59.36696533 194.42202972 -59.37284851 193.13244629 C-59.37409373 191.75286875 -59.37521886 190.3732911 -59.37623596 188.99371338 C-59.38086759 187.5346311 -59.38589271 186.07555002 -59.39128113 184.61647034 C-59.40437765 180.65740971 -59.41084521 176.69836603 -59.41529179 172.73928714 C-59.41822816 170.26152811 -59.42233412 167.78377364 -59.42679596 165.30601692 C-59.44046632 157.54151254 -59.45013411 149.77701867 -59.45399785 142.01250309 C-59.45847161 133.07285644 -59.47598964 124.13336322 -59.50499845 115.1937632 C-59.526681 108.26953748 -59.5367057 101.34535471 -59.53803897 94.42109543 C-59.5390827 90.29259175 -59.54489726 86.16423239 -59.56285858 82.03576469 C-59.57945241 78.14592835 -59.58144054 74.25634302 -59.57271957 70.36648369 C-59.57195509 68.94762495 -59.57621313 67.52875208 -59.58617783 66.10992813 C-59.7157728 46.48880248 -53.82062708 31.08730477 -40.09010315 16.95294189 C-29.38912636 6.86344949 -14.81472682 0.04058064 0 0 Z " fill="#F3F1ED" transform="translate(59.21510314941406,-0.14044189453125)"/>
<path d="M0 0 C7.52950457 3.15188563 11.73740575 16.90499781 15.33935547 24.09057617 C16.10003007 25.60101502 16.86100943 27.11130043 17.62226868 28.6214447 C19.6775996 32.70176553 21.72764494 36.78471796 23.77594137 40.8685739 C25.05628231 43.42114828 26.33745124 45.9733055 27.61883926 48.52535439 C31.62989559 56.51481282 35.63746013 64.50600939 39.64035022 72.49956244 C44.25825532 81.72108067 48.88799169 90.93653123 53.52783477 100.14703006 C57.11819694 107.27605081 60.69784486 114.41038527 64.26940262 121.54884511 C66.40147432 125.80958684 68.5380915 130.06790142 70.68597031 134.32069969 C72.70264372 138.31440257 74.70597737 142.31451226 76.69916344 146.31998634 C77.43323252 147.78939398 78.17211083 149.25641023 78.91609001 150.7208252 C79.92984053 152.71804929 80.92600598 154.72311707 81.91818237 156.73112488 C82.48043455 157.85177432 83.04268673 158.97242376 83.62197685 160.12703228 C84.78482241 163.3988274 84.84867183 164.88717394 83.6875 168.125 C80.99507196 170.81742804 79.59890924 170.39445944 75.83251953 170.43139648 C74.60429474 170.44738388 73.37606995 170.46337128 72.11062622 170.47984314 C70.76385918 170.48621971 69.41708718 170.4916125 68.0703125 170.49609375 C66.69269714 170.50505813 65.3150828 170.51417994 63.93746948 170.52345276 C61.04731885 170.53995521 58.15728423 170.54764499 55.26708984 170.55053711 C51.56552301 170.55591966 47.86504824 170.59358639 44.16378975 170.63928127 C41.31729161 170.66904334 38.47105656 170.67626046 35.62441635 170.67726326 C34.26003904 170.6814681 32.89566113 170.69391336 31.53143692 170.71478081 C29.62156768 170.74166627 27.71130485 170.73376856 25.80126953 170.72436523 C24.71476105 170.72943588 23.62825256 170.73450653 22.50881958 170.73973083 C19.6875 170.125 19.6875 170.125 17.49420166 167.93891907 C15.72148863 165.17793695 14.14399347 162.43242907 12.66650391 159.50292969 C12.10557037 158.39697449 11.54463684 157.29101929 10.96670532 156.15155029 C10.36539827 154.95020505 9.76452894 153.74864063 9.1640625 152.546875 C8.53419477 151.29425753 7.90409396 150.04175724 7.27377319 148.78936768 C5.95342379 146.16209422 4.63782808 143.53250388 3.32519531 140.90136719 C1.9942844 138.23486161 0.65613983 135.57221239 -0.68945312 132.91308594 C-19.10107235 96.52402841 -19.10107235 96.52402841 -21.3125 80.125 C-21.42207031 79.37863281 -21.53164062 78.63226563 -21.64453125 77.86328125 C-23.16754611 65.57762802 -22.76434683 53.24545037 -20.3125 41.125 C-20.11785156 40.15304688 -19.92320313 39.18109375 -19.72265625 38.1796875 C-17.89836383 30.08371522 -10.24806832 0.55394964 0 0 Z " fill="#2784FE" transform="translate(128.3125,42.875)"/>
<path d="M0 0 C5.64840926 1.12968185 8.62810159 5.89837433 11.828125 10.39453125 C21.55119121 25.44301731 27.42634654 41.96918159 27.1875 60 C27.17952393 61.09094971 27.17154785 62.18189941 27.16333008 63.3059082 C26.98230813 73.54319588 26.50078286 85.87421714 18.8125 93.5625 C16.23841858 93.82319641 16.23841858 93.82319641 12.94165039 93.8371582 C11.71019791 93.84669022 10.47874542 93.85622223 9.2099762 93.86604309 C7.86003593 93.86578167 6.51009564 93.86484464 5.16015625 93.86328125 C3.78014496 93.86716699 2.40013487 93.87150141 1.02012634 93.87626648 C-1.87423578 93.88373415 -4.76847594 93.88343364 -7.6628418 93.87817383 C-11.37320238 93.87238004 -15.08306363 93.88930469 -18.79334164 93.9125185 C-21.64407778 93.92724649 -24.49469344 93.92812883 -27.34546089 93.92500877 C-28.71341503 93.92552252 -30.08137582 93.93077027 -31.44929314 93.94082069 C-33.3619087 93.95314742 -35.27462491 93.944464 -37.18725586 93.93481445 C-38.8203495 93.93575859 -38.8203495 93.93575859 -40.48643494 93.9367218 C-43.1875 93.5625 -43.1875 93.5625 -45.12501526 92.41423035 C-46.1875 90.5625 -46.1875 90.5625 -46.11534119 87.88604736 C-44.96635584 83.77035679 -43.27132018 80.18673088 -41.34204102 76.38574219 C-40.94521118 75.58828583 -40.54838135 74.79082947 -40.13952637 73.96920776 C-38.83126206 71.34529451 -37.51160135 68.72730302 -36.19140625 66.109375 C-35.27781295 64.2845735 -34.36481169 62.45947549 -33.45237732 60.63409424 C-31.54147256 56.81540887 -29.62523128 52.99946705 -27.70483398 49.18554688 C-25.24066364 44.29125239 -22.78711266 39.39173064 -20.33715916 34.49030685 C-18.45394546 30.72442254 -16.5665738 26.96063529 -14.67777824 23.19754791 C-13.77135123 21.39106649 -12.86589829 19.58409597 -11.96142769 17.77663422 C-10.69908486 15.25627265 -9.43151471 12.73861315 -8.16235352 10.22167969 C-7.78773483 9.47153595 -7.41311615 8.72139221 -7.02714539 7.94851685 C-3.45279449 0.88786144 -3.45279449 0.88786144 0 0 Z " fill="#1871EB" transform="translate(89.1875,119.4375)"/>
</svg>
