<?xml version="1.0" encoding="UTF-8"?>
<svg version="1.1" xmlns="http://www.w3.org/2000/svg" width="256" height="256">
<path d="M0 0 C1.25165451 -0.00571014 2.50330902 -0.01142029 3.79289246 -0.01730347 C5.17246999 -0.01854869 6.55204764 -0.01967381 7.93162537 -0.02069092 C9.39070765 -0.02532254 10.84978873 -0.03034767 12.30886841 -0.03573608 C16.26792903 -0.0488326 20.22697271 -0.05530017 24.18605161 -0.05974674 C26.66381064 -0.06268311 29.1415651 -0.06678907 31.61932182 -0.07125092 C39.38382621 -0.08492127 47.14832008 -0.09458906 54.91283566 -0.09845281 C63.85248231 -0.10292656 72.79197553 -0.1204446 81.73157555 -0.1494534 C88.65580127 -0.17113595 95.57998404 -0.18116065 102.50424331 -0.18249393 C106.63274699 -0.18353765 110.76110636 -0.18935222 114.88957405 -0.20731354 C118.77941039 -0.22390737 122.66899573 -0.2258955 126.55885506 -0.21717453 C127.9777138 -0.21641005 129.39658666 -0.22066809 130.81541061 -0.23063278 C150.5520866 -0.36099095 165.50901918 5.63463774 179.90208435 19.12481689 C184.09555868 23.46514441 187.20024811 28.19592164 190.09739685 33.45294189 C190.58587097 34.32221313 190.58587097 34.32221313 191.08421326 35.20904541 C196.53005564 45.61788248 197.22785834 56.54199271 197.17308044 68.08184814 C197.17715602 69.54196564 197.18250338 71.00208004 197.18901062 72.46218872 C197.20257302 76.39198896 197.19743192 80.32155033 197.18787336 84.25135422 C197.1802188 88.38569479 197.18733833 92.52001643 197.19203186 96.65435791 C197.19747267 103.5940921 197.19034199 110.53373015 197.17601013 117.47344971 C197.15968683 125.46923178 197.16497653 133.46478428 197.18148935 141.4605608 C197.19515217 148.3552206 197.19700054 155.24981173 197.18917334 162.14448071 C197.18452307 166.24938399 197.18379837 170.35417977 197.19378281 174.45907593 C197.20252045 178.32030989 197.19630819 182.18125106 197.17910004 186.04245377 C197.17517115 187.45001873 197.17620659 188.85760883 197.18288803 190.26516342 C197.26287069 208.84361291 191.90065819 224.56032584 179.06419373 238.12896729 C166.57817914 250.59571333 150.62800502 256.32483667 133.27922058 256.42260742 C131.91416894 256.42031435 130.54911766 256.41780475 129.18406677 256.4151001 C127.72439312 256.41945463 126.26472174 256.42464023 124.80505371 256.43058777 C120.86273187 256.44391074 116.92050629 256.44456385 112.97816634 256.44202447 C109.67583687 256.44094999 106.3735265 256.44585039 103.07120115 256.45062989 C95.27352185 256.46170235 87.47589074 256.46217553 79.6782074 256.45611572 C71.6603443 256.45008014 63.64265688 256.46238156 55.62482375 256.48368579 C48.71749422 256.50135777 41.81022032 256.50729428 34.90286905 256.50404805 C30.78785025 256.50224362 26.67295673 256.50478654 22.5579586 256.51876259 C18.68446895 256.5314275 14.81125107 256.52931594 10.93776512 256.5163517 C9.52535913 256.51400492 8.11293349 256.51665154 6.70055008 256.52497482 C-11.81412317 256.626119 -27.62098898 251.32295508 -41.13331604 238.48345947 C-52.16744395 227.39263969 -59.31228469 212.71834568 -59.35554504 196.92533875 C-59.36125519 195.67368423 -59.36696533 194.42202972 -59.37284851 193.13244629 C-59.37409373 191.75286875 -59.37521886 190.3732911 -59.37623596 188.99371338 C-59.38086759 187.5346311 -59.38589271 186.07555002 -59.39128113 184.61647034 C-59.40437765 180.65740971 -59.41084521 176.69836603 -59.41529179 172.73928714 C-59.41822816 170.26152811 -59.42233412 167.78377364 -59.42679596 165.30601692 C-59.44046632 157.54151254 -59.45013411 149.77701867 -59.45399785 142.01250309 C-59.45847161 133.07285644 -59.47598964 124.13336322 -59.50499845 115.1937632 C-59.526681 108.26953748 -59.5367057 101.34535471 -59.53803897 94.42109543 C-59.5390827 90.29259175 -59.54489726 86.16423239 -59.56285858 82.03576469 C-59.57945241 78.14592835 -59.58144054 74.25634302 -59.57271957 70.36648369 C-59.57195509 68.94762495 -59.57621313 67.52875208 -59.58617783 66.10992813 C-59.7157728 46.48880248 -53.82062708 31.08730477 -40.09010315 16.95294189 C-29.38912636 6.86344949 -14.81472682 0.04058064 0 0 Z " fill="#F2F1EC" transform="translate(59.21510314941406,-0.14044189453125)"/>
<path d="M0 0 C1.06831558 -0.0112793 2.13663116 -0.02255859 3.23731995 -0.03417969 C4.98763771 -0.0220343 4.98763771 -0.0220343 6.77331543 -0.00964355 C8.00617783 -0.01665283 9.23904022 -0.02366211 10.50926208 -0.03088379 C13.88763011 -0.04547371 17.26501838 -0.04205322 20.64333153 -0.02936745 C24.17955207 -0.01923622 27.71573092 -0.02863345 31.25195312 -0.03491211 C37.19030265 -0.0421882 43.12845315 -0.03260199 49.06677246 -0.0135498 C55.93110049 0.00821909 62.7949533 0.00116768 69.65926981 -0.02085543 C75.55409769 -0.03901069 81.44878255 -0.04156721 87.34362936 -0.03110075 C90.86381412 -0.02486642 94.38377554 -0.02402825 97.90394592 -0.0372467 C101.82803808 -0.05095279 105.75159846 -0.03195329 109.67565918 -0.00964355 C110.84253769 -0.01774048 112.0094162 -0.0258374 113.21165466 -0.03417969 C114.27997025 -0.02290039 115.34828583 -0.01162109 116.44897461 0 C117.37663383 0.0015081 118.30429306 0.0030162 119.26006317 0.00457001 C122.59826881 0.68640655 123.74377128 1.75361456 125.7244873 4.50793457 C126.22785187 7.42526245 126.22785187 7.42526245 126.23242188 10.88439941 C126.24370117 12.19672546 126.25498047 13.50905151 126.26660156 14.86114502 C126.25882449 16.31372291 126.25063182 17.76629862 126.24206543 19.21887207 C126.24748606 20.74990505 126.25460838 22.28093281 126.26330566 23.81195068 C126.28154928 27.96900457 126.27446737 32.1256616 126.26178932 36.28272247 C126.25166697 40.63172989 126.26105287 44.98070317 126.26733398 49.32971191 C126.27461263 56.63332219 126.26501703 63.93677072 126.24597168 71.24035645 C126.22420246 79.68606975 126.23125368 88.13139681 126.2532773 96.57710075 C126.27142516 103.82647446 126.27399265 111.07573185 126.26352262 118.32512093 C126.25728429 122.6557155 126.25646133 126.98612849 126.26966858 131.31671143 C126.2812176 135.38800906 126.27321914 139.45880842 126.25009155 143.53005219 C126.24479932 145.02482017 126.24632708 146.51963005 126.25514221 148.01438141 C126.26605905 150.05339569 126.24994658 152.09250153 126.23242188 154.13146973 C126.23091377 155.27298492 126.22940567 156.41450012 126.22785187 157.59060669 C125.60259826 161.21436153 124.70585565 162.39065564 121.7244873 164.50793457 C119.2444458 165.01409245 119.2444458 165.01409245 116.41101074 165.02259827 C115.33428101 165.03532272 114.25755127 165.04804718 113.14819336 165.06115723 C111.97196411 165.05463135 110.79573486 165.04810547 109.5838623 165.04138184 C108.34124634 165.04999741 107.09863037 165.05861298 105.81835938 165.06748962 C102.41314579 165.08630484 99.00890488 165.08704396 95.60371399 165.07816815 C92.7606427 165.07305767 89.9176587 165.08035118 87.07459641 165.08764023 C80.36797198 165.10463989 73.6615751 165.10107241 66.95495605 165.08435059 C60.03602555 165.06742252 53.11772563 165.08327234 46.19886398 165.11557347 C40.25732123 165.14226101 34.31597488 165.14954791 28.3743782 165.14105839 C24.82618462 165.13612738 21.27837061 165.13835361 17.73022461 165.1588459 C13.77493545 165.18059642 9.82040798 165.1618137 5.8651123 165.13903809 C4.68888306 165.15073029 3.51265381 165.16242249 2.30078125 165.17446899 C-5.60214891 165.08159205 -5.60214891 165.08159205 -9.00592041 162.18182373 C-10.66205551 158.69383649 -10.72962828 156.09545616 -10.6661377 152.23840332 C-10.66047791 151.55740067 -10.65481812 150.87639801 -10.64898682 150.17475891 C-10.62671751 148.01424812 -10.57654588 145.85543811 -10.5255127 143.69543457 C-10.50543517 142.22475552 -10.48718658 140.75405028 -10.4708252 139.2833252 C-10.42688595 135.69098207 -10.35792726 132.09962451 -10.2755127 128.50793457 C-11.3451123 128.53411865 -12.41471191 128.56030273 -13.51672363 128.58728027 C-17.48981765 128.67786564 -21.46282068 128.73521314 -25.43664551 128.78259277 C-27.15555171 128.80771824 -28.87435126 128.84182504 -30.59289551 128.88513184 C-33.06549383 128.94587486 -35.53667875 128.97416219 -38.0098877 128.99621582 C-38.77669861 129.02202225 -39.54350952 129.04782867 -40.33355713 129.07441711 C-43.91189588 129.07629287 -45.80440302 128.94288236 -48.47808838 126.47442627 C-50.73159142 122.75521651 -50.83911918 119.69731015 -50.79309082 115.47644043 C-50.8001001 114.68234268 -50.80710938 113.88824493 -50.81433105 113.07008362 C-50.83188875 110.45395601 -50.82029785 107.83891628 -50.8067627 105.22277832 C-50.80945799 103.40104465 -50.81334073 101.57931237 -50.81835938 99.75758362 C-50.82425116 95.94367751 -50.81570085 92.13014662 -50.79699707 88.31628418 C-50.77419139 83.42782499 -50.78734267 78.54024347 -50.81128693 73.65181637 C-50.82573978 69.8917021 -50.82114158 66.13179602 -50.81077576 62.37167549 C-50.80810789 60.56914732 -50.81138036 58.76660024 -50.82069397 56.96409416 C-50.83085311 54.44556453 -50.8153694 51.9284578 -50.79309082 49.41003418 C-50.80118774 48.66550995 -50.80928467 47.92098572 -50.81762695 47.15390015 C-50.7618885 43.75288407 -50.50625799 41.82545794 -48.48382568 39.04243469 C-45.11612798 36.70230783 -41.73729494 37.0140123 -37.7911377 37.11730957 C-36.97554382 37.12296936 -36.15994995 37.12862915 -35.31964111 37.13446045 C-32.72099498 37.1568073 -30.12374028 37.20699835 -27.5255127 37.25793457 C-25.76120973 37.27800186 -23.99688509 37.29625223 -22.23254395 37.31262207 C-17.91299942 37.35666627 -13.59449176 37.42568035 -9.2755127 37.50793457 C-9.29645996 36.52921387 -9.31740723 35.55049316 -9.33898926 34.54211426 C-9.41149233 30.90440553 -9.45734902 27.26676041 -9.49523926 23.62854004 C-9.51533149 22.05518853 -9.54261069 20.48191149 -9.57727051 18.90881348 C-9.62589763 16.64479185 -9.64850405 14.38175884 -9.6661377 12.11730957 C-9.68678284 11.41612 -9.70742798 10.71493042 -9.72869873 9.99249268 C-9.73017614 6.76317961 -9.58567969 4.90708091 -7.57685089 2.32196808 C-4.80011897 0.13320471 -3.49869393 0.00568785 0 0 Z " fill="#137C43" transform="translate(90.2755126953125,45.4920654296875)"/>
<path d="M0 0 C6.93 0 13.86 0 21 0 C21 13.53 21 27.06 21 41 C42.45 41 63.9 41 86 41 C86.16043524 60.30570689 86.16043524 60.30570689 86.1953125 68.53125 C86.2192296 74.14533599 86.24753153 79.75916118 86.30175781 85.37304688 C86.34520044 89.89882516 86.36913387 94.42432381 86.37950897 98.95029449 C86.38690321 100.67750705 86.40134245 102.4047042 86.42292023 104.13179779 C86.45193394 106.55011639 86.45595697 108.96727771 86.45410156 111.38574219 C86.46848267 112.10071869 86.48286377 112.81569519 86.49768066 113.55233765 C86.47099736 116.76386426 86.30017852 118.61391007 84.30244923 121.18339157 C81.51390723 123.38352213 80.19558035 123.50227187 76.67979431 123.50793457 C75.60161942 123.51921387 74.52344452 123.53049316 73.41259766 123.54211426 C72.23479736 123.53401733 71.05699707 123.52592041 69.84350586 123.51757812 C68.5992836 123.5245874 67.35506134 123.53159668 66.07313538 123.53881836 C62.66384687 123.55340804 59.25552923 123.54998843 55.84629512 123.53730202 C52.27891026 123.52717283 48.71156679 123.53656725 45.1441803 123.54284668 C39.1545568 123.55012242 33.16513064 123.54053649 27.17553711 123.52148438 C20.24870663 123.49970562 13.3223469 123.5067742 6.39552778 123.52879 C0.44891163 123.54693441 -5.49756271 123.54950739 -11.4441976 123.53903532 C-14.99620784 123.5327963 -18.54799669 123.53197591 -22.09999275 123.54518127 C-26.05781526 123.55886795 -30.0151091 123.53990563 -33.97290039 123.51757812 C-35.74263718 123.52972351 -35.74263718 123.52972351 -37.54812622 123.54211426 C-38.62348129 123.53083496 -39.69883636 123.51955566 -40.80677795 123.50793457 C-41.74273332 123.50642647 -42.67868868 123.50491837 -43.64300632 123.50336456 C-46 123 -46 123 -47.80329037 121.18596649 C-49.54986036 117.99559902 -49.37113133 114.93023341 -49.29296875 111.390625 C-49.28872391 110.66381531 -49.28447906 109.93700562 -49.28010559 109.18817139 C-49.2633613 106.87506496 -49.22571885 104.56284145 -49.1875 102.25 C-49.17244758 100.67839803 -49.15876015 99.10678236 -49.14648438 97.53515625 C-49.11347195 93.68976585 -49.06172056 89.84503244 -49 86 C-47.71834961 85.97494385 -46.43669922 85.9498877 -45.11621094 85.92407227 C-40.3600875 85.82988405 -35.60410621 85.7296911 -30.84814453 85.62768555 C-28.78991013 85.58437991 -26.73164082 85.54270171 -24.67333984 85.50268555 C-21.71441121 85.44487725 -18.7556576 85.38121304 -15.796875 85.31640625 C-14.87694763 85.29969376 -13.95702026 85.28298126 -13.00921631 85.26576233 C-11.71833099 85.2358445 -11.71833099 85.2358445 -10.40136719 85.20532227 C-9.64635925 85.18977798 -8.89135132 85.1742337 -8.11346436 85.15821838 C-5.97520329 84.99814367 -4.06010916 84.58183632 -2 84 C-2 83.34 -2 82.68 -2 82 C-1.34 82 -0.68 82 0 82 C0 54.94 0 27.88 0 0 Z " fill="#175B36" transform="translate(130,87)"/>
<path d="M0 0 C16.48962261 -0.09341831 32.97915946 -0.16396678 49.4689827 -0.20724869 C57.12540785 -0.22787891 64.78166863 -0.25600807 72.43798828 -0.30175781 C79.11081353 -0.34161177 85.78351976 -0.36742948 92.45646071 -0.37635398 C95.99018954 -0.38157126 99.52357783 -0.39384265 103.05719757 -0.42292023 C107.00076202 -0.45510831 110.94399252 -0.45596033 114.88769531 -0.45410156 C116.64743935 -0.47567322 116.64743935 -0.47567322 118.44273376 -0.49768066 C119.51682999 -0.49218201 120.59092621 -0.48668335 121.6975708 -0.48101807 C122.6304253 -0.48470524 123.5632798 -0.48839241 124.52440262 -0.49219131 C127.78980465 0.15702674 128.97927869 1.40064486 131 4 C131.3743979 6.6792182 131.50787519 8.94082734 131.45410156 11.61425781 C131.45468567 12.37562042 131.45526978 13.13698303 131.45587158 13.92141724 C131.45308973 16.43245386 131.42199452 18.94229634 131.390625 21.453125 C131.38316293 23.19618074 131.37746984 24.93924488 131.37347412 26.68231201 C131.35821501 31.26594276 131.31893099 35.84906502 131.2746582 40.43249512 C131.22650989 45.93403617 131.20817278 51.43574743 131.18484497 56.93743896 C131.1460799 65.29197943 131.06942877 73.6454046 131 82 C109.55 82 88.1 82 66 82 C66 55.27 66 28.54 66 1 C44.22 1 22.44 1 0 1 C0 0.67 0 0.34 0 0 Z " fill="#35C382" transform="translate(85,46)"/>
<path d="M0 0 C21.45 0 42.9 0 65 0 C65 13.53 65 27.06 65 41 C43.55 41 22.1 41 0 41 C0 27.47 0 13.94 0 0 Z " fill="#107C41" transform="translate(151,128)"/>
<path d="M0 0 C21.45 0 42.9 0 65 0 C65 13.53 65 27.06 65 41 C43.55 41 22.1 41 0 41 C0 27.47 0 13.94 0 0 Z " fill="#21A366" transform="translate(151,87)"/>
<path d="M0 0 C2.822052 -0.36076355 2.822052 -0.36076355 6.46923828 -0.34057617 C7.46454056 -0.34123329 7.46454056 -0.34123329 8.47994995 -0.34190369 C10.677035 -0.33981068 12.87336049 -0.31645699 15.0703125 -0.29296875 C16.5920266 -0.28737458 18.1137461 -0.28310364 19.63546753 -0.28010559 C23.64364499 -0.26864261 27.65149712 -0.2391633 31.6595459 -0.20599365 C36.46691667 -0.16993302 41.27439613 -0.1561385 46.0818634 -0.13863373 C53.38813531 -0.10952641 60.69369317 -0.05205021 68 0 C68 13.2 68 26.4 68 40 C62.06 40 56.12 40 50 40 C49.01 39.01 48.02 38.02 47 37 C44.72561712 36.52900985 44.72561712 36.52900985 42.16137695 36.56762695 C41.1805867 36.54783279 40.19979645 36.52803864 39.18928528 36.50764465 C38.13295395 36.50125473 37.07662262 36.49486481 35.98828125 36.48828125 C34.90491989 36.47033005 33.82155853 36.45237885 32.70536804 36.43388367 C29.24111843 36.37965015 25.77700762 36.34584256 22.3125 36.3125 C19.96547542 36.27933851 17.61846919 36.24484996 15.27148438 36.20898438 C9.51444738 36.12391626 3.7573927 36.05562168 -2 36 C-2.04944066 31.35524041 -2.08573863 26.71063404 -2.10986328 22.06567383 C-2.11992041 20.48556856 -2.13356785 18.9054819 -2.15087891 17.32543945 C-2.17514022 15.0541525 -2.18648582 12.78311164 -2.1953125 10.51171875 C-2.20563507 9.80536789 -2.21595764 9.09901703 -2.22659302 8.3712616 C-2.22743775 4.67802208 -2.10720523 3.16080784 0 0 Z " fill="#21A165" transform="translate(83,47)"/>
<path d="M0 0 C1.32 0.33 2.64 0.66 4 1 C4.26968974 13.03880496 4.50672032 25.07776697 4.70202446 37.11802197 C4.79373925 42.70878615 4.89671142 48.29887077 5.02539062 53.88891602 C5.14915146 59.28327697 5.24336711 64.67741831 5.31708145 70.07268715 C5.35040715 72.13136894 5.3943925 74.18990656 5.44918442 76.24812889 C5.52410745 79.13085119 5.56115794 82.01175843 5.58935547 84.89526367 C5.62027786 85.74690598 5.65120026 86.59854828 5.68305969 87.47599792 C5.68423476 93.05821184 5.68423476 93.05821184 3.79968452 95.65212727 C0.72824518 98.43572138 -1.89811088 99.6229985 -5.99560547 99.56762695 C-6.93612762 99.5672493 -7.87664978 99.56687164 -8.84567261 99.56648254 C-9.84277252 99.54067612 -10.83987244 99.51486969 -11.8671875 99.48828125 C-13.41927414 99.47766914 -13.41927414 99.47766914 -15.00271606 99.46684265 C-18.29422554 99.43894587 -21.58400826 99.37621368 -24.875 99.3125 C-27.11195453 99.28741115 -29.34893583 99.26459901 -31.5859375 99.24414062 C-37.05795282 99.18913418 -42.52868406 99.10289189 -48 99 C-48.33 94.71 -48.66 90.42 -49 86 C-47.71834961 85.97494385 -46.43669922 85.9498877 -45.11621094 85.92407227 C-40.3600875 85.82988405 -35.60410621 85.7296911 -30.84814453 85.62768555 C-28.78991013 85.58437991 -26.73164082 85.54270171 -24.67333984 85.50268555 C-21.71441121 85.44487725 -18.7556576 85.38121304 -15.796875 85.31640625 C-14.87694763 85.29969376 -13.95702026 85.28298126 -13.00921631 85.26576233 C-11.71833099 85.2358445 -11.71833099 85.2358445 -10.40136719 85.20532227 C-9.64635925 85.18977798 -8.89135132 85.1742337 -8.11346436 85.15821838 C-5.97520329 84.99814367 -4.06010916 84.58183632 -2 84 C-2 83.34 -2 82.68 -2 82 C-1.34 82 -0.68 82 0 82 C0 54.94 0 27.88 0 0 Z " fill="#114529" transform="translate(130,87)"/>
<path d="M0 0 C3.63 0 7.26 0 11 0 C13.97 5.61 16.94 11.22 20 17 C23.39576589 11.36611567 26.76321384 5.72662167 30 0 C33.63 0 37.26 0 41 0 C37.39001486 6.7797282 33.64141887 13.20647422 29.22265625 19.4921875 C27.69356089 22.62854284 28.05338784 23.68959332 29 27 C30.29253043 29.53417636 30.29253043 29.53417636 31.94140625 32.046875 C32.52470703 32.97371094 33.10800781 33.90054688 33.70898438 34.85546875 C34.32064453 35.81066406 34.93230469 36.76585937 35.5625 37.75 C36.77390321 39.66033847 37.98363594 41.57173764 39.19140625 43.484375 C39.72967041 44.32709961 40.26793457 45.16982422 40.82250977 46.03808594 C42 48 42 48 42 49 C38.04 49 34.08 49 30 49 C28.49498012 46.21093539 26.9958193 43.41899281 25.5 40.625 C25.07074219 39.8309375 24.64148438 39.036875 24.19921875 38.21875 C23.79316406 37.45820313 23.38710937 36.69765625 22.96875 35.9140625 C22.59169922 35.2123291 22.21464844 34.5105957 21.82617188 33.78759766 C21 32 21 32 21 30 C20.34 30 19.68 30 19 30 C18.690625 31.175625 18.690625 31.175625 18.375 32.375 C16.80576961 36.51206194 14.68725656 39.99412221 12.33984375 43.73046875 C10.87096434 46.03714501 10.87096434 46.03714501 10 49 C6.04 49 2.08 49 -2 49 C-0.62840523 45.57101308 0.33407975 43.25120741 2.3125 40.3359375 C2.74820313 39.68882812 3.18390625 39.04171875 3.6328125 38.375 C4.08398438 37.715 4.53515625 37.055 5 36.375 C5.45117188 35.70726562 5.90234375 35.03953125 6.3671875 34.3515625 C7.20490774 33.11233138 8.04452746 31.8743805 8.88671875 30.63818359 C11.34840222 27.43840165 11.34840222 27.43840165 11.78149414 23.59838867 C10.97259589 20.90888412 9.94225002 18.82888125 8.49609375 16.42578125 C8.00302734 15.59369141 7.50996094 14.76160156 7.00195312 13.90429688 C6.48568359 13.04900391 5.96941406 12.19371094 5.4375 11.3125 C4.41153235 9.60255392 3.38920148 7.89041878 2.37109375 6.17578125 C1.91661865 5.42208252 1.46214355 4.66838379 0.99389648 3.8918457 C0 2 0 2 0 0 Z " fill="#F3F8F5" transform="translate(65,104)"/>
<path d="M0 0 C5.94 0 11.88 0 18 0 C18 13.53 18 27.06 18 41 C12.39 41 6.78 41 1 41 C0.67 27.47 0.34 13.94 0 0 Z " fill="#107D42" transform="translate(133,87)"/>
<path d="M0 0 C1.32 0.33 2.64 0.66 4 1 C4.11585964 11.99615656 4.20469815 22.99216787 4.25906086 33.98881054 C4.28515264 39.09505462 4.32054329 44.20088106 4.37719727 49.30688477 C4.43153163 54.23467932 4.46142369 59.16207221 4.47438622 64.0901432 C4.48362352 65.97005855 4.50166208 67.84995196 4.52865028 69.72969627 C4.56496015 72.36349324 4.56994464 74.99563161 4.56762695 77.62963867 C4.58560333 78.40647507 4.60357971 79.18331146 4.62210083 79.98368835 C4.58473261 83.90940448 4.1392432 85.81311796 1.76965332 88.9934082 C-1.18793343 91.13615628 -2.30694451 91.60110437 -5.88208008 91.47583008 C-6.82267776 91.45543167 -7.76327545 91.43503326 -8.7323761 91.41401672 C-9.7346373 91.36633652 -10.7368985 91.31865631 -11.76953125 91.26953125 C-13.32374031 91.22562508 -13.32374031 91.22562508 -14.90934753 91.18083191 C-18.21168096 91.08203385 -21.51147828 90.94775036 -24.8125 90.8125 C-27.05396103 90.73919252 -29.2954991 90.6682017 -31.53710938 90.59960938 C-37.02591637 90.42659013 -42.51306805 90.22443953 -48 90 C-48 89.01 -48 88.02 -48 87 C-46.70787598 86.97494385 -45.41575195 86.9498877 -44.08447266 86.92407227 C-39.30230344 86.83008376 -34.52028238 86.72984234 -29.73828125 86.62768555 C-27.66637634 86.58430423 -25.59443493 86.54263154 -23.52246094 86.50268555 C-20.54871609 86.44506035 -17.57515552 86.38134375 -14.6015625 86.31640625 C-13.67131256 86.29969376 -12.74106262 86.28298126 -11.78262329 86.26576233 C-10.49151138 86.2358445 -10.49151138 86.2358445 -9.17431641 86.20532227 C-8.03514267 86.18200584 -8.03514267 86.18200584 -6.87295532 86.15821838 C-4.90884279 86.10872873 -4.90884279 86.10872873 -3 85 C-2.505 83.515 -2.505 83.515 -2 82 C-1.34 82 -0.68 82 0 82 C0 54.94 0 27.88 0 0 Z " fill="#0C301D" transform="translate(130,87)"/>
<path d="M0 0 C1.32 0.33 2.64 0.66 4 1 C4 14.2 4 27.4 4 41 C3.01 41 2.02 41 1 41 C1 54.2 1 67.4 1 81 C0.67 81 0.34 81 0 81 C0 54.27 0 27.54 0 0 Z " fill="#0A4A27" transform="translate(130,87)"/>
<path d="M0 0 C1.65 0 3.3 0 5 0 C5 13.53 5 27.06 5 41 C3.68 41 2.36 41 1 41 C0.67 27.47 0.34 13.94 0 0 Z " fill="#0D6D39" transform="translate(133,87)"/>
<path d="M0 0 C2.31 0.33 4.62 0.66 7 1 C7.33 1.99 7.66 2.98 8 4 C7.01 4 6.02 4 5 4 C5 31.06 5 58.12 5 86 C4.67 86 4.34 86 4 86 C3.99413376 84.96683151 3.98826752 83.93366302 3.98222351 82.8691864 C3.92506306 73.14259554 3.8523367 63.4162297 3.76428509 53.68986797 C3.71951702 48.68917635 3.6802752 43.68856741 3.65356445 38.68774414 C3.62759555 33.86357122 3.587239 29.03971542 3.53681374 24.2157383 C3.5201015 22.37334951 3.50861443 20.53090582 3.50238609 18.68845177 C3.49279217 16.11186689 3.46479047 13.5361013 3.43237305 10.9597168 C3.43380814 10.19439133 3.43524323 9.42906586 3.4367218 8.64054871 C3.38902359 4.52801776 3.38902359 4.52801776 1.47297668 1.0025177 C0.98689438 0.67168686 0.50081207 0.34085602 0 0 Z " fill="#0D6735" transform="translate(125,83)"/>
<path d="M0 0 C2.31 0.33 4.62 0.66 7 1 C7.33 1.99 7.66 2.98 8 4 C7.01 4 6.02 4 5 4 C4.67 4.66 4.34 5.32 4 6 C3.71125 5.38125 3.4225 4.7625 3.125 4.125 C2.06279958 1.86674235 2.06279958 1.86674235 0 0 Z " fill="#13693F" transform="translate(125,83)"/>
</svg>
