<?xml version="1.0" encoding="UTF-8"?>
<svg version="1.1" xmlns="http://www.w3.org/2000/svg" width="256" height="256">
<path d="M0 0 C1.25165451 -0.00571014 2.50330902 -0.01142029 3.79289246 -0.01730347 C5.17246999 -0.01854869 6.55204764 -0.01967381 7.93162537 -0.02069092 C9.39070765 -0.02532254 10.84978873 -0.03034767 12.30886841 -0.03573608 C16.26792903 -0.0488326 20.22697271 -0.05530017 24.18605161 -0.05974674 C26.66381064 -0.06268311 29.1415651 -0.06678907 31.61932182 -0.07125092 C39.38382621 -0.08492127 47.14832008 -0.09458906 54.91283566 -0.09845281 C63.85248231 -0.10292656 72.79197553 -0.1204446 81.73157555 -0.1494534 C88.65580127 -0.17113595 95.57998404 -0.18116065 102.50424331 -0.18249393 C106.63274699 -0.18353765 110.76110636 -0.18935222 114.88957405 -0.20731354 C118.77941039 -0.22390737 122.66899573 -0.2258955 126.55885506 -0.21717453 C127.9777138 -0.21641005 129.39658666 -0.22066809 130.81541061 -0.23063278 C150.5520866 -0.36099095 165.50901918 5.63463774 179.90208435 19.12481689 C184.09555868 23.46514441 187.20024811 28.19592164 190.09739685 33.45294189 C190.58587097 34.32221313 190.58587097 34.32221313 191.08421326 35.20904541 C196.53005564 45.61788248 197.22785834 56.54199271 197.17308044 68.08184814 C197.17715602 69.54196564 197.18250338 71.00208004 197.18901062 72.46218872 C197.20257302 76.39198896 197.19743192 80.32155033 197.18787336 84.25135422 C197.1802188 88.38569479 197.18733833 92.52001643 197.19203186 96.65435791 C197.19747267 103.5940921 197.19034199 110.53373015 197.17601013 117.47344971 C197.15968683 125.46923178 197.16497653 133.46478428 197.18148935 141.4605608 C197.19515217 148.3552206 197.19700054 155.24981173 197.18917334 162.14448071 C197.18452307 166.24938399 197.18379837 170.35417977 197.19378281 174.45907593 C197.20252045 178.32030989 197.19630819 182.18125106 197.17910004 186.04245377 C197.17517115 187.45001873 197.17620659 188.85760883 197.18288803 190.26516342 C197.26287069 208.84361291 191.90065819 224.56032584 179.06419373 238.12896729 C166.57817914 250.59571333 150.62800502 256.32483667 133.27922058 256.42260742 C131.91416894 256.42031435 130.54911766 256.41780475 129.18406677 256.4151001 C127.72439312 256.41945463 126.26472174 256.42464023 124.80505371 256.43058777 C120.86273187 256.44391074 116.92050629 256.44456385 112.97816634 256.44202447 C109.67583687 256.44094999 106.3735265 256.44585039 103.07120115 256.45062989 C95.27352185 256.46170235 87.47589074 256.46217553 79.6782074 256.45611572 C71.6603443 256.45008014 63.64265688 256.46238156 55.62482375 256.48368579 C48.71749422 256.50135777 41.81022032 256.50729428 34.90286905 256.50404805 C30.78785025 256.50224362 26.67295673 256.50478654 22.5579586 256.51876259 C18.68446895 256.5314275 14.81125107 256.52931594 10.93776512 256.5163517 C9.52535913 256.51400492 8.11293349 256.51665154 6.70055008 256.52497482 C-11.81412317 256.626119 -27.62098898 251.32295508 -41.13331604 238.48345947 C-52.16744395 227.39263969 -59.31228469 212.71834568 -59.35554504 196.92533875 C-59.36125519 195.67368423 -59.36696533 194.42202972 -59.37284851 193.13244629 C-59.37409373 191.75286875 -59.37521886 190.3732911 -59.37623596 188.99371338 C-59.38086759 187.5346311 -59.38589271 186.07555002 -59.39128113 184.61647034 C-59.40437765 180.65740971 -59.41084521 176.69836603 -59.41529179 172.73928714 C-59.41822816 170.26152811 -59.42233412 167.78377364 -59.42679596 165.30601692 C-59.44046632 157.54151254 -59.45013411 149.77701867 -59.45399785 142.01250309 C-59.45847161 133.07285644 -59.47598964 124.13336322 -59.50499845 115.1937632 C-59.526681 108.26953748 -59.5367057 101.34535471 -59.53803897 94.42109543 C-59.5390827 90.29259175 -59.54489726 86.16423239 -59.56285858 82.03576469 C-59.57945241 78.14592835 -59.58144054 74.25634302 -59.57271957 70.36648369 C-59.57195509 68.94762495 -59.57621313 67.52875208 -59.58617783 66.10992813 C-59.7157728 46.48880248 -53.82062708 31.08730477 -40.09010315 16.95294189 C-29.38912636 6.86344949 -14.81472682 0.04058064 0 0 Z " fill="#242A39" transform="translate(59.21510314941406,-0.14044189453125)"/>
<path d="M0 0 C1.06556625 -0.0071553 2.13113251 -0.01431061 3.22898865 -0.02168274 C4.99009224 -0.02571609 4.99009224 -0.02571609 6.78677368 -0.02983093 C8.6356292 -0.03968773 8.6356292 -0.03968773 10.52183533 -0.04974365 C13.90825371 -0.06609878 17.29460957 -0.07770542 20.68105268 -0.08594918 C22.79607482 -0.0910984 24.91109257 -0.09717412 27.0261116 -0.10346031 C33.64157608 -0.12251159 40.25702939 -0.13674362 46.87251604 -0.14507228 C54.51283501 -0.15484968 62.15286465 -0.18118221 69.79308164 -0.22157317 C75.69632287 -0.25171228 81.59948104 -0.26653898 87.50279772 -0.26985329 C91.02977047 -0.27220606 94.5564341 -0.28119537 98.08332443 -0.30631447 C102.01712103 -0.33387921 105.95053535 -0.32977078 109.88442993 -0.32279968 C111.05445053 -0.33560974 112.22447113 -0.3484198 113.4299469 -0.36161804 C114.5011528 -0.35467422 115.5723587 -0.34773041 116.67602539 -0.34057617 C117.60628225 -0.34296453 118.53653912 -0.34535288 119.49498558 -0.34781361 C122.75470543 0.30542696 123.94625528 1.552148 125.96499634 4.14717102 C126.33939424 6.82638922 126.47287153 9.08799836 126.4190979 11.76142883 C126.41968201 12.52279144 126.42026611 13.28415405 126.42086792 14.06858826 C126.41808606 16.57962488 126.38699086 19.08946736 126.35562134 21.60029602 C126.34815927 23.34335176 126.34246618 25.0864159 126.33847046 26.82948303 C126.32321134 31.41311378 126.28392733 35.99623604 126.23965454 40.57966614 C126.19150622 46.08120719 126.17316912 51.58291845 126.14984131 57.08460999 C126.11107624 65.43915045 126.03442511 73.79257562 125.96499634 82.14717102 C104.51499634 82.14717102 83.06499634 82.14717102 60.96499634 82.14717102 C60.96499634 68.61717102 60.96499634 55.08717102 60.96499634 41.14717102 C54.03499634 41.14717102 47.10499634 41.14717102 39.96499634 41.14717102 C39.96499634 68.20717102 39.96499634 95.26717102 39.96499634 123.14717102 C39.30499634 123.14717102 38.64499634 123.14717102 37.96499634 123.14717102 C37.96499634 123.80717102 37.96499634 124.46717102 37.96499634 125.14717102 C34.26995522 127.52461687 30.67750108 127.4302777 26.43008423 127.40596008 C25.30008751 127.41121704 25.30008751 127.41121704 24.14726257 127.4165802 C21.66063176 127.42537202 19.17428623 127.41955683 16.68765259 127.41279602 C14.95656785 127.41414355 13.22548347 127.41608481 11.49440002 127.41859436 C7.86713049 127.42154229 4.23995949 127.41725916 0.61270142 127.40791321 C-4.03220702 127.39652738 -8.6768841 127.4030747 -13.32178402 127.41505814 C-16.89659867 127.42229295 -20.47135869 127.41998121 -24.046175 127.41480255 C-25.7585611 127.4134701 -27.47095218 127.41509959 -29.18333244 127.41976166 C-31.57925381 127.42485259 -33.97480327 127.41708037 -36.37069702 127.40596008 C-37.07579407 127.41000854 -37.78089111 127.41405701 -38.50735474 127.41822815 C-42.43683246 127.3845181 -45.54296312 127.00563028 -49.03500366 125.14717102 C-50.57332526 122.07052782 -50.19995026 118.83351217 -50.21200562 115.45625305 C-50.21857681 114.66259338 -50.22514801 113.86893372 -50.23191833 113.05122375 C-50.25166426 110.41914277 -50.26331589 107.78711884 -50.27328491 105.15498352 C-50.27736044 104.25714016 -50.28143597 103.3592968 -50.28563499 102.43424606 C-50.30649983 97.68344603 -50.32080056 92.93267494 -50.33016968 88.18183899 C-50.3412437 83.26985185 -50.37565369 78.35831655 -50.41534138 73.44648933 C-50.44145766 69.67356003 -50.44985699 65.90073927 -50.45345116 62.12772751 C-50.45832893 60.31679605 -50.46997667 58.50586981 -50.48848915 56.6950264 C-50.51277835 54.16194338 -50.51193484 51.63004131 -50.50497437 49.09687805 C-50.51778442 48.34764069 -50.53059448 47.59840332 -50.54379272 46.82646179 C-50.5095045 43.40659081 -50.27535048 41.47779632 -48.24055481 38.67869568 C-44.92413467 36.37578866 -41.65493856 36.65193361 -37.76937866 36.75654602 C-36.97598083 36.76220581 -36.18258301 36.7678656 -35.36514282 36.7736969 C-32.83780893 36.79603955 -30.31190701 36.84622926 -27.78500366 36.89717102 C-26.06887834 36.91723888 -24.35273074 36.93548915 -22.63656616 36.95185852 C-18.43549586 36.99589707 -14.23549231 37.06490776 -10.03500366 37.14717102 C-10.05071411 36.23427307 -10.06642456 35.32137512 -10.08261108 34.3808136 C-10.13387336 30.97955092 -10.17141805 27.57870139 -10.19979858 24.17720032 C-10.21484432 22.7077332 -10.23528604 21.23831068 -10.26132202 19.76899719 C-10.29789322 17.65145332 -10.31477167 15.53450537 -10.32797241 13.41670227 C-10.34368286 12.14415588 -10.35939331 10.8716095 -10.37557983 9.5605011 C-10.01083482 5.90494553 -9.24461646 4.04642744 -7.03500366 1.14717102 C-4.5259984 -0.10733161 -2.80879183 0.0129137 0 0 Z " fill="#127B42" transform="translate(90.03500366210938,45.85282897949219)"/>
<path d="M0 0 C0.33 0 0.66 0 1 0 C1 51.48 1 102.96 1 156 C0.34 156 -0.32 156 -1 156 C-1.33 156.99 -1.66 157.98 -2 159 C-4.51977715 160.25988858 -6.25846967 160.13432006 -9.07969666 160.14717102 C-10.15512222 160.15432632 -11.23054779 160.16148163 -12.33856201 160.16885376 C-13.52355286 160.17154266 -14.7085437 160.17423157 -15.92944336 160.17700195 C-17.79533867 160.18685875 -17.79533867 160.18685875 -19.69892883 160.19691467 C-23.1162707 160.21326924 -26.53355063 160.2248759 -29.95091701 160.2331202 C-32.08469241 160.23826882 -34.21846346 160.24434452 -36.35223579 160.25063133 C-43.02482939 160.26968106 -49.69741192 160.2839143 -56.37002748 160.2922433 C-64.0794058 160.30202483 -71.78849768 160.32836876 -79.49777502 160.36874419 C-85.45280485 160.3988653 -91.40775237 160.41370822 -97.36285692 160.41702431 C-100.92165456 160.41937884 -104.48014612 160.42839113 -108.03886223 160.45348549 C-112.0063898 160.48101127 -115.97353757 160.47694735 -119.94116211 160.4699707 C-121.71561203 160.48918579 -121.71561203 160.48918579 -123.52590942 160.50878906 C-124.60415482 160.50184525 -125.68240021 160.49490143 -126.7933197 160.48774719 C-127.7318727 160.49013555 -128.6704257 160.4925239 -129.6374197 160.49498463 C-132 160 -132 160 -133.80413151 158.1814909 C-135.56919359 154.96168296 -135.33640589 152.25809466 -135.29296875 148.609375 C-135.28872391 147.90476135 -135.28447906 147.20014771 -135.28010559 146.47418213 C-135.26336538 144.23239288 -135.22572404 141.99151569 -135.1875 139.75 C-135.17244704 138.22657552 -135.1587597 136.70313689 -135.14648438 135.1796875 C-135.11347791 131.45283059 -135.06172854 127.72650437 -135 124 C-136.62010986 124.01571045 -136.62010986 124.01571045 -138.27294922 124.03173828 C-142.27226459 124.06788194 -146.27156546 124.09087984 -150.27099609 124.10986328 C-152.00344265 124.11993376 -153.73587216 124.13359089 -155.46826172 124.15087891 C-157.95544639 124.17508162 -160.44240675 124.18647239 -162.9296875 124.1953125 C-163.70682098 124.20563507 -164.48395447 124.21595764 -165.28463745 124.22659302 C-167.19125493 124.22699271 -169.09731036 124.1223214 -171 124 C-171.66 123.34 -172.32 122.68 -173 122 C-171.99410828 122.00222061 -170.98821655 122.00444122 -169.95184326 122.00672913 C-160.47589396 122.02699393 -150.99994905 122.04198827 -141.523983 122.05181217 C-136.65220995 122.05703249 -131.78045439 122.06411475 -126.90869141 122.07543945 C-122.20787636 122.08629849 -117.50707814 122.09228326 -112.80625153 122.09487724 C-111.01209498 122.09672604 -109.21793937 122.10033622 -107.42378998 122.10573006 C-104.91238916 122.11298046 -102.40105802 122.11398924 -99.88964844 122.11352539 C-98.77510536 122.1189183 -98.77510536 122.1189183 -97.63804626 122.12442017 C-94.28278024 122.11770683 -91.20728078 122.0490987 -88 121 C-88 120.34 -88 119.68 -88 119 C-87.34 119 -86.68 119 -86 119 C-86 91.94 -86 64.88 -86 37 C-79.07 37 -72.14 37 -65 37 C-65 50.53 -65 64.06 -65 78 C-43.55 78 -22.1 78 0 78 C0 52.26 0 26.52 0 0 Z " fill="#185B37" transform="translate(216,50)"/>
<path d="M0 0 C1.06831558 -0.0112793 2.13663116 -0.02255859 3.23731995 -0.03417969 C4.98763771 -0.0220343 4.98763771 -0.0220343 6.77331543 -0.00964355 C8.00617783 -0.01665283 9.23904022 -0.02366211 10.50926208 -0.03088379 C13.88763011 -0.04547371 17.26501838 -0.04205322 20.64333153 -0.02936745 C24.17955207 -0.01923622 27.71573092 -0.02863345 31.25195312 -0.03491211 C37.19030265 -0.0421882 43.12845315 -0.03260199 49.06677246 -0.0135498 C55.93110049 0.00821909 62.7949533 0.00116768 69.65926981 -0.02085543 C75.55409769 -0.03901069 81.44878255 -0.04156721 87.34362936 -0.03110075 C90.86381412 -0.02486642 94.38377554 -0.02402825 97.90394592 -0.0372467 C101.82803808 -0.05095279 105.75159846 -0.03195329 109.67565918 -0.00964355 C110.84253769 -0.01774048 112.0094162 -0.0258374 113.21165466 -0.03417969 C114.27997025 -0.02290039 115.34828583 -0.01162109 116.44897461 0 C117.37663383 0.0015081 118.30429306 0.0030162 119.26006317 0.00457001 C122.51097753 0.66857709 123.70803863 1.91863686 125.7244873 4.50793457 C126.09888521 7.18715277 126.2323625 9.44876191 126.17858887 12.12219238 C126.17917297 12.88355499 126.17975708 13.6449176 126.18035889 14.42935181 C126.17757703 16.94038843 126.14648182 19.45023091 126.1151123 21.96105957 C126.10765024 23.70411531 126.10195714 25.44717945 126.09796143 27.19024658 C126.08270231 31.77387733 126.0434183 36.35699959 125.99914551 40.94042969 C125.95099719 46.44197074 125.93266009 51.943682 125.90933228 57.44537354 C125.87056721 65.799914 125.79391608 74.15333917 125.7244873 82.50793457 C104.2744873 82.50793457 82.8244873 82.50793457 60.7244873 82.50793457 C60.7244873 68.97793457 60.7244873 55.44793457 60.7244873 41.50793457 C54.7844873 41.50793457 48.8444873 41.50793457 42.7244873 41.50793457 C41.7344873 40.51793457 40.7444873 39.52793457 39.7244873 38.50793457 C37.45010442 38.03694442 37.45010442 38.03694442 34.88586426 38.07556152 C33.90507401 38.05576736 32.92428375 38.03597321 31.91377258 38.01557922 C30.85744125 38.0091893 29.80110992 38.00279938 28.71276855 37.99621582 C27.6294072 37.97826462 26.54604584 37.96031342 25.42985535 37.94181824 C21.96560574 37.88758472 18.50149493 37.85377713 15.0369873 37.82043457 C12.68996273 37.78727308 10.34295649 37.75278453 7.99597168 37.71691895 C2.23893468 37.63185083 -3.51812 37.56355625 -9.2755127 37.50793457 C-9.37453018 32.88153304 -9.44704919 28.2557507 -9.49523926 23.62854004 C-9.51533149 22.05518853 -9.54261069 20.48191149 -9.57727051 18.90881348 C-9.62589763 16.64479185 -9.64850405 14.38175884 -9.6661377 12.11730957 C-9.68678284 11.41612 -9.70742798 10.71493042 -9.72869873 9.99249268 C-9.73017614 6.76317961 -9.58567969 4.90708091 -7.57685089 2.32196808 C-4.80011897 0.13320471 -3.49869393 0.00568785 0 0 Z " fill="#21A366" transform="translate(90.2755126953125,45.4920654296875)"/>
<path d="M0 0 C1.07409622 -0.00549866 2.14819244 -0.01099731 3.25483704 -0.0166626 C4.42799973 -0.00228149 5.60116241 0.01209961 6.80987549 0.0269165 C8.04916306 0.0263324 9.28845062 0.02574829 10.56529236 0.02514648 C13.95995743 0.02745527 17.35364861 0.0475096 20.74814129 0.07544231 C24.29686805 0.1004534 27.84560788 0.10279772 31.39440918 0.10754395 C38.11281001 0.11997465 44.83095038 0.15279731 51.54923654 0.1929419 C59.19848188 0.23765685 66.84773968 0.25964592 74.49708319 0.27972364 C90.23072989 0.32153005 105.96411675 0.39188367 121.6975708 0.48101807 C121.6975708 0.81101807 121.6975708 1.14101807 121.6975708 1.48101807 C101.5675708 1.48101807 81.4375708 1.48101807 60.6975708 1.48101807 C60.6975708 14.68101807 60.6975708 27.88101807 60.6975708 41.48101807 C54.7575708 41.48101807 48.8175708 41.48101807 42.6975708 41.48101807 C41.7075708 40.49101807 40.7175708 39.50101807 39.6975708 38.48101807 C37.42318792 38.01002792 37.42318792 38.01002792 34.85894775 38.04864502 C33.8781575 38.02885086 32.89736725 38.0090567 31.88685608 37.98866272 C30.83052475 37.9822728 29.77419342 37.97588287 28.68585205 37.96929932 C27.60249069 37.95134811 26.51912933 37.93339691 25.40293884 37.91490173 C21.93868923 37.86066822 18.47457842 37.82686062 15.0100708 37.79351807 C12.66304622 37.76035658 10.31603999 37.72586802 7.96905518 37.69000244 C2.21201818 37.60493433 -3.5450365 37.53663974 -9.3024292 37.48101807 C-9.40144668 32.85461654 -9.47396569 28.2288342 -9.52215576 23.60162354 C-9.542248 22.02827203 -9.56952719 20.45499499 -9.60418701 18.88189697 C-9.65281413 16.61787535 -9.67542055 14.35484234 -9.6930542 12.09039307 C-9.71369934 11.38920349 -9.73434448 10.68801392 -9.75561523 9.96557617 C-9.75709233 6.73693739 -9.61153374 4.87949793 -7.60544968 2.29336929 C-4.81598174 0.09821051 -3.5127088 -0.01388422 0 0 Z " fill="#21A064" transform="translate(90.30242919921875,45.51898193359375)"/>
<path d="M0 0 C21.45 0 42.9 0 65 0 C65 13.53 65 27.06 65 41 C43.55 41 22.1 41 0 41 C0 27.47 0 13.94 0 0 Z " fill="#107C41" transform="translate(151,128)"/>
<path d="M0 0 C8.02492157 -0.06289489 16.04895172 -0.1230004 24.07390594 -0.15525055 C27.81085239 -0.17109854 31.54759503 -0.19227935 35.28442383 -0.22631836 C38.88299774 -0.25889319 42.48137389 -0.27684894 46.08008385 -0.28463173 C47.45364178 -0.29017868 48.82718878 -0.30101052 50.20066261 -0.31719017 C52.12300707 -0.33893676 54.04555015 -0.34022517 55.96801758 -0.34057617 C57.06277908 -0.34723801 58.15754059 -0.35389984 59.28547668 -0.36076355 C62 0 62 0 63.85571289 1.28771973 C65.87523433 4.30967698 65.36172506 7.87653767 65.29296875 11.38671875 C65.28994751 12.11105103 65.28692627 12.8353833 65.28381348 13.58166504 C65.26813404 16.28375526 65.22624983 18.98564215 65.1875 21.6875 C65.125625 27.730625 65.06375 33.77375 65 40 C43.55 40 22.1 40 0 40 C0 26.8 0 13.6 0 0 Z " fill="#32C380" transform="translate(151,47)"/>
<path d="M0 0 C1.32 0.33 2.64 0.66 4 1 C4.26968974 13.03880496 4.50672032 25.07776697 4.70202446 37.11802197 C4.79373925 42.70878615 4.89671142 48.29887077 5.02539062 53.88891602 C5.14915146 59.28327697 5.24336711 64.67741831 5.31708145 70.07268715 C5.35040715 72.13136894 5.3943925 74.18990656 5.44918442 76.24812889 C5.52410745 79.13085119 5.56115794 82.01175843 5.58935547 84.89526367 C5.62027786 85.74690598 5.65120026 86.59854828 5.68305969 87.47599792 C5.68423423 93.05567361 5.68423423 93.05567361 3.80291176 95.65212727 C0.69869376 98.47006846 -1.94899331 99.62236781 -6.08740234 99.56762695 C-7.04794525 99.5672493 -8.00848816 99.56687164 -8.99813843 99.56648254 C-10.01711212 99.54067612 -11.03608582 99.51486969 -12.0859375 99.48828125 C-13.14285797 99.48120651 -14.19977844 99.47413177 -15.28872681 99.46684265 C-18.65154966 99.43894115 -22.01268372 99.37620755 -25.375 99.3125 C-27.66013214 99.28741178 -29.94529048 99.26459953 -32.23046875 99.24414062 C-37.82095933 99.18912783 -43.41019372 99.10288181 -49 99 C-49 95.04 -49 91.08 -49 87 C-50.62010986 87.01571045 -50.62010986 87.01571045 -52.27294922 87.03173828 C-56.27226459 87.06788194 -60.27156546 87.09087984 -64.27099609 87.10986328 C-66.00344265 87.11993376 -67.73587216 87.13359089 -69.46826172 87.15087891 C-71.95544639 87.17508162 -74.44240675 87.18647239 -76.9296875 87.1953125 C-77.70682098 87.20563507 -78.48395447 87.21595764 -79.28463745 87.22659302 C-81.19125493 87.22699271 -83.09731036 87.1223214 -85 87 C-85.66 86.34 -86.32 85.68 -87 85 C-85.99410828 85.00222061 -84.98821655 85.00444122 -83.95184326 85.00672913 C-74.47589396 85.02699393 -64.99994905 85.04198827 -55.523983 85.05181217 C-50.65220995 85.05703249 -45.78045439 85.06411475 -40.90869141 85.07543945 C-36.20787636 85.08629849 -31.50707814 85.09228326 -26.80625153 85.09487724 C-25.01209498 85.09672604 -23.21793937 85.10033622 -21.42378998 85.10573006 C-18.91238916 85.11298046 -16.40105802 85.11398924 -13.88964844 85.11352539 C-12.77510536 85.1189183 -12.77510536 85.1189183 -11.63804626 85.12442017 C-8.28278024 85.11770683 -5.20728078 85.0490987 -2 84 C-2 83.34 -2 82.68 -2 82 C-1.34 82 -0.68 82 0 82 C0 54.94 0 27.88 0 0 Z " fill="#0D3721" transform="translate(130,87)"/>
<path d="M0 0 C3.63 0 7.26 0 11 0 C13.97 5.61 16.94 11.22 20 17 C23.39576589 11.36611567 26.76321384 5.72662167 30 0 C33.63 0 37.26 0 41 0 C37.39001486 6.7797282 33.64141887 13.20647422 29.22265625 19.4921875 C27.69356089 22.62854284 28.05338784 23.68959332 29 27 C30.29253043 29.53417636 30.29253043 29.53417636 31.94140625 32.046875 C32.52470703 32.97371094 33.10800781 33.90054688 33.70898438 34.85546875 C34.32064453 35.81066406 34.93230469 36.76585937 35.5625 37.75 C36.77390321 39.66033847 37.98363594 41.57173764 39.19140625 43.484375 C39.72967041 44.32709961 40.26793457 45.16982422 40.82250977 46.03808594 C42 48 42 48 42 49 C38.04 49 34.08 49 30 49 C28.49498012 46.21093539 26.9958193 43.41899281 25.5 40.625 C25.07074219 39.8309375 24.64148438 39.036875 24.19921875 38.21875 C23.79316406 37.45820313 23.38710937 36.69765625 22.96875 35.9140625 C22.59169922 35.2123291 22.21464844 34.5105957 21.82617188 33.78759766 C21 32 21 32 21 30 C20.34 30 19.68 30 19 30 C18.690625 31.175625 18.690625 31.175625 18.375 32.375 C16.80576961 36.51206194 14.68725656 39.99412221 12.33984375 43.73046875 C10.87096434 46.03714501 10.87096434 46.03714501 10 49 C6.04 49 2.08 49 -2 49 C-0.62840523 45.57101308 0.33407975 43.25120741 2.3125 40.3359375 C2.74820313 39.68882812 3.18390625 39.04171875 3.6328125 38.375 C4.08398438 37.715 4.53515625 37.055 5 36.375 C5.45117188 35.70726562 5.90234375 35.03953125 6.3671875 34.3515625 C7.20490774 33.11233138 8.04452746 31.8743805 8.88671875 30.63818359 C11.34840222 27.43840165 11.34840222 27.43840165 11.78149414 23.59838867 C10.97259589 20.90888412 9.94225002 18.82888125 8.49609375 16.42578125 C8.00302734 15.59369141 7.50996094 14.76160156 7.00195312 13.90429688 C6.48568359 13.04900391 5.96941406 12.19371094 5.4375 11.3125 C4.41153235 9.60255392 3.38920148 7.89041878 2.37109375 6.17578125 C1.91661865 5.42208252 1.46214355 4.66838379 0.99389648 3.8918457 C0 2 0 2 0 0 Z " fill="#F3F8F5" transform="translate(65,104)"/>
<path d="M0 0 C5.94 0 11.88 0 18 0 C18 13.53 18 27.06 18 41 C12.39 41 6.78 41 1 41 C0.67 27.47 0.34 13.94 0 0 Z " fill="#107D42" transform="translate(133,87)"/>
<path d="M0 0 C0.33 0 0.66 0 1 0 C2.3671875 5.76171875 2.3671875 5.76171875 2 8 C-0.65877666 10.97747327 -2.42757995 12.71269113 -6.39816284 13.43818665 C-9.30649687 13.57817256 -12.17514171 13.56199978 -15.0859375 13.48828125 C-16.14285797 13.48120651 -17.19977844 13.47413177 -18.28872681 13.46684265 C-21.65154966 13.43894115 -25.01268372 13.37620755 -28.375 13.3125 C-30.66013214 13.28741178 -32.94529048 13.26459953 -35.23046875 13.24414062 C-40.8208849 13.18912856 -46.41032178 13.1055442 -52 13 C-52 10.36 -52 7.72 -52 5 C-51.11130219 4.99453156 -51.11130219 4.99453156 -50.20465088 4.98895264 C-44.04000577 4.94715293 -37.87610694 4.87782542 -31.71191406 4.79248047 C-29.41120873 4.76424896 -27.11040601 4.74304534 -24.80957031 4.72900391 C-21.50274721 4.70760514 -18.19709774 4.66096892 -14.890625 4.609375 C-13.86132874 4.60814636 -12.83203247 4.60691772 -11.77154541 4.60565186 C-6.15325813 4.60306302 -6.15325813 4.60306302 -1.38183594 1.96191406 C-0.92583008 1.31448242 -0.46982422 0.66705078 0 0 Z " fill="#12462A" transform="translate(133,173)"/>
<path d="M0 0 C1.32 0.33 2.64 0.66 4 1 C4 14.2 4 27.4 4 41 C3.01 41 2.02 41 1 41 C1 54.2 1 67.4 1 81 C0.67 81 0.34 81 0 81 C0 54.27 0 27.54 0 0 Z " fill="#0A4A27" transform="translate(130,87)"/>
<path d="M0 0 C1.65 0 3.3 0 5 0 C5 13.53 5 27.06 5 41 C3.68 41 2.36 41 1 41 C0.67 27.47 0.34 13.94 0 0 Z " fill="#0D6D39" transform="translate(133,87)"/>
<path d="M0 0 C2.31 0.33 4.62 0.66 7 1 C7.33 1.99 7.66 2.98 8 4 C7.01 4 6.02 4 5 4 C5 31.06 5 58.12 5 86 C4.67 86 4.34 86 4 86 C3.99413376 84.96683151 3.98826752 83.93366302 3.98222351 82.8691864 C3.92506306 73.14259554 3.8523367 63.4162297 3.76428509 53.68986797 C3.71951702 48.68917635 3.6802752 43.68856741 3.65356445 38.68774414 C3.62759555 33.86357122 3.587239 29.03971542 3.53681374 24.2157383 C3.5201015 22.37334951 3.50861443 20.53090582 3.50238609 18.68845177 C3.49279217 16.11186689 3.46479047 13.5361013 3.43237305 10.9597168 C3.43380814 10.19439133 3.43524323 9.42906586 3.4367218 8.64054871 C3.38902359 4.52801776 3.38902359 4.52801776 1.47297668 1.0025177 C0.98689438 0.67168686 0.50081207 0.34085602 0 0 Z " fill="#0D6735" transform="translate(125,83)"/>
<path d="M0 0 C2.31 0.33 4.62 0.66 7 1 C7.33 1.99 7.66 2.98 8 4 C7.01 4 6.02 4 5 4 C4.67 4.66 4.34 5.32 4 6 C3.71125 5.38125 3.4225 4.7625 3.125 4.125 C2.06279958 1.86674235 2.06279958 1.86674235 0 0 Z " fill="#13693F" transform="translate(125,83)"/>
</svg>
