<?xml version="1.0" encoding="UTF-8"?>
<svg version="1.1" xmlns="http://www.w3.org/2000/svg" width="256" height="256">
<path d="M0 0 C1.25165451 -0.00571014 2.50330902 -0.01142029 3.79289246 -0.01730347 C5.17246999 -0.01854869 6.55204764 -0.01967381 7.93162537 -0.02069092 C9.39070765 -0.02532254 10.84978873 -0.03034767 12.30886841 -0.03573608 C16.26792903 -0.0488326 20.22697271 -0.05530017 24.18605161 -0.05974674 C26.66381064 -0.06268311 29.1415651 -0.06678907 31.61932182 -0.07125092 C39.38382621 -0.08492127 47.14832008 -0.09458906 54.91283566 -0.09845281 C63.85248231 -0.10292656 72.79197553 -0.1204446 81.73157555 -0.1494534 C88.65580127 -0.17113595 95.57998404 -0.18116065 102.50424331 -0.18249393 C106.63274699 -0.18353765 110.76110636 -0.18935222 114.88957405 -0.20731354 C118.77941039 -0.22390737 122.66899573 -0.2258955 126.55885506 -0.21717453 C127.9777138 -0.21641005 129.39658666 -0.22066809 130.81541061 -0.23063278 C150.5520866 -0.36099095 165.50901918 5.63463774 179.90208435 19.12481689 C184.09555868 23.46514441 187.20024811 28.19592164 190.09739685 33.45294189 C190.58587097 34.32221313 190.58587097 34.32221313 191.08421326 35.20904541 C196.53005564 45.61788248 197.22785834 56.54199271 197.17308044 68.08184814 C197.17715602 69.54196564 197.18250338 71.00208004 197.18901062 72.46218872 C197.20257302 76.39198896 197.19743192 80.32155033 197.18787336 84.25135422 C197.1802188 88.38569479 197.18733833 92.52001643 197.19203186 96.65435791 C197.19747267 103.5940921 197.19034199 110.53373015 197.17601013 117.47344971 C197.15968683 125.46923178 197.16497653 133.46478428 197.18148935 141.4605608 C197.19515217 148.3552206 197.19700054 155.24981173 197.18917334 162.14448071 C197.18452307 166.24938399 197.18379837 170.35417977 197.19378281 174.45907593 C197.20252045 178.32030989 197.19630819 182.18125106 197.17910004 186.04245377 C197.17517115 187.45001873 197.17620659 188.85760883 197.18288803 190.26516342 C197.26287069 208.84361291 191.90065819 224.56032584 179.06419373 238.12896729 C166.57817914 250.59571333 150.62800502 256.32483667 133.27922058 256.42260742 C131.91416894 256.42031435 130.54911766 256.41780475 129.18406677 256.4151001 C127.72439312 256.41945463 126.26472174 256.42464023 124.80505371 256.43058777 C120.86273187 256.44391074 116.92050629 256.44456385 112.97816634 256.44202447 C109.67583687 256.44094999 106.3735265 256.44585039 103.07120115 256.45062989 C95.27352185 256.46170235 87.47589074 256.46217553 79.6782074 256.45611572 C71.6603443 256.45008014 63.64265688 256.46238156 55.62482375 256.48368579 C48.71749422 256.50135777 41.81022032 256.50729428 34.90286905 256.50404805 C30.78785025 256.50224362 26.67295673 256.50478654 22.5579586 256.51876259 C18.68446895 256.5314275 14.81125107 256.52931594 10.93776512 256.5163517 C9.52535913 256.51400492 8.11293349 256.51665154 6.70055008 256.52497482 C-11.81412317 256.626119 -27.62098898 251.32295508 -41.13331604 238.48345947 C-52.16744395 227.39263969 -59.31228469 212.71834568 -59.35554504 196.92533875 C-59.36125519 195.67368423 -59.36696533 194.42202972 -59.37284851 193.13244629 C-59.37409373 191.75286875 -59.37521886 190.3732911 -59.37623596 188.99371338 C-59.38086759 187.5346311 -59.38589271 186.07555002 -59.39128113 184.61647034 C-59.40437765 180.65740971 -59.41084521 176.69836603 -59.41529179 172.73928714 C-59.41822816 170.26152811 -59.42233412 167.78377364 -59.42679596 165.30601692 C-59.44046632 157.54151254 -59.45013411 149.77701867 -59.45399785 142.01250309 C-59.45847161 133.07285644 -59.47598964 124.13336322 -59.50499845 115.1937632 C-59.526681 108.26953748 -59.5367057 101.34535471 -59.53803897 94.42109543 C-59.5390827 90.29259175 -59.54489726 86.16423239 -59.56285858 82.03576469 C-59.57945241 78.14592835 -59.58144054 74.25634302 -59.57271957 70.36648369 C-59.57195509 68.94762495 -59.57621313 67.52875208 -59.58617783 66.10992813 C-59.7157728 46.48880248 -53.82062708 31.08730477 -40.09010315 16.95294189 C-29.38912636 6.86344949 -14.81472682 0.04058064 0 0 Z " fill="#1877F2" transform="translate(59.21510314941406,-0.14044189453125)"/>
<path d="M0 0 C1 1 1 1 1.11352539 4.14282227 C1.11336633 5.53402697 1.10767506 6.92523761 1.09765625 8.31640625 C1.0962413 9.04746078 1.09482635 9.77851532 1.09336853 10.53172302 C1.08775408 12.87535632 1.07519922 15.21889539 1.0625 17.5625 C1.05748686 19.14778508 1.05292363 20.73307166 1.04882812 22.31835938 C1.03777997 26.2122761 1.02050572 30.10612205 1 34 C0.27409668 34.01458252 -0.45180664 34.02916504 -1.19970703 34.04418945 C-4.50865732 34.11894859 -7.81662952 34.2155179 -11.125 34.3125 C-12.83816406 34.34633789 -12.83816406 34.34633789 -14.5859375 34.38085938 C-21.75031965 34.60995299 -27.02467132 34.9420233 -32.25 40.3125 C-35.56195667 45.39871917 -36.26033525 50.15307478 -36.4140625 56.1484375 C-36.44967285 57.35161621 -36.4852832 58.55479492 -36.52197266 59.79443359 C-36.57297119 62.06181396 -36.57297119 62.06181396 -36.625 64.375 C-36.74875 69.20125 -36.8725 74.0275 -37 79 C-25.12 79 -13.24 79 -1 79 C-1 84.73729322 -1.17841583 89.39119889 -1.9375 94.9375 C-2.11152344 96.24589844 -2.28554687 97.55429688 -2.46484375 98.90234375 C-3 102 -3 102 -4 103 C-4.66 107.62 -5.32 112.24 -6 117 C-16.23 117 -26.46 117 -37 117 C-37 146.7 -37 176.4 -37 207 C-50.86 207 -64.72 207 -79 207 C-79 177.3 -79 147.6 -79 117 C-89.89 117 -100.78 117 -112 117 C-112 104.46 -112 91.92 -112 79 C-101.11 79 -90.22 79 -79 79 C-79.03480469 76.32390625 -79.06960937 73.6478125 -79.10546875 70.890625 C-79.12895657 68.25928816 -79.14712041 65.62796361 -79.16479492 62.99658203 C-79.17975449 61.18695735 -79.20012957 59.3773681 -79.22631836 57.56787109 C-79.46783203 40.43460719 -77.9862566 24.42981467 -65.8125 11.125 C-47.3169471 -5.50858449 -23.00300781 -3.73390056 0 0 Z " fill="#FBFDFE" transform="translate(186,49)"/>
<path d="M0 0 C0.66 0.33 1.32 0.66 2 1 C-1.96 4.96 -5.92 8.92 -10 13 C-10.66 12.67 -11.32 12.34 -12 12 C-10.56665422 10.37133456 -9.12817021 8.74719006 -7.6875 7.125 C-6.88699219 6.22007813 -6.08648437 5.31515625 -5.26171875 4.3828125 C-3 2 -3 2 0 0 Z " fill="#DAE9FD" transform="translate(127,55)"/>
</svg>
