<?xml version="1.0" encoding="UTF-8"?>
<svg version="1.1" xmlns="http://www.w3.org/2000/svg" width="256" height="256">
<path d="M0 0 C1.25165451 -0.00571014 2.50330902 -0.01142029 3.79289246 -0.01730347 C5.17246999 -0.01854869 6.55204764 -0.01967381 7.93162537 -0.02069092 C9.39070765 -0.02532254 10.84978873 -0.03034767 12.30886841 -0.03573608 C16.26792903 -0.0488326 20.22697271 -0.05530017 24.18605161 -0.05974674 C26.66381064 -0.06268311 29.1415651 -0.06678907 31.61932182 -0.07125092 C39.38382621 -0.08492127 47.14832008 -0.09458906 54.91283566 -0.09845281 C63.85248231 -0.10292656 72.79197553 -0.1204446 81.73157555 -0.1494534 C88.65580127 -0.17113595 95.57998404 -0.18116065 102.50424331 -0.18249393 C106.63274699 -0.18353765 110.76110636 -0.18935222 114.88957405 -0.20731354 C118.77941039 -0.22390737 122.66899573 -0.2258955 126.55885506 -0.21717453 C127.9777138 -0.21641005 129.39658666 -0.22066809 130.81541061 -0.23063278 C150.5520866 -0.36099095 165.50901918 5.63463774 179.90208435 19.12481689 C184.09555868 23.46514441 187.20024811 28.19592164 190.09739685 33.45294189 C190.58587097 34.32221313 190.58587097 34.32221313 191.08421326 35.20904541 C196.53005564 45.61788248 197.22785834 56.54199271 197.17308044 68.08184814 C197.17715602 69.54196564 197.18250338 71.00208004 197.18901062 72.46218872 C197.20257302 76.39198896 197.19743192 80.32155033 197.18787336 84.25135422 C197.1802188 88.38569479 197.18733833 92.52001643 197.19203186 96.65435791 C197.19747267 103.5940921 197.19034199 110.53373015 197.17601013 117.47344971 C197.15968683 125.46923178 197.16497653 133.46478428 197.18148935 141.4605608 C197.19515217 148.3552206 197.19700054 155.24981173 197.18917334 162.14448071 C197.18452307 166.24938399 197.18379837 170.35417977 197.19378281 174.45907593 C197.20252045 178.32030989 197.19630819 182.18125106 197.17910004 186.04245377 C197.17517115 187.45001873 197.17620659 188.85760883 197.18288803 190.26516342 C197.26287069 208.84361291 191.90065819 224.56032584 179.06419373 238.12896729 C166.57817914 250.59571333 150.62800502 256.32483667 133.27922058 256.42260742 C131.91416894 256.42031435 130.54911766 256.41780475 129.18406677 256.4151001 C127.72439312 256.41945463 126.26472174 256.42464023 124.80505371 256.43058777 C120.86273187 256.44391074 116.92050629 256.44456385 112.97816634 256.44202447 C109.67583687 256.44094999 106.3735265 256.44585039 103.07120115 256.45062989 C95.27352185 256.46170235 87.47589074 256.46217553 79.6782074 256.45611572 C71.6603443 256.45008014 63.64265688 256.46238156 55.62482375 256.48368579 C48.71749422 256.50135777 41.81022032 256.50729428 34.90286905 256.50404805 C30.78785025 256.50224362 26.67295673 256.50478654 22.5579586 256.51876259 C18.68446895 256.5314275 14.81125107 256.52931594 10.93776512 256.5163517 C9.52535913 256.51400492 8.11293349 256.51665154 6.70055008 256.52497482 C-11.81412317 256.626119 -27.62098898 251.32295508 -41.13331604 238.48345947 C-52.16744395 227.39263969 -59.31228469 212.71834568 -59.35554504 196.92533875 C-59.36125519 195.67368423 -59.36696533 194.42202972 -59.37284851 193.13244629 C-59.37409373 191.75286875 -59.37521886 190.3732911 -59.37623596 188.99371338 C-59.38086759 187.5346311 -59.38589271 186.07555002 -59.39128113 184.61647034 C-59.40437765 180.65740971 -59.41084521 176.69836603 -59.41529179 172.73928714 C-59.41822816 170.26152811 -59.42233412 167.78377364 -59.42679596 165.30601692 C-59.44046632 157.54151254 -59.45013411 149.77701867 -59.45399785 142.01250309 C-59.45847161 133.07285644 -59.47598964 124.13336322 -59.50499845 115.1937632 C-59.526681 108.26953748 -59.5367057 101.34535471 -59.53803897 94.42109543 C-59.5390827 90.29259175 -59.54489726 86.16423239 -59.56285858 82.03576469 C-59.57945241 78.14592835 -59.58144054 74.25634302 -59.57271957 70.36648369 C-59.57195509 68.94762495 -59.57621313 67.52875208 -59.58617783 66.10992813 C-59.7157728 46.48880248 -53.82062708 31.08730477 -40.09010315 16.95294189 C-29.38912636 6.86344949 -14.81472682 0.04058064 0 0 Z " fill="#242A39" transform="translate(59.21510314941406,-0.14044189453125)"/>
<path d="M0 0 C4.73000019 3.95104228 9.20942619 8.06437456 13.55859375 12.42919922 C14.1726004 13.04145355 14.78660706 13.65370789 15.41921997 14.28451538 C17.42781842 16.28874915 19.43277937 18.29657555 21.4375 20.3046875 C22.84547593 21.71198876 24.25360019 23.11914163 25.66186523 24.52615356 C28.6053062 27.46812477 31.54694277 30.41188512 34.48730469 33.35693359 C38.23945949 37.11477995 41.9960793 40.8681255 45.7540741 44.62013054 C48.66081369 47.52324052 51.56514746 50.42874797 54.46878052 53.33496475 C55.85221144 54.71905859 57.23637402 56.10242155 58.62130737 57.48501205 C71.74016722 70.58654516 71.74016722 70.58654516 76.6532135 76.45706177 C78.11310632 78.1295796 79.67389626 79.62426456 81.30859375 81.125 C81.82744141 81.60453125 82.34628906 82.0840625 82.88085938 82.578125 C83.93361439 83.53973811 84.99923802 84.48741988 86.07617188 85.421875 C88.91594931 88.09291724 89.99463822 89.97781966 90.9140625 93.78125 C90.45088892 99.90066731 85.17830604 103.60608376 80.9375 107.5 C79.23602031 109.11220053 77.53676938 110.72675677 75.83984375 112.34375 C74.70083618 113.39852539 74.70083618 113.39852539 73.53881836 114.47460938 C71.60353504 116.39965704 69.86244606 118.30761731 68.1015625 120.38085938 C62.27300779 127.1116192 55.83951455 133.28288186 49.53515625 139.5625 C48.13246609 140.96332215 46.72999872 142.36436743 45.32774353 143.765625 C41.6590246 147.43054887 37.98731122 151.09245808 34.31494141 154.75372314 C30.55904022 158.49934506 26.80601289 162.24784413 23.05273438 165.99609375 C15.70461446 173.33352953 8.3533242 180.66778005 1 188 C-2.87025487 184.72988933 -6.67630854 181.4487364 -10.26367188 177.86572266 C-11.02135864 177.11118805 -11.77904541 176.35665344 -12.55969238 175.57925415 C-13.3546814 174.78224091 -14.14967041 173.98522766 -14.96875 173.1640625 C-15.8078894 172.32587982 -16.64702881 171.48769714 -17.51159668 170.62411499 C-19.27767762 168.85871158 -21.04250827 167.0920566 -22.80615234 165.32421875 C-25.48814472 162.63687891 -28.1754207 159.95490657 -30.86328125 157.2734375 C-32.58625814 155.54979962 -34.3089247 153.82585147 -36.03125 152.1015625 C-37.22373352 150.91211533 -37.22373352 150.91211533 -38.44030762 149.69863892 C-42.53519211 145.58671871 -46.44202775 141.38854105 -50.22918701 136.99319458 C-53.50091878 133.31059339 -57.02209477 129.87657107 -60.5234375 126.4140625 C-61.31021881 125.63106781 -62.09700012 124.84807312 -62.90762329 124.04135132 C-65.39431635 121.56677234 -67.88424659 119.09549161 -70.375 116.625 C-73.67732396 113.34920073 -76.97636697 110.07014826 -80.2734375 106.7890625 C-81.03377289 106.03702545 -81.79410828 105.2849884 -82.57748413 104.51016235 C-83.62460068 103.46800064 -83.62460068 103.46800064 -84.69287109 102.40478516 C-85.30907318 101.79381989 -85.92527527 101.18285461 -86.56015015 100.55337524 C-88.46897003 98.49405389 -88.97158257 97.14919153 -89.5 94.375 C-88.17348422 85.42101848 -76.96258931 77.87650284 -70.6875 71.6875 C-68.70932813 69.73598727 -66.73455543 67.78112308 -64.76171875 65.82421875 C-63.89506592 64.96916748 -63.02841309 64.11411621 -62.13549805 63.2331543 C-59.87034311 60.99418026 -59.87034311 60.99418026 -58 58 C-57.34 58 -56.68 58 -56 58 C-55.731875 57.360625 -55.46375 56.72125 -55.1875 56.0625 C-54 54 -54 54 -51 53 C-50.32383988 51.67145579 -49.65918924 50.33704591 -49 49 C-47.47626594 47.3018169 -45.89236256 45.65701711 -44.27490234 44.04785156 C-43.79668533 43.5693425 -43.31846832 43.09083344 -42.82575989 42.5978241 C-41.25051517 41.02396805 -39.66831465 39.45730707 -38.0859375 37.890625 C-36.98976787 36.79818714 -35.89404019 35.70530566 -34.79873657 34.61199951 C-31.91960112 31.74048758 -29.03450944 28.87503346 -26.14813232 26.01080322 C-23.20190185 23.08505874 -20.26134931 20.15361986 -17.3203125 17.22265625 C-11.55241412 11.47618518 -5.77821036 5.73610194 0 0 Z " fill="#1F7BF5" transform="translate(127,34)"/>
<path d="M0 0 C0.495 1.98 0.495 1.98 1 4 C0.34 4.33 -0.32 4.66 -1 5 C-2.52611217 15.35164761 -2.87963741 26.66199426 -1 37 C-0.34 37.33 0.32 37.66 1 38 C1.2475 38.845625 1.495 39.69125 1.75 40.5625 C3.16168271 44.44462745 5.1266077 46.93552783 7.7578125 50.0703125 C9 52 9 52 9 56 C7.05859375 58.296875 7.05859375 58.296875 4.4375 60.75 C1.25520536 63.80231359 -1.82387783 66.83353157 -4.6875 70.1875 C-7.93882475 73.98845345 -11.41580961 77.51385738 -15 81 C-13.60709417 84.11302167 -11.96599379 86.32579154 -9.62109375 88.79296875 C-8.95126465 89.50130859 -8.28143555 90.20964844 -7.59130859 90.93945312 C-6.52517334 92.05223633 -6.52517334 92.05223633 -5.4375 93.1875 C-4.71385254 93.95126953 -3.99020508 94.71503906 -3.24462891 95.50195312 C0.47396128 99.41309976 4.24243178 103.25062451 8.125 107 C17.90411801 116.68598355 23.80486515 129.17299867 24.25 143 C23.94757031 151.91278101 21.93630909 165.31037993 15.30204773 171.61309814 C14.67216446 172.13426208 14.04228119 172.65542603 13.39331055 173.19238281 C12.44188423 173.98603241 12.44188423 173.98603241 11.47123718 174.79571533 C10.98572891 175.19312927 10.50022064 175.59054321 10 176 C4.25061611 170.27390451 -1.4959736 164.5450249 -7.23912907 158.81268311 C-9.90669882 156.15030636 -12.57517976 153.48885711 -15.24584961 150.82958984 C-17.82869589 148.25770087 -20.40900923 145.68329451 -22.98766899 143.10720825 C-23.96624512 142.13046344 -24.94569294 141.15459106 -25.92607307 140.17965698 C-30.89417623 135.23802836 -35.72074825 130.25716052 -40.28398132 124.93963623 C-43.53088981 121.26961712 -47.04060175 117.85826935 -50.5234375 114.4140625 C-51.31021881 113.63106781 -52.09700012 112.84807312 -52.90762329 112.04135132 C-55.39431635 109.56677234 -57.88424659 107.09549161 -60.375 104.625 C-63.67732396 101.34920073 -66.97636697 98.07014826 -70.2734375 94.7890625 C-71.03377289 94.03702545 -71.79410828 93.2849884 -72.57748413 92.51016235 C-73.62460068 91.46800064 -73.62460068 91.46800064 -74.69287109 90.40478516 C-75.30907318 89.79381989 -75.92527527 89.18285461 -76.56015015 88.55337524 C-78.46897003 86.49405389 -78.97158257 85.14919153 -79.5 82.375 C-78.25079945 73.94289626 -68.00559458 66.85041401 -62.0847168 60.9543457 C-60.56508332 59.4400742 -59.05087483 57.9205257 -57.53710938 56.40039062 C-56.54719541 55.41113761 -55.5569712 54.42219492 -54.56640625 53.43359375 C-53.68927979 52.55759521 -52.81215332 51.68159668 -51.90844727 50.77905273 C-49.76291769 48.68539191 -47.53452179 46.71780794 -45.26147461 44.76367188 C-40.36669906 40.51414737 -35.81789328 35.94310681 -31.25 31.34765625 C-30.35128174 30.44752304 -29.45256348 29.54738983 -28.52661133 28.61997986 C-26.16413425 26.25288737 -23.80384888 23.88365361 -21.44464111 21.51330566 C-19.02614819 19.08449258 -16.60474054 16.65858897 -14.18359375 14.23242188 C-9.45307046 9.49092631 -4.72542027 4.74658102 0 0 Z " fill="#207CF6" transform="translate(117,46)"/>
<path d="M0 0 C3.23095284 1.36064522 5.43729233 3.66923163 7.88745117 6.10327148 C8.41686813 6.62270325 8.9462851 7.14213501 9.491745 7.67730713 C10.60585552 8.7762557 11.71595144 9.87928719 12.82226562 10.98608398 C14.52025668 12.6774984 16.24077985 14.34347532 17.96362305 16.00952148 C19.04386416 17.08096306 20.12269041 18.15383341 21.19995117 19.22827148 C21.71753494 19.72429871 22.23511871 20.22032593 22.76838684 20.73138428 C24.92878314 22.9344186 26.17579526 24.28577887 26.3503418 27.42700195 C24.82262194 30.78706848 22.5922845 33.14248949 20.00463867 35.70483398 C19.22193352 36.49683701 19.22193352 36.49683701 18.42341614 37.30484009 C17.32130349 38.414037 16.21405414 39.51815069 15.10205078 40.61743164 C13.39940924 42.30615912 11.72219139 44.01757659 10.0456543 45.73217773 C8.97093402 46.80784876 7.89480863 47.88211814 6.81713867 48.95483398 C6.31595016 49.4692807 5.81476166 49.98372742 5.29838562 50.51376343 C1.78981459 53.93014108 1.78981459 53.93014108 -0.92456055 53.93603516 C-3.05514318 52.78757464 -4.51520685 51.56085037 -6.21411133 49.83374023 C-6.84293213 49.20056885 -7.47175293 48.56739746 -8.11962891 47.91503906 C-8.77342529 47.23981201 -9.42722168 46.56458496 -10.10083008 45.86889648 C-10.77073975 45.18657959 -11.44064941 44.5042627 -12.13085938 43.80126953 C-24.26055042 31.37858363 -24.26055042 31.37858363 -26.78833008 25.93139648 C-26.0896582 25.24432617 -25.39098633 24.55725586 -24.67114258 23.84936523 C-23.76106445 22.94831055 -22.85098633 22.04725586 -21.91333008 21.11889648 C-21.0084082 20.22557617 -20.10348633 19.33225586 -19.17114258 18.41186523 C-16.69001493 15.97501315 -16.69001493 15.97501315 -14.78833008 12.93139648 C-14.12833008 12.93139648 -13.46833008 12.93139648 -12.78833008 12.93139648 C-12.54856445 12.3706543 -12.30879883 11.80991211 -12.06176758 11.23217773 C-10.51258609 8.43319645 -8.64257323 6.41109168 -6.41333008 4.11889648 C-5.25704102 2.90266602 -5.25704102 2.90266602 -4.07739258 1.66186523 C-1.78833008 -0.06860352 -1.78833008 -0.06860352 0 0 Z " fill="#242B3D" transform="translate(127.788330078125,101.068603515625)"/>
<path d="M0 0 C0 4.04863987 -1.29319268 5.01557142 -4 8 C-5.03619041 8.90287444 -6.0856641 9.79062943 -7.14477539 10.66650391 C-11.35456736 14.24091362 -15.23220949 18.10618661 -19.12109375 22.0234375 C-20.23823509 23.14270126 -20.23823509 23.14270126 -21.37794495 24.28457642 C-23.73350827 26.64569389 -26.08555216 29.01028162 -28.4375 31.375 C-30.04338763 32.98590856 -31.64950516 34.59658796 -33.25585938 36.20703125 C-37.17323513 40.13537513 -41.08773487 44.06656674 -45 48 C-45 45 -45 45 -43.29162598 42.93086243 C-42.09249573 41.74172493 -42.09249573 41.74172493 -40.86914062 40.52856445 C-39.96820679 39.62785721 -39.06727295 38.72714996 -38.13903809 37.79914856 C-37.14493379 36.82036521 -36.15066723 35.84174666 -35.15625 34.86328125 C-34.14668703 33.85931288 -33.13778395 32.85468054 -32.1295166 31.84941101 C-29.47281258 29.20416642 -26.80722301 26.56805356 -24.13970947 23.93371582 C-21.41976746 21.24445099 -18.70828857 18.54668329 -15.99609375 15.84960938 C-10.67232866 10.5580278 -5.33915199 5.27606072 0 0 Z M-48 48 C-47.34 48.33 -46.68 48.66 -46 49 C-47.65 50.32 -49.3 51.64 -51 53 C-49.125 49.125 -49.125 49.125 -48 48 Z M-53 53 C-52.34 53.33 -51.68 53.66 -51 54 C-51.99 54 -52.98 54 -54 54 C-53.67 53.67 -53.34 53.34 -53 53 Z " fill="#0E59C4" transform="translate(122,39)"/>
</svg>
