<?xml version="1.0" encoding="UTF-8"?>
<svg version="1.1" xmlns="http://www.w3.org/2000/svg" width="256" height="256">
<path d="M0 0 C1.25165451 -0.00571014 2.50330902 -0.01142029 3.79289246 -0.01730347 C5.17246999 -0.01854869 6.55204764 -0.01967381 7.93162537 -0.02069092 C9.39070765 -0.02532254 10.84978873 -0.03034767 12.30886841 -0.03573608 C16.26792903 -0.0488326 20.22697271 -0.05530017 24.18605161 -0.05974674 C26.66381064 -0.06268311 29.1415651 -0.06678907 31.61932182 -0.07125092 C39.38382621 -0.08492127 47.14832008 -0.09458906 54.91283566 -0.09845281 C63.85248231 -0.10292656 72.79197553 -0.1204446 81.73157555 -0.1494534 C88.65580127 -0.17113595 95.57998404 -0.18116065 102.50424331 -0.18249393 C106.63274699 -0.18353765 110.76110636 -0.18935222 114.88957405 -0.20731354 C118.77941039 -0.22390737 122.66899573 -0.2258955 126.55885506 -0.21717453 C127.9777138 -0.21641005 129.39658666 -0.22066809 130.81541061 -0.23063278 C150.5520866 -0.36099095 165.50901918 5.63463774 179.90208435 19.12481689 C184.09555868 23.46514441 187.20024811 28.19592164 190.09739685 33.45294189 C190.58587097 34.32221313 190.58587097 34.32221313 191.08421326 35.20904541 C196.53005564 45.61788248 197.22785834 56.54199271 197.17308044 68.08184814 C197.17715602 69.54196564 197.18250338 71.00208004 197.18901062 72.46218872 C197.20257302 76.39198896 197.19743192 80.32155033 197.18787336 84.25135422 C197.1802188 88.38569479 197.18733833 92.52001643 197.19203186 96.65435791 C197.19747267 103.5940921 197.19034199 110.53373015 197.17601013 117.47344971 C197.15968683 125.46923178 197.16497653 133.46478428 197.18148935 141.4605608 C197.19515217 148.3552206 197.19700054 155.24981173 197.18917334 162.14448071 C197.18452307 166.24938399 197.18379837 170.35417977 197.19378281 174.45907593 C197.20252045 178.32030989 197.19630819 182.18125106 197.17910004 186.04245377 C197.17517115 187.45001873 197.17620659 188.85760883 197.18288803 190.26516342 C197.26287069 208.84361291 191.90065819 224.56032584 179.06419373 238.12896729 C166.57817914 250.59571333 150.62800502 256.32483667 133.27922058 256.42260742 C131.91416894 256.42031435 130.54911766 256.41780475 129.18406677 256.4151001 C127.72439312 256.41945463 126.26472174 256.42464023 124.80505371 256.43058777 C120.86273187 256.44391074 116.92050629 256.44456385 112.97816634 256.44202447 C109.67583687 256.44094999 106.3735265 256.44585039 103.07120115 256.45062989 C95.27352185 256.46170235 87.47589074 256.46217553 79.6782074 256.45611572 C71.6603443 256.45008014 63.64265688 256.46238156 55.62482375 256.48368579 C48.71749422 256.50135777 41.81022032 256.50729428 34.90286905 256.50404805 C30.78785025 256.50224362 26.67295673 256.50478654 22.5579586 256.51876259 C18.68446895 256.5314275 14.81125107 256.52931594 10.93776512 256.5163517 C9.52535913 256.51400492 8.11293349 256.51665154 6.70055008 256.52497482 C-11.81412317 256.626119 -27.62098898 251.32295508 -41.13331604 238.48345947 C-52.16744395 227.39263969 -59.31228469 212.71834568 -59.35554504 196.92533875 C-59.36125519 195.67368423 -59.36696533 194.42202972 -59.37284851 193.13244629 C-59.37409373 191.75286875 -59.37521886 190.3732911 -59.37623596 188.99371338 C-59.38086759 187.5346311 -59.38589271 186.07555002 -59.39128113 184.61647034 C-59.40437765 180.65740971 -59.41084521 176.69836603 -59.41529179 172.73928714 C-59.41822816 170.26152811 -59.42233412 167.78377364 -59.42679596 165.30601692 C-59.44046632 157.54151254 -59.45013411 149.77701867 -59.45399785 142.01250309 C-59.45847161 133.07285644 -59.47598964 124.13336322 -59.50499845 115.1937632 C-59.526681 108.26953748 -59.5367057 101.34535471 -59.53803897 94.42109543 C-59.5390827 90.29259175 -59.54489726 86.16423239 -59.56285858 82.03576469 C-59.57945241 78.14592835 -59.58144054 74.25634302 -59.57271957 70.36648369 C-59.57195509 68.94762495 -59.57621313 67.52875208 -59.58617783 66.10992813 C-59.7157728 46.48880248 -53.82062708 31.08730477 -40.09010315 16.95294189 C-29.38912636 6.86344949 -14.81472682 0.04058064 0 0 Z " fill="#F3F1ED" transform="translate(59.21510314941406,-0.14044189453125)"/>
<path d="M0 0 C4.7989089 4.00466141 9.3312777 8.18651495 13.7421875 12.61279297 C14.69245819 13.56043518 14.69245819 13.56043518 15.66192627 14.52722168 C17.73545666 16.59638549 19.80534804 18.66914489 21.875 20.7421875 C23.32781639 22.19432928 24.78078112 23.64632267 26.23388672 25.09817505 C29.27148462 28.13430294 32.3072777 31.17222089 35.34179688 34.21142578 C39.21501971 38.09034035 43.09270828 41.96475452 46.97177124 45.83782768 C49.97115665 48.83358432 52.9681374 51.83173753 55.9644165 54.83060074 C57.39250471 56.25935207 58.82132517 57.68737191 60.25091553 59.11462021 C73.78682318 72.63321488 73.78682318 72.63321488 78.71131897 78.51516724 C81.51445511 81.7449722 84.85652295 84.48742412 88.05859375 87.3125 C90.09885737 90.13684884 91.03456295 92.17523265 90.81713867 95.70703125 C88.85774427 101.2052781 83.63305174 105.10559608 79.4375 109 C77.93581076 110.42860784 76.43989918 111.86300276 74.94581604 113.29956055 C73.57788236 114.60919697 72.19644466 115.90468615 70.81420898 117.19921875 C68.7561522 119.24745571 66.89297326 121.26108819 65.01953125 123.46289062 C59.42203577 129.93580492 53.25124065 135.87141955 47.19140625 141.90625 C45.85597673 143.2398113 44.52077015 144.57359588 43.18577576 145.90759277 C39.69460872 149.39496648 36.20044766 152.8793249 32.70562744 156.36303711 C29.13069368 159.92768783 25.55863706 163.49521917 21.98632812 167.0625 C14.99367826 174.04446878 7.99785799 181.02325147 1 188 C-4.41082149 183.48380083 -9.44264505 178.70379968 -14.41796875 173.71484375 C-15.19763504 172.93613419 -15.97730133 172.15742462 -16.78059387 171.3551178 C-18.41802765 169.7183609 -20.05421379 168.08035498 -21.68920898 166.44116211 C-24.18686496 163.9381364 -26.68983068 161.44050965 -29.19335938 158.94335938 C-30.78938335 157.34667482 -32.38509721 155.7496802 -33.98046875 154.15234375 C-35.09774605 153.0381028 -35.09774605 153.0381028 -36.2375946 151.90135193 C-39.72123545 148.40197564 -42.94456978 144.88487306 -46 141 C-47.64251518 139.30952686 -49.31385764 137.64696069 -51 136 C-52.31724613 134.69038013 -53.63319938 133.37945925 -54.94824219 132.06762695 C-56.0539859 130.96672478 -56.0539859 130.96672478 -57.18206787 129.84358215 C-60.49995548 126.53903203 -63.81523786 123.2318736 -67.13037109 119.92456055 C-68.88306721 118.17692813 -70.6366547 116.43018923 -72.39111328 114.68432617 C-74.92453681 112.16297558 -77.45476713 109.63845923 -79.984375 107.11328125 C-80.77285828 106.32995926 -81.56134155 105.54663727 -82.37371826 104.73957825 C-83.46054901 103.65286079 -83.46054901 103.65286079 -84.56933594 102.54418945 C-85.20933533 101.90641068 -85.84933472 101.2686319 -86.50872803 100.61152649 C-88.67831435 98.26698714 -88.99628862 97.02680078 -89.44360352 93.79663086 C-88.83598009 88.59621703 -86.61439311 86.72793759 -82.90234375 83.25390625 C-81.96171837 82.33169533 -81.96171837 82.33169533 -81.00209045 81.39085388 C-78.99645448 79.43088497 -76.96827593 77.49637718 -74.9375 75.5625 C-72.94083452 73.63101402 -70.94912223 71.69454124 -68.95840454 69.75692749 C-67.68155187 68.51514554 -66.40210965 67.27602016 -65.1199646 66.03970337 C-61.24443164 62.28648564 -57.58784567 58.44679819 -54.20141602 54.23803711 C-53.80494873 53.82948486 -53.40848145 53.42093262 -53 53 C-52.34 53 -51.68 53 -51 53 C-50.65118271 52.16320709 -50.65118271 52.16320709 -50.2953186 51.30950928 C-48.66299793 48.3991367 -46.64179046 46.40260179 -44.27490234 44.04785156 C-43.79668533 43.5693425 -43.31846832 43.09083344 -42.82575989 42.5978241 C-41.25051517 41.02396805 -39.66831465 39.45730707 -38.0859375 37.890625 C-36.98976787 36.79818714 -35.89404019 35.70530566 -34.79873657 34.61199951 C-31.91960112 31.74048758 -29.03450944 28.87503346 -26.14813232 26.01080322 C-23.20190185 23.08505874 -20.26134931 20.15361986 -17.3203125 17.22265625 C-11.55241412 11.47618518 -5.77821036 5.73610194 0 0 Z " fill="#217DF7" transform="translate(127,34)"/>
<path d="M0 0 C4.7989089 4.00466141 9.3312777 8.18651495 13.7421875 12.61279297 C14.69245819 13.56043518 14.69245819 13.56043518 15.66192627 14.52722168 C17.73545666 16.59638549 19.80534804 18.66914489 21.875 20.7421875 C23.32781639 22.19432928 24.78078112 23.64632267 26.23388672 25.09817505 C29.27148462 28.13430294 32.3072777 31.17222089 35.34179688 34.21142578 C39.21501971 38.09034035 43.09270828 41.96475452 46.97177124 45.83782768 C49.97115665 48.83358432 52.9681374 51.83173753 55.9644165 54.83060074 C57.39250471 56.25935207 58.82132517 57.68737191 60.25091553 59.11462021 C73.78682318 72.63321488 73.78682318 72.63321488 78.71131897 78.51516724 C81.51445511 81.7449722 84.85652295 84.48742412 88.05859375 87.3125 C90.09885737 90.13684884 91.03456295 92.17523265 90.81713867 95.70703125 C88.85774427 101.2052781 83.63305174 105.10559608 79.4375 109 C77.93581076 110.42860784 76.43989918 111.86300276 74.94581604 113.29956055 C73.57788236 114.60919697 72.19644466 115.90468615 70.81420898 117.19921875 C68.72782055 119.27565218 66.82863863 121.32862108 64.92382812 123.55859375 C59.82615942 129.45426775 54.24316822 134.88037389 48.72265625 140.375 C47.54416817 141.55161924 46.36590347 142.72846225 45.18785095 143.90551758 C42.11097192 146.97860807 39.0311001 150.04868155 35.95056152 153.11810303 C32.79788427 156.26048674 29.64809331 159.40576071 26.49804688 162.55078125 C20.33482746 168.70332807 14.16843835 174.85268562 8 181 C7.67 180.34 7.34 179.68 7 179 C7.73002034 177.03844127 8.53572196 175.10485618 9.375 173.1875 C13.6458631 162.38542843 14.7162659 150.17138023 10.26220703 139.17919922 C7.70583869 133.47315069 4.92527209 127.89758719 1 123 C2.57050596 119.15857468 5.00154024 116.82578475 7.97265625 113.97265625 C8.96446213 113.00613577 9.9559902 112.03933014 10.94726562 111.07226562 C12.50606643 109.56312225 14.06786488 108.05736334 15.63500977 106.55688477 C17.15226529 105.10015742 18.65673538 103.63113879 20.16015625 102.16015625 C21.06386963 101.29011963 21.96758301 100.42008301 22.89868164 99.52368164 C25.17346318 96.79167087 26.16012619 95.56168865 26 92 C24.40147242 89.85982899 22.94562203 88.24397642 21.0234375 86.4375 C20.50117584 85.92372803 19.97891418 85.40995605 19.44082642 84.88061523 C17.76577262 83.23913046 16.07115313 81.61964579 14.375 80 C13.25514585 78.91025468 12.13663949 77.8191225 11.01953125 76.7265625 C8.95013868 74.70608584 6.87307034 72.69425841 4.78662109 70.69140625 C-5.92297174 60.34774483 -12.95116783 50.20123727 -13.36962891 34.78613281 C-13.38546782 28.59743543 -12.85950752 22.92718023 -11 17 C-11 16.01 -11 15.02 -11 14 C-19.25 22.25 -27.5 30.5 -36 39 C-36 36 -36 36 -34.63330078 34.27253723 C-33.99376465 33.63966293 -33.35422852 33.00678864 -32.6953125 32.35473633 C-31.97456543 31.63421585 -31.25381836 30.91369537 -30.51123047 30.17134094 C-29.72377441 29.39936874 -28.93631836 28.62739655 -28.125 27.83203125 C-27.32594238 27.03721848 -26.52688477 26.2424057 -25.70361328 25.42350769 C-23.14267606 22.87940146 -20.57151863 20.34590608 -18 17.8125 C-16.26494326 16.0924843 -14.53055926 14.3717897 -12.796875 12.65039062 C-8.53903311 8.42567671 -4.27274757 4.20963524 0 0 Z " fill="#207CF6" transform="translate(127,34)"/>
<path d="M0 0 C3.23961724 1.35408241 5.44422187 3.66324359 7.89770508 6.10058594 C8.42712204 6.6200177 8.956539 7.13944946 9.5019989 7.67462158 C10.61610943 8.77357015 11.72620535 9.87660164 12.83251953 10.98339844 C14.53051059 12.67481286 16.25103376 14.34078977 17.97387695 16.00683594 C19.05411807 17.07827751 20.13294432 18.15114786 21.21020508 19.22558594 C21.72778885 19.72161316 22.24537262 20.21764038 22.77864075 20.72869873 C24.92904186 22.9215406 26.18048455 24.28985541 26.38305664 27.4128418 C24.77920476 30.8879666 22.37452214 33.27036689 19.65551758 35.88574219 C19.1020314 36.43356857 18.54854523 36.98139496 17.97828674 37.54582214 C16.21452372 39.28725846 14.43734596 41.01424453 12.65942383 42.74121094 C11.45864117 43.9219239 10.25876035 45.10355478 9.05981445 46.28613281 C6.12419553 49.17773363 3.17646901 52.05645625 0.22192383 54.92871094 C-6.771769 48.99959202 -13.0793104 42.81197868 -19.06713867 35.86230469 C-21.51997645 33.09026199 -24.12918611 30.51299393 -26.77807617 27.92871094 C-25.19394479 23.96838249 -22.42577411 21.38266015 -19.40307617 18.49121094 C-16.61178193 15.80067197 -13.94618315 13.14371091 -11.55151367 10.08105469 C-10.67366211 9.01564453 -10.67366211 9.01564453 -9.77807617 7.92871094 C-9.11807617 7.92871094 -8.45807617 7.92871094 -7.77807617 7.92871094 C-7.53057617 7.35121094 -7.28307617 6.77371094 -7.02807617 6.17871094 C-3.51711836 -0.14101312 -3.51711836 -0.14101312 0 0 Z " fill="#EFEFED" transform="translate(127.778076171875,101.0712890625)"/>
<path d="M0 0 C0 4.04863987 -1.29319268 5.01557142 -4 8 C-4.99 8.83144531 -5.98 9.66289063 -7 10.51953125 C-12.09731778 14.84410497 -16.73611364 19.62961218 -21.4375 24.375 C-22.35982422 25.30183594 -23.28214844 26.22867188 -24.23242188 27.18359375 C-26.49058625 29.45345846 -28.74636942 31.72563538 -31 34 C-31 31 -31 31 -29.82312012 29.46235657 C-29.27240845 28.91830673 -28.72169678 28.3742569 -28.15429688 27.8137207 C-27.53365356 27.19330399 -26.91301025 26.57288727 -26.27355957 25.93367004 C-25.59547241 25.27106674 -24.91738525 24.60846344 -24.21875 23.92578125 C-23.53067261 23.2419487 -22.84259521 22.55811615 -22.13366699 21.8535614 C-19.92936821 19.66608634 -17.71487856 17.48925714 -15.5 15.3125 C-14.00582867 13.83337066 -12.51233012 12.35356135 -11.01953125 10.87304688 C-7.35412108 7.24075507 -3.67953619 3.61797909 0 0 Z " fill="#1C68D6" transform="translate(122,39)"/>
</svg>
