<?xml version="1.0" encoding="UTF-8"?>
<svg version="1.1" xmlns="http://www.w3.org/2000/svg" width="256" height="256">
<path d="M0 0 C1.25165451 -0.00571014 2.50330902 -0.01142029 3.79289246 -0.01730347 C5.17246999 -0.01854869 6.55204764 -0.01967381 7.93162537 -0.02069092 C9.39070765 -0.02532254 10.84978873 -0.03034767 12.30886841 -0.03573608 C16.26792903 -0.0488326 20.22697271 -0.05530017 24.18605161 -0.05974674 C26.66381064 -0.06268311 29.1415651 -0.06678907 31.61932182 -0.07125092 C39.38382621 -0.08492127 47.14832008 -0.09458906 54.91283566 -0.09845281 C63.85248231 -0.10292656 72.79197553 -0.1204446 81.73157555 -0.1494534 C88.65580127 -0.17113595 95.57998404 -0.18116065 102.50424331 -0.18249393 C106.63274699 -0.18353765 110.76110636 -0.18935222 114.88957405 -0.20731354 C118.77941039 -0.22390737 122.66899573 -0.2258955 126.55885506 -0.21717453 C127.9777138 -0.21641005 129.39658666 -0.22066809 130.81541061 -0.23063278 C150.5520866 -0.36099095 165.50901918 5.63463774 179.90208435 19.12481689 C184.09555868 23.46514441 187.20024811 28.19592164 190.09739685 33.45294189 C190.58587097 34.32221313 190.58587097 34.32221313 191.08421326 35.20904541 C196.53005564 45.61788248 197.22785834 56.54199271 197.17308044 68.08184814 C197.17715602 69.54196564 197.18250338 71.00208004 197.18901062 72.46218872 C197.20257302 76.39198896 197.19743192 80.32155033 197.18787336 84.25135422 C197.1802188 88.38569479 197.18733833 92.52001643 197.19203186 96.65435791 C197.19747267 103.5940921 197.19034199 110.53373015 197.17601013 117.47344971 C197.15968683 125.46923178 197.16497653 133.46478428 197.18148935 141.4605608 C197.19515217 148.3552206 197.19700054 155.24981173 197.18917334 162.14448071 C197.18452307 166.24938399 197.18379837 170.35417977 197.19378281 174.45907593 C197.20252045 178.32030989 197.19630819 182.18125106 197.17910004 186.04245377 C197.17517115 187.45001873 197.17620659 188.85760883 197.18288803 190.26516342 C197.26287069 208.84361291 191.90065819 224.56032584 179.06419373 238.12896729 C166.57817914 250.59571333 150.62800502 256.32483667 133.27922058 256.42260742 C131.91416894 256.42031435 130.54911766 256.41780475 129.18406677 256.4151001 C127.72439312 256.41945463 126.26472174 256.42464023 124.80505371 256.43058777 C120.86273187 256.44391074 116.92050629 256.44456385 112.97816634 256.44202447 C109.67583687 256.44094999 106.3735265 256.44585039 103.07120115 256.45062989 C95.27352185 256.46170235 87.47589074 256.46217553 79.6782074 256.45611572 C71.6603443 256.45008014 63.64265688 256.46238156 55.62482375 256.48368579 C48.71749422 256.50135777 41.81022032 256.50729428 34.90286905 256.50404805 C30.78785025 256.50224362 26.67295673 256.50478654 22.5579586 256.51876259 C18.68446895 256.5314275 14.81125107 256.52931594 10.93776512 256.5163517 C9.52535913 256.51400492 8.11293349 256.51665154 6.70055008 256.52497482 C-11.81412317 256.626119 -27.62098898 251.32295508 -41.13331604 238.48345947 C-52.16744395 227.39263969 -59.31228469 212.71834568 -59.35554504 196.92533875 C-59.36125519 195.67368423 -59.36696533 194.42202972 -59.37284851 193.13244629 C-59.37409373 191.75286875 -59.37521886 190.3732911 -59.37623596 188.99371338 C-59.38086759 187.5346311 -59.38589271 186.07555002 -59.39128113 184.61647034 C-59.40437765 180.65740971 -59.41084521 176.69836603 -59.41529179 172.73928714 C-59.41822816 170.26152811 -59.42233412 167.78377364 -59.42679596 165.30601692 C-59.44046632 157.54151254 -59.45013411 149.77701867 -59.45399785 142.01250309 C-59.45847161 133.07285644 -59.47598964 124.13336322 -59.50499845 115.1937632 C-59.526681 108.26953748 -59.5367057 101.34535471 -59.53803897 94.42109543 C-59.5390827 90.29259175 -59.54489726 86.16423239 -59.56285858 82.03576469 C-59.57945241 78.14592835 -59.58144054 74.25634302 -59.57271957 70.36648369 C-59.57195509 68.94762495 -59.57621313 67.52875208 -59.58617783 66.10992813 C-59.7157728 46.48880248 -53.82062708 31.08730477 -40.09010315 16.95294189 C-29.38912636 6.86344949 -14.81472682 0.04058064 0 0 Z " fill="#252A39" transform="translate(59.21510314941406,-0.14044189453125)"/>
<path d="M0 0 C0.94875 0.845625 1.8975 1.69125 2.875 2.5625 C14.62997515 12.55774833 28.04688414 20.02721645 43 24 C44.09957031 24.2990625 45.19914062 24.598125 46.33203125 24.90625 C56.52456078 27.17358922 66.72789216 27.31927859 77.125 27.375 C78.20518402 27.38678284 78.20518402 27.38678284 79.30718994 27.39880371 C105.92659088 27.62437261 132.35427996 19.51989081 152 1 C152.33 1.66 152.66 2.32 153 3 C151.95720622 5.2410919 150.8682098 7.309948 149.625 9.4375 C149.07851807 10.37758911 149.07851807 10.37758911 148.52099609 11.33666992 C136.20208721 31.98803208 117.80088197 45.2834532 94.78198242 51.40649414 C73.13848257 56.5720122 52.00991356 52.00696888 33 41 C18.9636563 32.11019321 6.50479204 18.46165229 0 3 C0 2.01 0 1.02 0 0 Z " fill="#ED7426" transform="translate(51,153)"/>
<path d="M0 0 C9.74758018 7.03083526 18.21214242 15.1176676 24.77734375 25.18359375 C25.33264771 26.03280396 25.33264771 26.03280396 25.89916992 26.89916992 C28.33972155 30.83630247 29.62500847 34.4839036 30.71484375 38.93359375 C30.02261719 38.40572266 30.02261719 38.40572266 29.31640625 37.8671875 C27.12581595 36.20909247 24.92006606 34.57217138 22.71484375 32.93359375 C21.97878906 32.36898437 21.24273437 31.804375 20.484375 31.22265625 C7.8052146 21.83540517 -6.04818665 17.29566044 -21.28515625 13.93359375 C-22.38214844 13.68609375 -23.47914063 13.43859375 -24.609375 13.18359375 C-53.25673159 7.79115016 -84.60338112 13.57923364 -109.28515625 28.93359375 C-113.94379521 32.272285 -118.28844039 35.82304738 -122.28515625 39.93359375 C-120.30481508 26.02042755 -107.06125935 11.8653647 -96.23828125 3.609375 C-85.49414015 -4.14398065 -75.13671904 -8.76449339 -62.28515625 -12.06640625 C-61.66141113 -12.24292725 -61.03766602 -12.41944824 -60.39501953 -12.60131836 C-40.15651935 -17.06259386 -17.19542292 -10.81614593 0 0 Z " fill="#ED7526" transform="translate(173.28515625,54.06640625)"/>
<path d="M0 0 C4.45498552 2.1102563 7.22604963 4.36801849 9 9 C9.5331108 13.90906199 9.70170476 18.35099382 7.75 22.9375 C6.88375 23.9584375 6.88375 23.9584375 6 25 C5.401875 25.721875 4.80375 26.44375 4.1875 27.1875 C0.29578913 30.41206043 -2.92773624 31 -7.9375 31 C-12.73489322 30.24494003 -15.78430028 27.49381429 -19 24 C-22.11867533 19.32198701 -21.58676923 14.47651278 -21 9 C-16.63929544 -0.20593186 -9.3488659 -1.1401056 0 0 Z " fill="#9B9B9C" transform="translate(72,202)"/>
<path d="M0 0 C0.99 0 1.98 0 3 0 C3 1.32 3 2.64 3 4 C3.825 3.34 4.65 2.68 5.5 2 C9.26229238 -0.48453271 12.59985628 -0.87652265 17 0 C21.06063641 2.10551518 23.3073974 3.77232291 25 8 C26.04623033 14.47561512 25.01226235 19.09280964 21.38671875 24.50390625 C19.44683616 26.59679366 17.60217632 26.96350447 14.80859375 27.1328125 C14.02613281 27.13023437 13.24367188 27.12765625 12.4375 27.125 C11.65246094 27.12757813 10.86742188 27.13015625 10.05859375 27.1328125 C8 27 8 27 6 26 C6 25.34 6 24.68 6 24 C5.34 24 4.68 24 4 24 C4 28.62 4 33.24 4 38 C2.68 38 1.36 38 0 38 C0 25.46 0 12.92 0 0 Z " fill="#BABBBB" transform="translate(93,110)"/>
<path d="M0 0 C3.95466976 2.04810265 6.48335823 4.01236383 8.16796875 8.2734375 C8.71020719 12.53388237 8.4686241 14.69439756 6.48046875 18.5234375 C2.93557349 22.73898862 0.73482894 24.07447113 -4.76953125 24.7734375 C-9.53517933 24.59326177 -11.59454762 22.66508702 -14.83203125 19.2734375 C-17.37844462 15.80105563 -17.26732917 12.48131743 -16.83203125 8.2734375 C-13.30120044 1.4733189 -7.8659023 -3.11952629 0 0 Z " fill="#7B7B7C" transform="translate(192.83203125,23.7265625)"/>
<path d="M0 0 C3.58552881 1.63687185 4.79315055 2.68972583 7 6 C7 8.97 7 11.94 7 15 C1.06 15 -4.88 15 -11 15 C-9.46687233 19.31608796 -9.46687233 19.31608796 -7 23 C-4.98035801 23.07244053 -2.95832876 23.08377188 -0.9375 23.0625 C0.16722656 23.05347656 1.27195313 23.04445312 2.41015625 23.03515625 C3.26480469 23.02355469 4.11945313 23.01195312 5 23 C5.33 24.32 5.66 25.64 6 27 C0.70941483 28.48760218 -4.65006593 28.93997363 -9.8125 26.875 C-13.29150857 23.89299266 -15.63774696 21.25035981 -16.38671875 16.59765625 C-16.63510704 10.90185578 -15.87535232 7.41359569 -12 3 C-8.60481549 -0.63769769 -4.72460879 -0.70446453 0 0 Z " fill="#ADAEB0" transform="translate(188,110)"/>
<path d="M0 0 C1.65 0 3.3 0 5 0 C5.01458252 0.59014893 5.02916504 1.18029785 5.04418945 1.78833008 C5.11868844 4.46371229 5.21533995 7.13784892 5.3125 9.8125 C5.33505859 10.74126953 5.35761719 11.67003906 5.38085938 12.62695312 C5.41630859 13.51962891 5.45175781 14.41230469 5.48828125 15.33203125 C5.51446533 16.15421143 5.54064941 16.9763916 5.56762695 17.82348633 C6.09307933 20.46855011 6.8650647 21.39133765 9 23 C12.12414314 23.31241431 13.99825776 23.00058075 17 22 C17.33 14.74 17.66 7.48 18 0 C19.65 0 21.3 0 23 0 C23 8.91 23 17.82 23 27 C21.68 27 20.36 27 19 27 C18.67 26.01 18.34 25.02 18 24 C17.67 24.474375 17.34 24.94875 17 25.4375 C13.95393664 27.817237 10.7681652 28.36259703 7 28 C3.93823902 26.45597891 1.50036415 24.44711513 0.34594727 21.10839844 C-0.0247007 18.84945997 -0.11312206 16.74206533 -0.09765625 14.453125 C-0.09443359 13.60878906 -0.09121094 12.76445313 -0.08789062 11.89453125 C-0.07951172 11.02183594 -0.07113281 10.14914063 -0.0625 9.25 C-0.05798828 8.36183594 -0.05347656 7.47367187 -0.04882812 6.55859375 C-0.037074 4.37232671 -0.02064249 2.18619821 0 0 Z " fill="#B0B1B2" transform="translate(60,110)"/>
<path d="M0 0 C1.65 0 3.3 0 5 0 C6.17495143 2.93425371 7.33850852 5.87289513 8.5 8.8125 C8.83386719 9.64587891 9.16773438 10.47925781 9.51171875 11.33789062 C9.82753906 12.14033203 10.14335937 12.94277344 10.46875 13.76953125 C10.76201172 14.50792236 11.05527344 15.24631348 11.35742188 16.00708008 C12 18 12 18 12 21 C12.66 21 13.32 21 14 21 C14.0825 19.9275 14.165 18.855 14.25 17.75 C14.95274134 11.9182957 17.02768958 6.50412211 19 1 C20.65 0.67 22.3 0.34 24 0 C22.57088097 10.00383322 18.63849315 19.21948765 14 28.125 C13.68023193 28.75204834 13.36046387 29.37909668 13.03100586 30.02514648 C10.91634409 33.94476029 8.75214987 36.58274961 5 39 C4.01 39 3.02 39 2 39 C2 37.68 2 36.36 2 35 C4.9375 32.625 4.9375 32.625 6.58984375 31.5390625 C8.84079867 29.08234161 8.90089288 27.31627663 9 24 C8.16835449 20.88105422 6.952525 17.96559053 5.6875 15 C5.04439324 13.43798517 4.40244119 11.87549437 3.76171875 10.3125 C3.45669434 9.57773438 3.15166992 8.84296875 2.83740234 8.0859375 C1.7704023 5.42808082 0.86203949 2.73052101 0 0 Z " fill="#B1B2B3" transform="translate(122,110)"/>
<path d="M0 0 C2.8125 1.8125 2.8125 1.8125 5 5 C6.00896924 10.38385984 5.94311106 14.54246473 2.9375 19.1875 C-0.7163084 21.44197752 -2.77689801 21.62564474 -7 21 C-9.61593153 19.16884793 -9.96989455 18.09031634 -11 15 C-11.34547151 9.64519163 -11.46362011 6.3615957 -8 2 C-4.72942857 -0.18038095 -3.79480531 -0.63246755 0 0 Z " fill="#292E3C" transform="translate(108,113)"/>
<path d="M0 0 C2.9375 2.0625 2.9375 2.0625 5 5 C5.51521375 9.19531196 5.47609387 12.48134029 3 16 C-0.75047482 18.50031654 -2.55856266 18.53603554 -7 18 C-9.91963173 16.01216563 -11.61102978 14.5685303 -12.48046875 11.0625 C-12.75815509 7.09984094 -12.23092162 5.33588599 -9.9375 2 C-6.22192774 -0.52975133 -4.4117517 -0.7878128 0 0 Z " fill="#BCBCBD" transform="translate(57,43)"/>
<path d="M0 0 C1.65 0 3.3 0 5 0 C5.09938095 4.16253275 5.17170617 8.32442479 5.21972656 12.48779297 C5.23975843 13.90197795 5.26699248 15.31608097 5.30175781 16.72998047 C5.35065489 18.77071419 5.37305123 20.8103469 5.390625 22.8515625 C5.41157227 24.07697754 5.43251953 25.30239258 5.45410156 26.56494141 C4.90929632 30.68612946 3.5936566 32.78866671 1 36 C-2.22791555 38.1519437 -3.28400809 38.20086443 -7 38 C-7 37.01 -7 36.02 -7 35 C-6.195625 34.71125 -5.39125 34.4225 -4.5625 34.125 C-1.8673532 33.26737432 -1.8673532 33.26737432 -1 31 C-0.84479443 28.67726841 -0.74980833 26.35040687 -0.68359375 24.0234375 C-0.66281265 23.33819 -0.64203156 22.6529425 -0.62062073 21.94692993 C-0.55519815 19.75638931 -0.49627446 17.56572811 -0.4375 15.375 C-0.39430782 13.8906125 -0.3506933 12.40623722 -0.30664062 10.921875 C-0.19952447 7.28137916 -0.09823638 3.64074749 0 0 Z " fill="#B0B0B2" transform="translate(46,110)"/>
<path d="M0 0 C1.32 0 2.64 0 4 0 C4 2.31 4 4.62 4 7 C6.31 7 8.62 7 11 7 C11 8.32 11 9.64 11 11 C8.69 11 6.38 11 4 11 C4.33 16.94 4.66 22.88 5 29 C6.98 29.66 8.96 30.32 11 31 C11 31.99 11 32.98 11 34 C5.04296875 34.390625 5.04296875 34.390625 3 34 C0.28986556 31.09252567 -0.36867472 29.17108561 -0.29296875 25.234375 C-0.28330078 24.34492187 -0.27363281 23.45546875 -0.26367188 22.5390625 C-0.23853516 21.61867188 -0.21339844 20.69828125 -0.1875 19.75 C-0.16719727 18.34621094 -0.16719727 18.34621094 -0.14648438 16.9140625 C-0.11119954 14.60878673 -0.06190281 12.3046894 0 10 C-1.32 10 -2.64 10 -4 10 C-4 9.01 -4 8.02 -4 7 C-2.68 7 -1.36 7 0 7 C0 4.69 0 2.38 0 0 Z " fill="#BABABB" transform="translate(156,103)"/>
<path d="M0 0 C1.32 0 2.64 0 4 0 C4.33 1.32 4.66 2.64 5 4 C5.5775 3.34 6.155 2.68 6.75 2 C9 0 9 0 13 0 C13 0.99 13 1.98 13 3 C11.86433594 3.44859375 10.72867188 3.8971875 9.55859375 4.359375 C7.08562491 5.77250005 6.16848606 6.44663051 5.32861328 9.20507812 C5.08502345 11.90568079 5.03022306 14.53873701 5.0625 17.25 C5.04638672 18.18585938 5.03027344 19.12171875 5.01367188 20.0859375 C4.97837329 22.39211185 4.97490522 24.6938216 5 27 C3.35 27 1.7 27 0 27 C0 18.09 0 9.18 0 0 Z " fill="#AEAFB0" transform="translate(203,110)"/>
<path d="M0 0 C6.05761794 -0.41776675 9.19025097 -0.12264203 14 4 C16.74743999 8.45632878 16.7444853 12.91774828 16 18 C14.77819297 21.0949079 13.31643768 23.60217397 11 26 C8.1875 27 8.1875 27 6 27 C6 25.68 6 24.36 6 23 C6.66 22.484375 7.32 21.96875 8 21.4375 C10.86938076 17.9404422 10.55951713 14.98594435 10.3828125 10.57421875 C10.14744015 7.8534401 10.14744015 7.8534401 8.375 5.3125 C5.40654286 3.67203684 3.34134421 3.69624144 0 4 C0 2.68 0 1.36 0 0 Z " fill="#B2B2B4" transform="translate(102,110)"/>
<path d="M0 0 C1.9375 1.1875 1.9375 1.1875 3 3 C3 4.65 3 6.3 3 8 C-1.62 8 -6.24 8 -11 8 C-10.67 6.02 -10.34 4.04 -10 2 C-6.30513897 -0.46324069 -4.36706908 -0.38991688 0 0 Z " fill="#292E3C" transform="translate(188,113)"/>
<path d="M0 0 C0 0.99 0 1.98 0 3 C-2.8125 4.5625 -2.8125 4.5625 -6 6 C-6.99 5.67 -7.98 5.34 -9 5 C-4.5 0 -4.5 0 0 0 Z " fill="#B4B4B5" transform="translate(216,110)"/>
<path d="M0 0 C0.66 0.99 1.32 1.98 2 3 C0.71034824 4.37562854 -0.62689293 5.70766393 -2 7 C-2.66 7 -3.32 7 -4 7 C-3.34 5.35 -2.68 3.7 -2 2 C-1.34 2 -0.68 2 0 2 C0 1.34 0 0.68 0 0 Z " fill="#AAAAAC" transform="translate(77,130)"/>
<path d="M0 0 C0.66 0.33 1.32 0.66 2 1 C-0.31 3.31 -2.62 5.62 -5 8 C-5 5 -5 5 -2.5 2.3125 C-1.675 1.549375 -0.85 0.78625 0 0 Z " fill="#8A8B8D" transform="translate(58,203)"/>
</svg>
