<?xml version="1.0" encoding="UTF-8"?>
<svg version="1.1" xmlns="http://www.w3.org/2000/svg" width="256" height="256">
<path d="M0 0 C1.25165451 -0.00571014 2.50330902 -0.01142029 3.79289246 -0.01730347 C5.17246999 -0.01854869 6.55204764 -0.01967381 7.93162537 -0.02069092 C9.39070765 -0.02532254 10.84978873 -0.03034767 12.30886841 -0.03573608 C16.26792903 -0.0488326 20.22697271 -0.05530017 24.18605161 -0.05974674 C26.66381064 -0.06268311 29.1415651 -0.06678907 31.61932182 -0.07125092 C39.38382621 -0.08492127 47.14832008 -0.09458906 54.91283566 -0.09845281 C63.85248231 -0.10292656 72.79197553 -0.1204446 81.73157555 -0.1494534 C88.65580127 -0.17113595 95.57998404 -0.18116065 102.50424331 -0.18249393 C106.63274699 -0.18353765 110.76110636 -0.18935222 114.88957405 -0.20731354 C118.77941039 -0.22390737 122.66899573 -0.2258955 126.55885506 -0.21717453 C127.9777138 -0.21641005 129.39658666 -0.22066809 130.81541061 -0.23063278 C150.5520866 -0.36099095 165.50901918 5.63463774 179.90208435 19.12481689 C184.09555868 23.46514441 187.20024811 28.19592164 190.09739685 33.45294189 C190.58587097 34.32221313 190.58587097 34.32221313 191.08421326 35.20904541 C196.53005564 45.61788248 197.22785834 56.54199271 197.17308044 68.08184814 C197.17715602 69.54196564 197.18250338 71.00208004 197.18901062 72.46218872 C197.20257302 76.39198896 197.19743192 80.32155033 197.18787336 84.25135422 C197.1802188 88.38569479 197.18733833 92.52001643 197.19203186 96.65435791 C197.19747267 103.5940921 197.19034199 110.53373015 197.17601013 117.47344971 C197.15968683 125.46923178 197.16497653 133.46478428 197.18148935 141.4605608 C197.19515217 148.3552206 197.19700054 155.24981173 197.18917334 162.14448071 C197.18452307 166.24938399 197.18379837 170.35417977 197.19378281 174.45907593 C197.20252045 178.32030989 197.19630819 182.18125106 197.17910004 186.04245377 C197.17517115 187.45001873 197.17620659 188.85760883 197.18288803 190.26516342 C197.26287069 208.84361291 191.90065819 224.56032584 179.06419373 238.12896729 C166.57817914 250.59571333 150.62800502 256.32483667 133.27922058 256.42260742 C131.91416894 256.42031435 130.54911766 256.41780475 129.18406677 256.4151001 C127.72439312 256.41945463 126.26472174 256.42464023 124.80505371 256.43058777 C120.86273187 256.44391074 116.92050629 256.44456385 112.97816634 256.44202447 C109.67583687 256.44094999 106.3735265 256.44585039 103.07120115 256.45062989 C95.27352185 256.46170235 87.47589074 256.46217553 79.6782074 256.45611572 C71.6603443 256.45008014 63.64265688 256.46238156 55.62482375 256.48368579 C48.71749422 256.50135777 41.81022032 256.50729428 34.90286905 256.50404805 C30.78785025 256.50224362 26.67295673 256.50478654 22.5579586 256.51876259 C18.68446895 256.5314275 14.81125107 256.52931594 10.93776512 256.5163517 C9.52535913 256.51400492 8.11293349 256.51665154 6.70055008 256.52497482 C-11.81412317 256.626119 -27.62098898 251.32295508 -41.13331604 238.48345947 C-52.16744395 227.39263969 -59.31228469 212.71834568 -59.35554504 196.92533875 C-59.36125519 195.67368423 -59.36696533 194.42202972 -59.37284851 193.13244629 C-59.37409373 191.75286875 -59.37521886 190.3732911 -59.37623596 188.99371338 C-59.38086759 187.5346311 -59.38589271 186.07555002 -59.39128113 184.61647034 C-59.40437765 180.65740971 -59.41084521 176.69836603 -59.41529179 172.73928714 C-59.41822816 170.26152811 -59.42233412 167.78377364 -59.42679596 165.30601692 C-59.44046632 157.54151254 -59.45013411 149.77701867 -59.45399785 142.01250309 C-59.45847161 133.07285644 -59.47598964 124.13336322 -59.50499845 115.1937632 C-59.526681 108.26953748 -59.5367057 101.34535471 -59.53803897 94.42109543 C-59.5390827 90.29259175 -59.54489726 86.16423239 -59.56285858 82.03576469 C-59.57945241 78.14592835 -59.58144054 74.25634302 -59.57271957 70.36648369 C-59.57195509 68.94762495 -59.57621313 67.52875208 -59.58617783 66.10992813 C-59.7157728 46.48880248 -53.82062708 31.08730477 -40.09010315 16.95294189 C-29.38912636 6.86344949 -14.81472682 0.04058064 0 0 Z " fill="#F3F1EC" transform="translate(59.21510314941406,-0.14044189453125)"/>
<path d="M0 0 C2.48288606 1.92050663 4.83116418 3.91970201 7.16015625 6.0234375 C8.29517578 7.01923828 8.29517578 7.01923828 9.453125 8.03515625 C17.34874803 15.38719078 23.91880054 25.094171 28.16015625 35.0234375 C27.83015625 36.0134375 27.50015625 37.0034375 27.16015625 38.0234375 C26.62841797 37.4046875 26.62841797 37.4046875 26.0859375 36.7734375 C10.60210952 19.97742071 -15.396596 12.02910863 -37.62768555 10.81689453 C-41.63841592 10.72045512 -45.64086867 10.6893469 -49.65234375 10.7109375 C-50.35705811 10.71276031 -51.06177246 10.71458313 -51.7878418 10.71646118 C-62.09381578 10.76133713 -71.84449759 11.2048178 -81.83984375 14.0234375 C-82.49259277 14.19504395 -83.1453418 14.36665039 -83.81787109 14.54345703 C-98.06944317 18.31444524 -109.79230598 24.76693637 -121.2578125 33.984375 C-123.83984375 36.0234375 -123.83984375 36.0234375 -125.83984375 37.0234375 C-123.77878492 23.14899267 -110.48010306 9.05721552 -99.56640625 0.86328125 C-90.87681203 -5.00032746 -81.95252154 -10.01603944 -71.83984375 -12.9765625 C-70.70160156 -13.33105469 -69.56335938 -13.68554688 -68.390625 -14.05078125 C-44.49368274 -19.86536776 -19.77362647 -13.76266162 0 0 Z " fill="#F3792A" transform="translate(176.83984375,55.9765625)"/>
<path d="M0 0 C0.928125 0.825 1.85625 1.65 2.8125 2.5 C29.73429072 25.33784642 61.19779377 30.2045914 95.66796875 27.6484375 C100.98921785 27.10588442 105.99890547 25.94010269 111.125 24.4375 C112.02661865 24.17428955 112.9282373 23.9110791 113.85717773 23.63989258 C127.87327474 19.37691513 139.68276019 13.26953244 151 4 C152.32822639 2.99322672 153.65957657 1.99047605 155 1 C150.42174874 17.93952967 136.79436557 32.62231831 122.21484375 41.7421875 C116.3621402 45.05131103 110.35651582 47.81494769 104 50 C102.948125 50.37382812 101.89625 50.74765625 100.8125 51.1328125 C80.09486874 57.62978897 58.11528321 54.63714522 38.91210938 45.01660156 C21.0251884 35.50675236 8.12503935 20.36965419 0 2 C0 1.34 0 0.68 0 0 Z " fill="#F37929" transform="translate(50,153)"/>
<path d="M0 0 C3.08002208 2.76587349 4.58259462 5.38302919 5.1953125 9.484375 C5.20887295 20.02084745 5.20887295 20.02084745 0.76171875 24.58203125 C-4.01926926 28.21558214 -7.79382285 29.29656975 -13.8046875 29.03125 C-19.06260706 28.060687 -22.0820939 25.14847863 -25.17578125 20.95703125 C-26.72191112 16.0457952 -27.25209383 11.66547448 -26.23828125 6.58203125 C-23.85459422 2.44897167 -20.84617076 -0.42849828 -16.80078125 -2.91796875 C-9.84636742 -4.27492755 -5.91110258 -3.77687082 0 0 Z " fill="#9F9F9F" transform="translate(76.23828125,205.41796875)"/>
<path d="M0 0 C1.65 0 3.3 0 5 0 C5.33 0.99 5.66 1.98 6 3 C6.474375 2.505 6.94875 2.01 7.4375 1.5 C11.22838752 -0.71905611 14.70849502 -0.69736956 19 0 C22.61447219 2.15330258 24.41505381 4.15581034 26 8 C26.81285164 14.30223931 26.1484604 19.49019429 23 25 C20.0026711 27.79489492 18.00484325 28.39225183 13.9375 28.3125 C12.65166016 28.30669922 12.65166016 28.30669922 11.33984375 28.30078125 C9 28 9 28 6 26 C5.67 30.29 5.34 34.58 5 39 C3.35 39 1.7 39 0 39 C0 26.13 0 13.26 0 0 Z " fill="#5B5A5A" transform="translate(92,110)"/>
<path d="M0 0 C3.39488422 2.05107588 4.80323081 3.70484621 7 7 C7.68090463 12.11470225 7.84702203 16.56882485 5.1875 21.0625 C0.83508578 24.91749545 -1.84570425 25.49813524 -7.48828125 25.3828125 C-11.65453596 24.74783122 -13.21403242 23.13421352 -16 20 C-18.30363199 16.29415723 -18.21043495 13.11643478 -17.546875 8.9296875 C-15.09500695 0.27809595 -7.78289794 -1.03191778 0 0 Z " fill="#797979" transform="translate(194,23)"/>
<path d="M0 0 C2.68635892 2.14908714 4.08828105 3.6984369 5.18359375 6.984375 C5.18359375 9.294375 5.18359375 11.604375 5.18359375 13.984375 C-1.08640625 13.984375 -7.35640625 13.984375 -13.81640625 13.984375 C-12.28327858 18.30046296 -12.28327858 18.30046296 -9.81640625 21.984375 C-7.63001172 22.05696446 -5.44140236 22.06811283 -3.25390625 22.046875 C-2.05636719 22.03785156 -0.85882813 22.02882812 0.375 22.01953125 C1.76525391 22.00212891 1.76525391 22.00212891 3.18359375 21.984375 C2.85359375 23.634375 2.52359375 25.284375 2.18359375 26.984375 C0.10054837 27.03855826 -1.98290393 27.07725051 -4.06640625 27.109375 C-5.2265625 27.13257813 -6.38671875 27.15578125 -7.58203125 27.1796875 C-10.6998653 26.9914125 -12.2760914 26.72795474 -14.81640625 24.984375 C-18.4046695 20.200024 -19.51977451 16.40695207 -19.2734375 10.421875 C-18.3806492 5.66033739 -15.72798556 2.50045514 -12.00390625 -0.453125 C-7.8270067 -1.52718488 -3.84675863 -2.15087579 0 0 Z " fill="#585857" transform="translate(190.81640625,111.015625)"/>
<path d="M0 0 C1.65 0 3.3 0 5 0 C5.7727205 1.83253872 6.54306961 3.66607742 7.3125 5.5 C7.95638672 7.03140625 7.95638672 7.03140625 8.61328125 8.59375 C10.15107409 12.37108904 11.58261954 16.17598235 13 20 C13.176521 19.42967041 13.35304199 18.85934082 13.53491211 18.27172852 C14.33255199 15.7009727 15.13495994 13.13173007 15.9375 10.5625 C16.21529297 9.66466797 16.49308594 8.76683594 16.77929688 7.84179688 C17.04677734 6.98779297 17.31425781 6.13378906 17.58984375 5.25390625 C17.83597412 4.46314697 18.08210449 3.6723877 18.33569336 2.85766602 C19 1 19 1 20 0 C21.66617115 -0.04063832 23.33388095 -0.042721 25 0 C23.48097396 7.01283687 20.99127977 13.44181985 18.25 20.0625 C17.62351563 21.63741211 17.62351563 21.63741211 16.984375 23.24414062 C14.52136206 29.21018875 11.99728886 34.73195156 7 39 C4.125 39.9375 4.125 39.9375 2 40 C1.67 38.68 1.34 37.36 1 36 C1.94875 35.401875 2.8975 34.80375 3.875 34.1875 C7.13964197 32.18437474 7.13964197 32.18437474 9 29 C8.75828765 22.85582811 6.42279506 17.80435545 3.9375 12.25 C3.19176019 10.56985459 2.45065565 8.88764193 1.71484375 7.203125 C1.22165649 6.09952637 1.22165649 6.09952637 0.71850586 4.97363281 C0 3 0 3 0 0 Z " fill="#5A5A5A" transform="translate(122,110)"/>
<path d="M0 0 C1.65 0 3.3 0 5 0 C5.01981934 0.59014893 5.03963867 1.18029785 5.06005859 1.78833008 C5.15534659 4.46350096 5.26500939 7.13789498 5.375 9.8125 C5.4059375 10.74126953 5.436875 11.67003906 5.46875 12.62695312 C5.50742188 13.51962891 5.54609375 14.41230469 5.5859375 15.33203125 C5.6173584 16.15421143 5.6487793 16.9763916 5.68115234 17.82348633 C5.88373622 20.28952937 5.88373622 20.28952937 8 23 C11.41589896 23.29071481 13.73842267 23.08719244 17 22 C17.33 14.74 17.66 7.48 18 0 C19.65 0 21.3 0 23 0 C23 9.24 23 18.48 23 28 C21.68 28 20.36 28 19 28 C19 26.68 19 25.36 19 24 C18.34 24 17.68 24 17 24 C17 24.66 17 25.32 17 26 C12.9983959 28.66773607 9.70568852 28.71478813 5 28 C2.49839182 26.12379387 1.38054348 24.76108697 0 22 C-0.08426094 20.3325394 -0.10725143 18.66174813 -0.09765625 16.9921875 C-0.09443359 16.00605469 -0.09121094 15.01992187 -0.08789062 14.00390625 C-0.07951172 12.97136719 -0.07113281 11.93882813 -0.0625 10.875 C-0.05798828 9.83472656 -0.05347656 8.79445313 -0.04882812 7.72265625 C-0.03701952 5.14838038 -0.02055075 2.57421854 0 0 Z " fill="#545454" transform="translate(60,110)"/>
<path d="M0 0 C2.84142547 2.1857119 3.81568909 3.84093138 4.37890625 7.3828125 C4.57088975 11.53213322 4.31166699 14.35069378 2.5 18.125 C-0.52855311 20.39641483 -2.36785992 20.7468015 -6.09375 20.46875 C-8 20 -8 20 -10.5 18.125 C-12.62979995 13.68791677 -12.90295473 9.83159986 -12 5 C-8.74267857 0.06466449 -5.8075861 -1.05592475 0 0 Z " fill="#EEECE8" transform="translate(109,114)"/>
<path d="M0 0 C3.55247432 0.87379409 4.94828114 2.4927342 6.9375 5.4765625 C7.63597125 8.3162489 7.63597125 10.6368761 6.9375 13.4765625 C4.94828114 16.4603908 3.55247432 18.07933091 0 18.953125 C-3.92313492 19.23547183 -5.73362371 18.69581336 -9.0625 16.4765625 C-11.28175086 13.14768621 -11.82140933 11.33719742 -11.5390625 7.4140625 C-10.07519871 1.46261629 -5.59135555 -0.40240816 0 0 Z " fill="#656666" transform="translate(55.0625,42.5234375)"/>
<path d="M0 0 C1.65 0 3.3 0 5 0 C5 2.31 5 4.62 5 7 C7.31 7 9.62 7 12 7 C12 8.32 12 9.64 12 11 C9.69 11 7.38 11 5 11 C5.33 17.27 5.66 23.54 6 30 C7.65 30.33 9.3 30.66 11 31 C11 32.32 11 33.64 11 35 C5.04296875 35.390625 5.04296875 35.390625 3 35 C0.28986556 32.09252567 -0.36867472 30.17108561 -0.29296875 26.234375 C-0.28330078 25.34492188 -0.27363281 24.45546875 -0.26367188 23.5390625 C-0.23853516 22.61867188 -0.21339844 21.69828125 -0.1875 20.75 C-0.16719727 19.34621094 -0.16719727 19.34621094 -0.14648438 17.9140625 C-0.11119954 15.60878673 -0.06190281 13.3046894 0 11 C-1.32 11 -2.64 11 -4 11 C-4 10.01 -4 9.02 -4 8 C-2.68 8 -1.36 8 0 8 C0 5.36 0 2.72 0 0 Z " fill="#585858" transform="translate(156,103)"/>
<path d="M0 0 C1.65 0 3.3 0 5 0 C5.09953791 4.14422261 5.17177901 8.28779575 5.21972656 12.43286133 C5.23973246 13.84021134 5.26694662 15.24747938 5.30175781 16.65454102 C5.65475568 31.29876148 5.65475568 31.29876148 1 37 C-2.22791555 39.1519437 -3.28400809 39.20086443 -7 39 C-6.6875 37.0625 -6.6875 37.0625 -6 35 C-4.515 34.505 -4.515 34.505 -3 34 C-0.5623012 30.58373779 -0.69000693 27.14027259 -0.5859375 23.046875 C-0.56657135 22.38665344 -0.5472052 21.72643188 -0.5272522 21.04620361 C-0.46770651 18.94759847 -0.42117278 16.84893772 -0.375 14.75 C-0.33679706 13.3228934 -0.29774398 11.89580928 -0.2578125 10.46875 C-0.1620267 6.97937309 -0.07790358 3.48982714 0 0 Z " fill="#5B5B5A" transform="translate(46,110)"/>
<path d="M0 0 C1.32 0 2.64 0 4 0 C4.33 0.99 4.66 1.98 5 3 C5.5775 2.505 6.155 2.01 6.75 1.5 C9 0 9 0 13 0 C13 1.32 13 2.64 13 4 C12.236875 4.2475 11.47375 4.495 10.6875 4.75 C7.5187855 6.2238207 6.68013122 6.94521596 5 10 C4.4944043 13.07611138 4.3976135 16.13727759 4.3125 19.25 C4.27833984 20.09046875 4.24417969 20.9309375 4.20898438 21.796875 C4.12676432 23.86412204 4.06169843 25.93203874 4 28 C2.68 28 1.36 28 0 28 C0 18.76 0 9.52 0 0 Z " fill="#535352" transform="translate(204,110)"/>
<path d="M0 0 C1.9375 1.875 1.9375 1.875 3 4 C3 4.99 3 5.98 3 7 C-1.95 7 -6.9 7 -12 7 C-11 2 -11 2 -9.375 0.125 C-5.89022914 -1.52568093 -3.66368347 -0.9991864 0 0 Z " fill="#E9E7E2" transform="translate(189,114)"/>
</svg>
