<?xml version="1.0" encoding="UTF-8"?>
<svg version="1.1" xmlns="http://www.w3.org/2000/svg" width="256" height="256">
<path d="M0 0 C1.25165451 -0.00571014 2.50330902 -0.01142029 3.79289246 -0.01730347 C5.17246999 -0.01854869 6.55204764 -0.01967381 7.93162537 -0.02069092 C9.39070765 -0.02532254 10.84978873 -0.03034767 12.30886841 -0.03573608 C16.26792903 -0.0488326 20.22697271 -0.05530017 24.18605161 -0.05974674 C26.66381064 -0.06268311 29.1415651 -0.06678907 31.61932182 -0.07125092 C39.38382621 -0.08492127 47.14832008 -0.09458906 54.91283566 -0.09845281 C63.85248231 -0.10292656 72.79197553 -0.1204446 81.73157555 -0.1494534 C88.65580127 -0.17113595 95.57998404 -0.18116065 102.50424331 -0.18249393 C106.63274699 -0.18353765 110.76110636 -0.18935222 114.88957405 -0.20731354 C118.77941039 -0.22390737 122.66899573 -0.2258955 126.55885506 -0.21717453 C127.9777138 -0.21641005 129.39658666 -0.22066809 130.81541061 -0.23063278 C150.5520866 -0.36099095 165.50901918 5.63463774 179.90208435 19.12481689 C184.09555868 23.46514441 187.20024811 28.19592164 190.09739685 33.45294189 C190.58587097 34.32221313 190.58587097 34.32221313 191.08421326 35.20904541 C196.53005564 45.61788248 197.22785834 56.54199271 197.17308044 68.08184814 C197.17715602 69.54196564 197.18250338 71.00208004 197.18901062 72.46218872 C197.20257302 76.39198896 197.19743192 80.32155033 197.18787336 84.25135422 C197.1802188 88.38569479 197.18733833 92.52001643 197.19203186 96.65435791 C197.19747267 103.5940921 197.19034199 110.53373015 197.17601013 117.47344971 C197.15968683 125.46923178 197.16497653 133.46478428 197.18148935 141.4605608 C197.19515217 148.3552206 197.19700054 155.24981173 197.18917334 162.14448071 C197.18452307 166.24938399 197.18379837 170.35417977 197.19378281 174.45907593 C197.20252045 178.32030989 197.19630819 182.18125106 197.17910004 186.04245377 C197.17517115 187.45001873 197.17620659 188.85760883 197.18288803 190.26516342 C197.26287069 208.84361291 191.90065819 224.56032584 179.06419373 238.12896729 C166.57817914 250.59571333 150.62800502 256.32483667 133.27922058 256.42260742 C131.91416894 256.42031435 130.54911766 256.41780475 129.18406677 256.4151001 C127.72439312 256.41945463 126.26472174 256.42464023 124.80505371 256.43058777 C120.86273187 256.44391074 116.92050629 256.44456385 112.97816634 256.44202447 C109.67583687 256.44094999 106.3735265 256.44585039 103.07120115 256.45062989 C95.27352185 256.46170235 87.47589074 256.46217553 79.6782074 256.45611572 C71.6603443 256.45008014 63.64265688 256.46238156 55.62482375 256.48368579 C48.71749422 256.50135777 41.81022032 256.50729428 34.90286905 256.50404805 C30.78785025 256.50224362 26.67295673 256.50478654 22.5579586 256.51876259 C18.68446895 256.5314275 14.81125107 256.52931594 10.93776512 256.5163517 C9.52535913 256.51400492 8.11293349 256.51665154 6.70055008 256.52497482 C-11.81412317 256.626119 -27.62098898 251.32295508 -41.13331604 238.48345947 C-52.16744395 227.39263969 -59.31228469 212.71834568 -59.35554504 196.92533875 C-59.36125519 195.67368423 -59.36696533 194.42202972 -59.37284851 193.13244629 C-59.37409373 191.75286875 -59.37521886 190.3732911 -59.37623596 188.99371338 C-59.38086759 187.5346311 -59.38589271 186.07555002 -59.39128113 184.61647034 C-59.40437765 180.65740971 -59.41084521 176.69836603 -59.41529179 172.73928714 C-59.41822816 170.26152811 -59.42233412 167.78377364 -59.42679596 165.30601692 C-59.44046632 157.54151254 -59.45013411 149.77701867 -59.45399785 142.01250309 C-59.45847161 133.07285644 -59.47598964 124.13336322 -59.50499845 115.1937632 C-59.526681 108.26953748 -59.5367057 101.34535471 -59.53803897 94.42109543 C-59.5390827 90.29259175 -59.54489726 86.16423239 -59.56285858 82.03576469 C-59.57945241 78.14592835 -59.58144054 74.25634302 -59.57271957 70.36648369 C-59.57195509 68.94762495 -59.57621313 67.52875208 -59.58617783 66.10992813 C-59.7157728 46.48880248 -53.82062708 31.08730477 -40.09010315 16.95294189 C-29.38912636 6.86344949 -14.81472682 0.04058064 0 0 Z " fill="#F3F1EC" transform="translate(59.21510314941406,-0.14044189453125)"/>
<path d="M0 0 C5.55679469 3.07503826 10.1123484 6.73859707 12.03515625 12.9375 C13.04172957 19.99131612 13.47685133 26.72568135 9.34765625 32.8125 C8.24696729 34.19028548 7.14289907 35.56537942 6.03515625 36.9375 C5.21167954 38.35701699 4.41988413 39.79536743 3.66015625 41.25 C1.75251952 44.76343221 -0.34698367 48.06541378 -2.58984375 51.375 C-5.99865916 56.41133255 -9.19492654 61.54532151 -12.33984375 66.75 C-16.97790962 74.40691104 -21.80673689 81.9041791 -26.85107422 89.29931641 C-27.90028402 90.84254258 -28.93501067 92.39558712 -29.96875 93.94921875 C-34.32281703 100.39098098 -38.04843635 105.17829836 -45.96484375 106.9375 C-53.31288022 107.57114308 -59.56366563 107.37104322 -65.6171875 102.6484375 C-70.18029464 98.4758163 -72.56676503 94.2434082 -73.30541992 88.10913086 C-73.70043186 79.05418888 -71.50266023 73.90795579 -66.40234375 66.5625 C-65.72558594 65.53576172 -65.04882812 64.50902344 -64.3515625 63.45117188 C-62.94054649 61.31505042 -61.51707619 59.18710577 -60.08154297 57.06738281 C-57.44184435 53.16416063 -54.87148852 49.21838884 -52.30493164 45.2668457 C-51.07892982 43.38172761 -49.84764377 41.50003558 -48.61108398 39.62182617 C-45.30080451 34.58685598 -42.07149849 29.51553439 -38.93359375 24.37109375 C-37.93682617 22.74300781 -37.93682617 22.74300781 -36.91992188 21.08203125 C-35.65294806 19.00373854 -34.39578411 16.91942084 -33.15039062 14.828125 C-25.49835449 2.29417531 -15.38000706 -5.51167578 0 0 Z " fill="#FECC03" transform="translate(178.96484375,76.0625)"/>
<path d="M0 0 C5.20082165 3.37814837 9.45928543 7.71214171 11 13.875 C13.1993616 28.21059787 1.97185878 40.92491248 -5.37255859 52.33447266 C-7.01950388 54.90544664 -8.64751888 57.4874515 -10.26953125 60.07421875 C-10.80046387 60.92040771 -11.33139648 61.76659668 -11.87841797 62.63842773 C-12.88759785 64.24796376 -13.89580063 65.85811302 -14.90283203 67.46899414 C-17.08354441 70.93472859 -19.29996476 74.34002152 -21.703125 77.65625 C-23.46627868 80.127064 -24.94201787 82.43695011 -26.3125 85.125 C-36.21818741 103.20287953 -36.21818741 103.20287953 -45 105.875 C-51.92150649 106.84750585 -58.79653246 107.45375416 -64.6875 103.1875 C-69.32972978 98.90778708 -73.60197127 94.37395022 -74.3359375 87.921875 C-74.34882812 86.83390625 -74.36171875 85.7459375 -74.375 84.625 C-74.40335938 83.54734375 -74.43171875 82.4696875 -74.4609375 81.359375 C-73.49670902 74.07046144 -68.99256606 68.08098255 -65 62.0625 C-64.01472427 60.55788111 -63.0303821 59.05265057 -62.046875 57.546875 C-61.54220703 56.77537109 -61.03753906 56.00386719 -60.51757812 55.20898438 C-58.06135089 51.43138908 -55.65378566 47.62360611 -53.25 43.8125 C-52.76241211 43.04204346 -52.27482422 42.27158691 -51.77246094 41.4777832 C-48.87597577 36.89013343 -46.01833403 32.28081412 -43.1875 27.65234375 C-42.53362305 26.58959229 -41.87974609 25.52684082 -41.20605469 24.43188477 C-39.93884085 22.37052706 -38.67861161 20.3048526 -37.42675781 18.23413086 C-28.96079483 4.49719175 -17.58350478 -9.13046312 0 0 Z " fill="#FE3F59" transform="translate(110,77.125)"/>
<path d="M0 0 C1.19367188 -0.01675781 2.38734375 -0.03351563 3.6171875 -0.05078125 C9.45233793 0.5535272 13.91151151 3.32077406 18.125 7.3125 C22.54847372 12.81195381 22.86230001 17.8851777 22.625 24.86328125 C21.69987551 31.24519471 19.03030749 35.12836813 13.921875 38.96875 C7.55628412 42.66489955 1.35939978 43.37168008 -5.875 42.3125 C-12.1234254 40.53023101 -16.31433332 36.65350002 -19.875 31.3125 C-22.45012362 25.92815062 -22.96695904 19.9022336 -21.22265625 14.16796875 C-17.17413142 5.08050744 -9.83997151 0.03174184 0 0 Z " fill="#04D649" transform="translate(197.875,140.6875)"/>
<path d="M0 0 C0.66 0.33 1.32 0.66 2 1 C-1.3 4.3 -4.6 7.6 -8 11 C-8 6.67750434 -5.85084926 5.11604454 -3 2 C-2.01 1.34 -1.02 0.68 0 0 Z " fill="#FDD22A" transform="translate(158,77)"/>
</svg>
