<?xml version="1.0" encoding="UTF-8"?>
<svg version="1.1" xmlns="http://www.w3.org/2000/svg" width="256" height="256">
<path d="M0 0 C1.25165451 -0.00571014 2.50330902 -0.01142029 3.79289246 -0.01730347 C5.17246999 -0.01854869 6.55204764 -0.01967381 7.93162537 -0.02069092 C9.39070765 -0.02532254 10.84978873 -0.03034767 12.30886841 -0.03573608 C16.26792903 -0.0488326 20.22697271 -0.05530017 24.18605161 -0.05974674 C26.66381064 -0.06268311 29.1415651 -0.06678907 31.61932182 -0.07125092 C39.38382621 -0.08492127 47.14832008 -0.09458906 54.91283566 -0.09845281 C63.85248231 -0.10292656 72.79197553 -0.1204446 81.73157555 -0.1494534 C88.65580127 -0.17113595 95.57998404 -0.18116065 102.50424331 -0.18249393 C106.63274699 -0.18353765 110.76110636 -0.18935222 114.88957405 -0.20731354 C118.77941039 -0.22390737 122.66899573 -0.2258955 126.55885506 -0.21717453 C127.9777138 -0.21641005 129.39658666 -0.22066809 130.81541061 -0.23063278 C150.5520866 -0.36099095 165.50901918 5.63463774 179.90208435 19.12481689 C184.09555868 23.46514441 187.20024811 28.19592164 190.09739685 33.45294189 C190.58587097 34.32221313 190.58587097 34.32221313 191.08421326 35.20904541 C196.53005564 45.61788248 197.22785834 56.54199271 197.17308044 68.08184814 C197.17715602 69.54196564 197.18250338 71.00208004 197.18901062 72.46218872 C197.20257302 76.39198896 197.19743192 80.32155033 197.18787336 84.25135422 C197.1802188 88.38569479 197.18733833 92.52001643 197.19203186 96.65435791 C197.19747267 103.5940921 197.19034199 110.53373015 197.17601013 117.47344971 C197.15968683 125.46923178 197.16497653 133.46478428 197.18148935 141.4605608 C197.19515217 148.3552206 197.19700054 155.24981173 197.18917334 162.14448071 C197.18452307 166.24938399 197.18379837 170.35417977 197.19378281 174.45907593 C197.20252045 178.32030989 197.19630819 182.18125106 197.17910004 186.04245377 C197.17517115 187.45001873 197.17620659 188.85760883 197.18288803 190.26516342 C197.26287069 208.84361291 191.90065819 224.56032584 179.06419373 238.12896729 C166.57817914 250.59571333 150.62800502 256.32483667 133.27922058 256.42260742 C131.91416894 256.42031435 130.54911766 256.41780475 129.18406677 256.4151001 C127.72439312 256.41945463 126.26472174 256.42464023 124.80505371 256.43058777 C120.86273187 256.44391074 116.92050629 256.44456385 112.97816634 256.44202447 C109.67583687 256.44094999 106.3735265 256.44585039 103.07120115 256.45062989 C95.27352185 256.46170235 87.47589074 256.46217553 79.6782074 256.45611572 C71.6603443 256.45008014 63.64265688 256.46238156 55.62482375 256.48368579 C48.71749422 256.50135777 41.81022032 256.50729428 34.90286905 256.50404805 C30.78785025 256.50224362 26.67295673 256.50478654 22.5579586 256.51876259 C18.68446895 256.5314275 14.81125107 256.52931594 10.93776512 256.5163517 C9.52535913 256.51400492 8.11293349 256.51665154 6.70055008 256.52497482 C-11.81412317 256.626119 -27.62098898 251.32295508 -41.13331604 238.48345947 C-52.16744395 227.39263969 -59.31228469 212.71834568 -59.35554504 196.92533875 C-59.36125519 195.67368423 -59.36696533 194.42202972 -59.37284851 193.13244629 C-59.37409373 191.75286875 -59.37521886 190.3732911 -59.37623596 188.99371338 C-59.38086759 187.5346311 -59.38589271 186.07555002 -59.39128113 184.61647034 C-59.40437765 180.65740971 -59.41084521 176.69836603 -59.41529179 172.73928714 C-59.41822816 170.26152811 -59.42233412 167.78377364 -59.42679596 165.30601692 C-59.44046632 157.54151254 -59.45013411 149.77701867 -59.45399785 142.01250309 C-59.45847161 133.07285644 -59.47598964 124.13336322 -59.50499845 115.1937632 C-59.526681 108.26953748 -59.5367057 101.34535471 -59.53803897 94.42109543 C-59.5390827 90.29259175 -59.54489726 86.16423239 -59.56285858 82.03576469 C-59.57945241 78.14592835 -59.58144054 74.25634302 -59.57271957 70.36648369 C-59.57195509 68.94762495 -59.57621313 67.52875208 -59.58617783 66.10992813 C-59.7157728 46.48880248 -53.82062708 31.08730477 -40.09010315 16.95294189 C-29.38912636 6.86344949 -14.81472682 0.04058064 0 0 Z " fill="#252A39" transform="translate(59.21510314941406,-0.14044189453125)"/>
<path d="M0 0 C4.17238991 3.5324528 7.55832209 7.63345106 8.2109375 13.16796875 C8.21480469 14.07933594 8.21867187 14.99070312 8.22265625 15.9296875 C8.23941406 16.83332031 8.25617188 17.73695312 8.2734375 18.66796875 C7.40021795 25.75700921 3.26951566 31.49859141 -0.52734375 37.3671875 C-1.60301608 39.0493823 -2.67853232 40.73167693 -3.75390625 42.4140625 C-4.58003418 43.70086914 -4.58003418 43.70086914 -5.42285156 45.01367188 C-8.10413511 49.20131214 -10.75174415 53.41008708 -13.40234375 57.6171875 C-17.14794843 63.55204808 -20.90414716 69.47973787 -24.6875 75.390625 C-25.6363926 76.89722328 -26.56830732 78.41462678 -27.484375 79.94140625 C-40.08984375 100.95052083 -40.08984375 100.95052083 -51.08984375 104.6171875 C-58.71281014 105.13399878 -64.0397151 103.72881503 -70.33984375 99.3671875 C-75.58703582 94.11999543 -77.76384213 89.4852166 -78.171875 82.140625 C-77.90213774 73.84299311 -73.41327028 67.65858735 -68.9375 60.9375 C-65.43735381 55.67277561 -62.11646306 50.29738202 -58.77734375 44.9296875 C-57.478229 42.84742885 -56.17875045 40.76539712 -54.87890625 38.68359375 C-54.24243164 37.66410645 -53.60595703 36.64461914 -52.95019531 35.59423828 C-48.78228088 28.92448124 -44.59506444 22.26787413 -40.36523438 15.63720703 C-39.1840938 13.76646486 -38.03169651 11.88129006 -36.88671875 9.98828125 C-32.527897 2.99528967 -27.90452774 -2.85795066 -19.6171875 -5.03125 C-11.9372341 -6.09955882 -6.22330681 -4.58790519 0 0 Z " fill="#FA3C56" transform="translate(113.08984375,79.3828125)"/>
<path d="M0 0 C5.04885564 3.02931338 8.65629405 7.96888215 10.5 13.5 C11.49375482 23.28659811 10.55120986 28.87460906 4.5 36.5 C3.67765668 37.92017387 2.88579317 39.35842431 2.125 40.8125 C0.21736327 44.32593221 -1.88213992 47.62791378 -4.125 50.9375 C-7.53381541 55.97383255 -10.73008279 61.10782151 -13.875 66.3125 C-18.51306587 73.96941104 -23.34189314 81.4666791 -28.38623047 88.86181641 C-29.43544027 90.40504258 -30.47016692 91.95808712 -31.50390625 93.51171875 C-36.01136507 100.18042132 -39.57645122 104.21161046 -47.5 106.5 C-53.9412745 107.33113219 -59.74293592 107.70411449 -65.125 103.6875 C-66.28421095 102.66243355 -67.41252046 101.60087215 -68.5 100.5 C-69.02980469 99.99855469 -69.55960937 99.49710937 -70.10546875 98.98046875 C-74.65100295 94.1548176 -75.44336987 87.66500795 -75.296875 81.28515625 C-73.56744113 73.07034537 -68.18496147 66.32055213 -63.5 59.5 C-62.62874731 58.1945482 -61.760104 56.88734976 -60.89453125 55.578125 C-59.25963553 53.10963909 -57.61229094 50.65017992 -55.95703125 48.1953125 C-53.43369493 44.42881048 -51.01867224 40.59986251 -48.625 36.75 C-48.21975098 36.09950684 -47.81450195 35.44901367 -47.39697266 34.77880859 C-45.59375687 31.88030618 -43.79500466 28.97917778 -42.00537109 26.07226562 C-40.44752577 23.54412756 -38.88043891 21.0218873 -37.3125 18.5 C-36.8376416 17.72301758 -36.3627832 16.94603516 -35.87353516 16.14550781 C-27.61012143 2.90011869 -16.72064725 -7.2628294 0 0 Z " fill="#FCC900" transform="translate(180.5,76.5)"/>
<path d="M0 0 C5.29108426 4.23688341 8.48069171 8.14513461 9.40625 15.015625 C9.60244297 21.78428232 9.23236978 26.69976273 4.94921875 32.12109375 C-0.56206227 37.43357104 -6.15871298 39.28360071 -13.75 39.5 C-21.01612043 39.15966649 -24.79621812 37.47490393 -29.75 32.1875 C-34.49356231 26.40726513 -35.57395069 21.15448005 -35.453125 13.75390625 C-34.69046704 9.11878674 -32.15973417 6.32520654 -29 3 C-28.401875 2.236875 -27.80375 1.47375 -27.1875 0.6875 C-18.817432 -5.7694096 -8.74858942 -5.27692695 0 0 Z " fill="#01D146" transform="translate(211,144)"/>
<path d="M0 0 C-1.44077046 3.36179774 -3.24750021 5.59156268 -6 8 C-6.66 8 -7.32 8 -8 8 C-6.48291727 4.46014029 -4.24676932 0 0 0 Z " fill="#D2AB0D" transform="translate(158,78)"/>
</svg>
