<?xml version="1.0" encoding="UTF-8"?>
<svg version="1.1" xmlns="http://www.w3.org/2000/svg" width="256" height="256">
<path d="M0 0 C1.25165451 -0.00571014 2.50330902 -0.01142029 3.79289246 -0.01730347 C5.17246999 -0.01854869 6.55204764 -0.01967381 7.93162537 -0.02069092 C9.39070765 -0.02532254 10.84978873 -0.03034767 12.30886841 -0.03573608 C16.26792903 -0.0488326 20.22697271 -0.05530017 24.18605161 -0.05974674 C26.66381064 -0.06268311 29.1415651 -0.06678907 31.61932182 -0.07125092 C39.38382621 -0.08492127 47.14832008 -0.09458906 54.91283566 -0.09845281 C63.85248231 -0.10292656 72.79197553 -0.1204446 81.73157555 -0.1494534 C88.65580127 -0.17113595 95.57998404 -0.18116065 102.50424331 -0.18249393 C106.63274699 -0.18353765 110.76110636 -0.18935222 114.88957405 -0.20731354 C118.77941039 -0.22390737 122.66899573 -0.2258955 126.55885506 -0.21717453 C127.9777138 -0.21641005 129.39658666 -0.22066809 130.81541061 -0.23063278 C150.5520866 -0.36099095 165.50901918 5.63463774 179.90208435 19.12481689 C184.09555868 23.46514441 187.20024811 28.19592164 190.09739685 33.45294189 C190.58587097 34.32221313 190.58587097 34.32221313 191.08421326 35.20904541 C196.53005564 45.61788248 197.22785834 56.54199271 197.17308044 68.08184814 C197.17715602 69.54196564 197.18250338 71.00208004 197.18901062 72.46218872 C197.20257302 76.39198896 197.19743192 80.32155033 197.18787336 84.25135422 C197.1802188 88.38569479 197.18733833 92.52001643 197.19203186 96.65435791 C197.19747267 103.5940921 197.19034199 110.53373015 197.17601013 117.47344971 C197.15968683 125.46923178 197.16497653 133.46478428 197.18148935 141.4605608 C197.19515217 148.3552206 197.19700054 155.24981173 197.18917334 162.14448071 C197.18452307 166.24938399 197.18379837 170.35417977 197.19378281 174.45907593 C197.20252045 178.32030989 197.19630819 182.18125106 197.17910004 186.04245377 C197.17517115 187.45001873 197.17620659 188.85760883 197.18288803 190.26516342 C197.26287069 208.84361291 191.90065819 224.56032584 179.06419373 238.12896729 C166.57817914 250.59571333 150.62800502 256.32483667 133.27922058 256.42260742 C131.91416894 256.42031435 130.54911766 256.41780475 129.18406677 256.4151001 C127.72439312 256.41945463 126.26472174 256.42464023 124.80505371 256.43058777 C120.86273187 256.44391074 116.92050629 256.44456385 112.97816634 256.44202447 C109.67583687 256.44094999 106.3735265 256.44585039 103.07120115 256.45062989 C95.27352185 256.46170235 87.47589074 256.46217553 79.6782074 256.45611572 C71.6603443 256.45008014 63.64265688 256.46238156 55.62482375 256.48368579 C48.71749422 256.50135777 41.81022032 256.50729428 34.90286905 256.50404805 C30.78785025 256.50224362 26.67295673 256.50478654 22.5579586 256.51876259 C18.68446895 256.5314275 14.81125107 256.52931594 10.93776512 256.5163517 C9.52535913 256.51400492 8.11293349 256.51665154 6.70055008 256.52497482 C-11.81412317 256.626119 -27.62098898 251.32295508 -41.13331604 238.48345947 C-52.16744395 227.39263969 -59.31228469 212.71834568 -59.35554504 196.92533875 C-59.36125519 195.67368423 -59.36696533 194.42202972 -59.37284851 193.13244629 C-59.37409373 191.75286875 -59.37521886 190.3732911 -59.37623596 188.99371338 C-59.38086759 187.5346311 -59.38589271 186.07555002 -59.39128113 184.61647034 C-59.40437765 180.65740971 -59.41084521 176.69836603 -59.41529179 172.73928714 C-59.41822816 170.26152811 -59.42233412 167.78377364 -59.42679596 165.30601692 C-59.44046632 157.54151254 -59.45013411 149.77701867 -59.45399785 142.01250309 C-59.45847161 133.07285644 -59.47598964 124.13336322 -59.50499845 115.1937632 C-59.526681 108.26953748 -59.5367057 101.34535471 -59.53803897 94.42109543 C-59.5390827 90.29259175 -59.54489726 86.16423239 -59.56285858 82.03576469 C-59.57945241 78.14592835 -59.58144054 74.25634302 -59.57271957 70.36648369 C-59.57195509 68.94762495 -59.57621313 67.52875208 -59.58617783 66.10992813 C-59.7157728 46.48880248 -53.82062708 31.08730477 -40.09010315 16.95294189 C-29.38912636 6.86344949 -14.81472682 0.04058064 0 0 Z " fill="#F2F1EC" transform="translate(59.21510314941406,-0.14044189453125)"/>
<path d="M0 0 C6 2 6 2 8.25 3.375 C11.5937128 5.35083029 15.05321414 6.60907507 18.6953125 7.9375 C23.05384016 9.94685512 24.59836705 12.87069836 26.5390625 17.15234375 C27.02930908 18.22258789 27.51955566 19.29283203 28.0246582 20.39550781 C28.552771 21.56436523 29.08088379 22.73322266 29.625 23.9375 C30.77419449 26.45326861 31.92834615 28.96675692 33.08203125 31.48046875 C33.54082924 32.48262924 33.54082924 32.48262924 34.00889587 33.5050354 C38.03609758 42.28807834 42.17907066 51.01659899 46.3125 59.75 C48.849375 65.1125 51.38625 70.475 54 76 C54.33 60.16 54.66 44.32 55 28 C59.47671433 28.89534287 62.32321681 30.00210099 66.3125 32.0625 C67.91544922 32.88427734 67.91544922 32.88427734 69.55078125 33.72265625 C70.35902344 34.14417969 71.16726562 34.56570312 72 35 C72 35.66 72 36.32 72 37 C74.31 37.66 76.62 38.32 79 39 C79 70.02 79 101.04 79 133 C74.62085263 131.24834105 70.67299484 129.24852308 66.625 126.875 C65.99078125 126.52179688 65.3565625 126.16859375 64.703125 125.8046875 C55.64261847 120.47932856 50.88978433 112.6552799 46.3125 103.4375 C45.27632576 101.40219909 44.23985851 99.36704733 43.203125 97.33203125 C42.67783203 96.29127441 42.15253906 95.25051758 41.61132812 94.17822266 C38.97148937 88.9713407 36.26563805 83.79921624 33.5625 78.625 C33.07885986 77.69357178 32.59521973 76.76214355 32.09692383 75.80249023 C31.63310303 74.91118408 31.16928223 74.01987793 30.69140625 73.1015625 C30.09114624 71.94648193 30.09114624 71.94648193 29.47875977 70.76806641 C27.36879812 66.81846345 25.17464493 62.91436088 23 59 C22.67 73.52 22.34 88.04 22 103 C20.35 102.67 18.7 102.34 17 102 C17 101.34 17 100.68 17 100 C16.41992188 99.81824219 15.83984375 99.63648438 15.2421875 99.44921875 C10.60852707 97.9581894 6.30237645 96.31666424 2 94 C2 93.34 2 92.68 2 92 C1.34 92 0.68 92 0 92 C0 61.64 0 31.28 0 0 Z " fill="#4F78CF" transform="translate(43,85)"/>
<path d="M0 0 C0 13.2 0 26.4 0 40 C-8.353125 44.2075 -8.353125 44.2075 -16.875 48.5 C-18.63183105 49.38751953 -20.38866211 50.27503906 -22.19873047 51.18945312 C-23.58805686 51.88703607 -24.97753234 52.58432223 -26.3671875 53.28125 C-27.09107666 53.64831055 -27.81496582 54.01537109 -28.56079102 54.39355469 C-33.7718564 57 -33.7718564 57 -36 57 C-36 43.8 -36 30.6 -36 17 C-27.646875 12.7925 -27.646875 12.7925 -19.125 8.5 C-17.36816895 7.61248047 -15.61133789 6.72496094 -13.80126953 5.81054688 C-12.41194314 5.11296393 -11.02246766 4.41567777 -9.6328125 3.71875 C-8.54697876 3.16815918 -8.54697876 3.16815918 -7.43920898 2.60644531 C-2.2281436 0 -2.2281436 0 0 0 Z " fill="#50ACCF" transform="translate(171,107)"/>
<path d="M0 0 C0 13.53 0 27.06 0 41 C-3.526875 42.69125 -7.05375 44.3825 -10.6875 46.125 C-12.3111145 46.90447998 -12.3111145 46.90447998 -13.9675293 47.69970703 C-21.28269647 51.20267117 -28.63389083 54.6002573 -36 58 C-36 44.47 -36 30.94 -36 17 C-26 13 -26 13 -22 12 C-22 11.34 -22 10.68 -22 10 C-20.02 9.67 -18.04 9.34 -16 9 C-16 8.34 -16 7.68 -16 7 C-14.68 7 -13.36 7 -12 7 C-12 6.34 -12 5.68 -12 5 C-9.36 4.34 -6.72 3.68 -4 3 C-4 2.34 -4 1.68 -4 1 C-2 0 -2 0 0 0 Z " fill="#4EABCF" transform="translate(171,161)"/>
<path d="M0 0 C0 13.2 0 26.4 0 40 C-3.91875 41.98 -7.8375 43.96 -11.875 46 C-13.10976074 46.62648437 -14.34452148 47.25296875 -15.61669922 47.8984375 C-17.07100342 48.62933594 -17.07100342 48.62933594 -18.5546875 49.375 C-19.54968262 49.87773437 -20.54467773 50.38046875 -21.56982422 50.8984375 C-24 52 -24 52 -26 52 C-26.33 52.99 -26.66 53.98 -27 55 C-28.32 55 -29.64 55 -31 55 C-31.04934926 49.34001954 -31.08569529 43.68016364 -31.10986328 38.02001953 C-31.11993582 36.09356506 -31.13359443 34.16712592 -31.15087891 32.24072266 C-31.17507241 29.47554748 -31.18647036 26.710574 -31.1953125 23.9453125 C-31.20563507 23.0806839 -31.21595764 22.2160553 -31.22659302 21.32522583 C-31.22699106 19.21546479 -31.12265243 17.10619282 -31 15 C-28.76595074 12.76595074 -27.0503577 12.07899714 -24.125 10.9375 C-22.82949219 10.42509766 -22.82949219 10.42509766 -21.5078125 9.90234375 C-19.34640255 9.12464017 -17.23816498 8.50488838 -15 8 C-15 7.34 -15 6.68 -15 6 C-13.06629769 4.99267601 -11.12789694 3.99436712 -9.1875 3 C-8.10855469 2.443125 -7.02960938 1.88625 -5.91796875 1.3125 C-3 0 -3 0 0 0 Z " fill="#51ACCF" transform="translate(214,140)"/>
<path d="M0 0 C0 12.87 0 25.74 0 39 C-3.01125 40.588125 -6.0225 42.17625 -9.125 43.8125 C-10.53096436 44.55463745 -10.53096436 44.55463745 -11.96533203 45.31176758 C-24.66040024 52 -24.66040024 52 -27 52 C-27 52.66 -27 53.32 -27 54 C-28.98 54.495 -28.98 54.495 -31 55 C-31.19806477 49.39514781 -31.34306251 43.79233864 -31.43945312 38.18481445 C-31.47963662 36.27852903 -31.53419687 34.37248945 -31.60351562 32.46704102 C-31.70080921 29.72350509 -31.74597204 26.98322978 -31.78125 24.23828125 C-31.82254028 23.38913651 -31.86383057 22.53999176 -31.90637207 21.66511536 C-31.90823087 19.20274512 -31.81635027 17.32601569 -31 15 C-28.60186609 12.70810842 -26.0062526 11.3554729 -23 10 C-22.2834726 9.65994431 -21.56694519 9.31988861 -20.82870483 8.9695282 C-18.86249176 8.0546721 -16.87706533 7.2082295 -14.875 6.375 C-13.51758241 5.80100627 -12.16080044 5.22550684 -10.8046875 4.6484375 C-10.16370117 4.37612305 -9.52271484 4.10380859 -8.86230469 3.82324219 C-0.21352313 0 -0.21352313 0 0 0 Z " fill="#50ACCF" transform="translate(214,86)"/>
<path d="M0 0 C0.84949219 0.50917969 1.69898438 1.01835938 2.57421875 1.54296875 C6.9787629 4.07543017 11.35403855 6.04197205 16.08984375 7.859375 C18.68409349 8.89987445 21.00485841 10.07543783 23.26171875 11.73046875 C23.26171875 12.39046875 23.26171875 13.05046875 23.26171875 13.73046875 C17.80134433 17.17287871 12.48896942 19.07655107 6.26171875 20.73046875 C6.26171875 21.39046875 6.26171875 22.05046875 6.26171875 22.73046875 C4.20810455 23.93617782 2.1461672 25.11953516 0.07421875 26.29296875 C-0.50392578 26.63521484 -1.08207031 26.97746094 -1.67773438 27.33007812 C-6.07873108 29.79165255 -6.07873108 29.79165255 -9.03320312 29.51757812 C-12.36529607 28.54802328 -15.2553779 27.13961154 -18.3515625 25.5703125 C-18.96597702 25.26098282 -19.58039154 24.95165314 -20.21342468 24.63294983 C-22.16211685 23.65025294 -24.10645238 22.65926601 -26.05078125 21.66796875 C-27.37667355 20.99749372 -28.70284271 20.32756589 -30.02929688 19.65820312 C-33.26885376 18.02194657 -36.50455874 16.3782315 -39.73828125 14.73046875 C-39.73828125 14.07046875 -39.73828125 13.41046875 -39.73828125 12.73046875 C-35.60575723 10.55254269 -31.46170629 8.3990759 -27.30541992 6.2668457 C-25.89481356 5.53898382 -24.48751226 4.80467774 -23.08374023 4.0637207 C-21.05908329 2.99648749 -19.02346399 1.95339949 -16.984375 0.9140625 C-16.36429062 0.58079453 -15.74420624 0.24752655 -15.10533142 -0.09584045 C-9.64553088 -2.82883312 -5.47228747 -2.53708049 0 0 Z " fill="#54AED0" transform="translate(91.73828125,61.26953125)"/>
<path d="M0 0 C0.495 1.485 0.495 1.485 1 3 C2.97948781 3.72530851 4.98563509 4.37808484 7 5 C9.73215623 6.24563422 12.3937616 7.62451578 15.0625 9 C19.31882003 11.18151221 23.51292822 13.32062811 28 15 C27 18 27 18 25.07739258 18.98120117 C23.84218872 19.41396362 23.84218872 19.41396362 22.58203125 19.85546875 C18.85977982 21.24593071 15.34453182 22.76886012 11.82421875 24.61328125 C10.97666016 25.05607422 10.12910156 25.49886719 9.25585938 25.95507812 C7.52026934 26.87236716 5.78857136 27.79705261 4.06054688 28.72851562 C3.21943359 29.16486328 2.37832031 29.60121094 1.51171875 30.05078125 C0.76365967 30.44950439 0.01560059 30.84822754 -0.75512695 31.2590332 C-4.44895997 32.47825922 -7.03570294 31.41972081 -10.5078125 29.90844727 C-11.37148437 29.46557373 -12.23515625 29.0227002 -13.125 28.56640625 C-14.07890625 28.08236328 -15.0328125 27.59832031 -16.015625 27.09960938 C-17.00046875 26.59236328 -17.9853125 26.08511719 -19 25.5625 C-20.9574197 24.56201257 -22.91572423 23.56325399 -24.875 22.56640625 C-25.73867187 22.12240479 -26.60234375 21.67840332 -27.4921875 21.22094727 C-29.95645058 20.02120236 -32.44321008 18.98485669 -35 18 C-33.8086953 14.42608589 -32.4118441 13.73089472 -29.1875 11.984375 C-25.26403901 10.21881755 -21.15054083 9.10235692 -17 8 C-17 7.34 -17 6.68 -17 6 C-15.30099815 4.98422665 -13.59029549 3.9880102 -11.875 3 C-10.92367187 2.443125 -9.97234375 1.88625 -8.9921875 1.3125 C-5.73484878 -0.11630654 -3.5162171 -0.25041309 0 0 Z " fill="#51ACCF" transform="translate(133,81)"/>
<path d="M0 0 C1.10408203 0.55880859 2.20816406 1.11761719 3.34570312 1.69335938 C6.0458042 3.06094304 8.74292033 4.43407834 11.4375 5.8125 C11.4375 6.4725 11.4375 7.1325 11.4375 7.8125 C7.87666105 9.60748186 4.31354531 11.39789784 0.75 13.1875 C-0.25740234 13.69539063 -1.26480469 14.20328125 -2.30273438 14.7265625 C-3.27919922 15.21640625 -4.25566406 15.70625 -5.26171875 16.2109375 C-6.15721436 16.66130371 -7.05270996 17.11166992 -7.9753418 17.57568359 C-13.06825613 20.01040135 -15.9555105 21.35167359 -21.5625 19.8125 C-23.60952264 18.89342861 -25.58943148 17.89034216 -27.57421875 16.84375 C-29.82688836 15.67537126 -32.14752814 14.71495912 -34.48828125 13.73828125 C-39.26251499 11.60740856 -43.90110365 9.17764199 -48.5625 6.8125 C-48.5625 5.8225 -48.5625 4.8325 -48.5625 3.8125 C-47.86125 3.49796875 -47.16 3.1834375 -46.4375 2.859375 C-41.91387734 0.81882782 -37.41464173 -1.23170342 -33 -3.5 C-29.5625 -5.1875 -29.5625 -5.1875 -27.5625 -5.1875 C-27.5625 -5.8475 -27.5625 -6.5075 -27.5625 -7.1875 C-18.29113041 -11.70432108 -8.27640771 -4.23548532 0 0 Z " fill="#54ADD0" transform="translate(193.5625,68.1875)"/>
<path d="M0 0 C0.96768311 0.48476807 1.93536621 0.96953613 2.93237305 1.46899414 C3.99133789 1.9981543 5.05030273 2.52731445 6.14135742 3.07250977 C7.23125977 3.62745117 8.32116211 4.18239258 9.4440918 4.75415039 C10.55333008 5.30522461 11.66256836 5.85629883 12.80541992 6.42407227 C21.00034308 10.55415295 21.00034308 10.55415295 22.1315918 12.81665039 C15.3815918 16.81665039 15.3815918 16.81665039 13.1315918 16.81665039 C13.1315918 17.47665039 13.1315918 18.13665039 13.1315918 18.81665039 C8.13345911 21.94048332 3.89991296 23.60226699 -1.8684082 24.81665039 C-1.8684082 25.47665039 -1.8684082 26.13665039 -1.8684082 26.81665039 C-6.74357602 27.1363111 -9.75702456 26.25236838 -14.10668945 24.07836914 C-15.25588867 23.50538086 -16.40508789 22.93239258 -17.58911133 22.34204102 C-18.17829346 22.04015869 -18.76747559 21.73827637 -19.37451172 21.42724609 C-21.18549777 20.50180505 -23.00716594 19.60061574 -24.83129883 18.70141602 C-33.73900573 14.20485782 -33.73900573 14.20485782 -34.8684082 10.81665039 C-31.28598015 8.92620013 -27.6931596 7.05738546 -24.08959961 5.20751953 C-22.86654239 4.5759355 -21.64642422 3.93862467 -20.42944336 3.29541016 C-18.67484421 2.36933187 -16.9084199 1.4657695 -15.1418457 0.56274414 C-14.08400879 0.01287842 -13.02617188 -0.5369873 -11.9362793 -1.10351562 C-7.34174456 -2.72070702 -4.40726322 -1.81819771 0 0 Z " fill="#54AED0" transform="translate(134.868408203125,39.183349609375)"/>
</svg>
