<?xml version="1.0" encoding="UTF-8"?>
<svg version="1.1" xmlns="http://www.w3.org/2000/svg" width="256" height="256">
<path d="M0 0 C1.25165451 -0.00571014 2.50330902 -0.01142029 3.79289246 -0.01730347 C5.17246999 -0.01854869 6.55204764 -0.01967381 7.93162537 -0.02069092 C9.39070765 -0.02532254 10.84978873 -0.03034767 12.30886841 -0.03573608 C16.26792903 -0.0488326 20.22697271 -0.05530017 24.18605161 -0.05974674 C26.66381064 -0.06268311 29.1415651 -0.06678907 31.61932182 -0.07125092 C39.38382621 -0.08492127 47.14832008 -0.09458906 54.91283566 -0.09845281 C63.85248231 -0.10292656 72.79197553 -0.1204446 81.73157555 -0.1494534 C88.65580127 -0.17113595 95.57998404 -0.18116065 102.50424331 -0.18249393 C106.63274699 -0.18353765 110.76110636 -0.18935222 114.88957405 -0.20731354 C118.77941039 -0.22390737 122.66899573 -0.2258955 126.55885506 -0.21717453 C127.9777138 -0.21641005 129.39658666 -0.22066809 130.81541061 -0.23063278 C150.5520866 -0.36099095 165.50901918 5.63463774 179.90208435 19.12481689 C184.09555868 23.46514441 187.20024811 28.19592164 190.09739685 33.45294189 C190.58587097 34.32221313 190.58587097 34.32221313 191.08421326 35.20904541 C196.53005564 45.61788248 197.22785834 56.54199271 197.17308044 68.08184814 C197.17715602 69.54196564 197.18250338 71.00208004 197.18901062 72.46218872 C197.20257302 76.39198896 197.19743192 80.32155033 197.18787336 84.25135422 C197.1802188 88.38569479 197.18733833 92.52001643 197.19203186 96.65435791 C197.19747267 103.5940921 197.19034199 110.53373015 197.17601013 117.47344971 C197.15968683 125.46923178 197.16497653 133.46478428 197.18148935 141.4605608 C197.19515217 148.3552206 197.19700054 155.24981173 197.18917334 162.14448071 C197.18452307 166.24938399 197.18379837 170.35417977 197.19378281 174.45907593 C197.20252045 178.32030989 197.19630819 182.18125106 197.17910004 186.04245377 C197.17517115 187.45001873 197.17620659 188.85760883 197.18288803 190.26516342 C197.26287069 208.84361291 191.90065819 224.56032584 179.06419373 238.12896729 C166.57817914 250.59571333 150.62800502 256.32483667 133.27922058 256.42260742 C131.91416894 256.42031435 130.54911766 256.41780475 129.18406677 256.4151001 C127.72439312 256.41945463 126.26472174 256.42464023 124.80505371 256.43058777 C120.86273187 256.44391074 116.92050629 256.44456385 112.97816634 256.44202447 C109.67583687 256.44094999 106.3735265 256.44585039 103.07120115 256.45062989 C95.27352185 256.46170235 87.47589074 256.46217553 79.6782074 256.45611572 C71.6603443 256.45008014 63.64265688 256.46238156 55.62482375 256.48368579 C48.71749422 256.50135777 41.81022032 256.50729428 34.90286905 256.50404805 C30.78785025 256.50224362 26.67295673 256.50478654 22.5579586 256.51876259 C18.68446895 256.5314275 14.81125107 256.52931594 10.93776512 256.5163517 C9.52535913 256.51400492 8.11293349 256.51665154 6.70055008 256.52497482 C-11.81412317 256.626119 -27.62098898 251.32295508 -41.13331604 238.48345947 C-52.16744395 227.39263969 -59.31228469 212.71834568 -59.35554504 196.92533875 C-59.36125519 195.67368423 -59.36696533 194.42202972 -59.37284851 193.13244629 C-59.37409373 191.75286875 -59.37521886 190.3732911 -59.37623596 188.99371338 C-59.38086759 187.5346311 -59.38589271 186.07555002 -59.39128113 184.61647034 C-59.40437765 180.65740971 -59.41084521 176.69836603 -59.41529179 172.73928714 C-59.41822816 170.26152811 -59.42233412 167.78377364 -59.42679596 165.30601692 C-59.44046632 157.54151254 -59.45013411 149.77701867 -59.45399785 142.01250309 C-59.45847161 133.07285644 -59.47598964 124.13336322 -59.50499845 115.1937632 C-59.526681 108.26953748 -59.5367057 101.34535471 -59.53803897 94.42109543 C-59.5390827 90.29259175 -59.54489726 86.16423239 -59.56285858 82.03576469 C-59.57945241 78.14592835 -59.58144054 74.25634302 -59.57271957 70.36648369 C-59.57195509 68.94762495 -59.57621313 67.52875208 -59.58617783 66.10992813 C-59.7157728 46.48880248 -53.82062708 31.08730477 -40.09010315 16.95294189 C-29.38912636 6.86344949 -14.81472682 0.04058064 0 0 Z " fill="#252A3A" transform="translate(59.21510314941406,-0.14044189453125)"/>
<path d="M0 0 C6 2 6 2 8.25 3.375 C11.5937128 5.35083029 15.05321414 6.60907507 18.6953125 7.9375 C23.05384016 9.94685512 24.59836705 12.87069836 26.5390625 17.15234375 C27.02930908 18.22258789 27.51955566 19.29283203 28.0246582 20.39550781 C28.552771 21.56436523 29.08088379 22.73322266 29.625 23.9375 C30.77419449 26.45326861 31.92834615 28.96675692 33.08203125 31.48046875 C33.54082924 32.48262924 33.54082924 32.48262924 34.00889587 33.5050354 C38.03609758 42.28807834 42.17907066 51.01659899 46.3125 59.75 C48.849375 65.1125 51.38625 70.475 54 76 C54.33 60.16 54.66 44.32 55 28 C59.16413559 28.83282712 61.65536612 29.66079038 65.3125 31.5625 C66.63701172 32.24505859 66.63701172 32.24505859 67.98828125 32.94140625 C68.65214844 33.29074219 69.31601563 33.64007813 70 34 C70 34.66 70 35.32 70 36 C72.97 36.99 75.94 37.98 79 39 C79 70.02 79 101.04 79 133 C74.62085263 131.24834105 70.67299484 129.24852308 66.625 126.875 C65.99078125 126.52179688 65.3565625 126.16859375 64.703125 125.8046875 C55.6427975 120.47943379 50.88941613 112.65531745 46.3125 103.4375 C45.27510164 101.39825327 44.23733003 99.35919639 43.19921875 97.3203125 C42.67376465 96.27907227 42.14831055 95.23783203 41.60693359 94.16503906 C38.99560787 89.0217351 36.30645307 83.91948579 33.625 78.8125 C29.65948338 71.250524 25.8196341 63.6392682 22 56 C21.67 71.18 21.34 86.36 21 102 C19.68 102 18.36 102 17 102 C17 101.34 17 100.68 17 100 C15.515 99.62875 15.515 99.62875 14 99.25 C9.71904804 98.04187859 5.90940785 96.09178706 2 94 C2 93.34 2 92.68 2 92 C1.34 92 0.68 92 0 92 C0 61.64 0 31.28 0 0 Z " fill="#4C76CD" transform="translate(43,85)"/>
<path d="M0 0 C0 13.2 0 26.4 0 40 C-8.353125 44.2075 -8.353125 44.2075 -16.875 48.5 C-18.63183105 49.38751953 -20.38866211 50.27503906 -22.19873047 51.18945312 C-23.58805686 51.88703607 -24.97753234 52.58432223 -26.3671875 53.28125 C-27.09107666 53.64831055 -27.81496582 54.01537109 -28.56079102 54.39355469 C-33.7718564 57 -33.7718564 57 -36 57 C-36 43.8 -36 30.6 -36 17 C-27.646875 12.7925 -27.646875 12.7925 -19.125 8.5 C-17.36816895 7.61248047 -15.61133789 6.72496094 -13.80126953 5.81054688 C-12.41194314 5.11296393 -11.02246766 4.41567777 -9.6328125 3.71875 C-8.54697876 3.16815918 -8.54697876 3.16815918 -7.43920898 2.60644531 C-2.2281436 0 -2.2281436 0 0 0 Z " fill="#4CA8CC" transform="translate(171,107)"/>
<path d="M0 0 C0 13.53 0 27.06 0 41 C-3.526875 42.69125 -7.05375 44.3825 -10.6875 46.125 C-12.3111145 46.90447998 -12.3111145 46.90447998 -13.9675293 47.69970703 C-21.28269647 51.20267117 -28.63389083 54.6002573 -36 58 C-36 44.47 -36 30.94 -36 17 C-32.7 15.68 -29.4 14.36 -26 13 C-24.2248831 12.17141553 -22.46032956 11.31881026 -20.71875 10.421875 C-19.85765625 9.98359375 -18.9965625 9.5453125 -18.109375 9.09375 C-17.24828125 8.6503125 -16.3871875 8.206875 -15.5 7.75 C-13.74145332 6.84531414 -11.98112345 5.9440833 -10.21875 5.046875 C-9.45498047 4.65338867 -8.69121094 4.25990234 -7.90429688 3.85449219 C-6 3 -6 3 -4 3 C-4 2.34 -4 1.68 -4 1 C-2 0 -2 0 0 0 Z " fill="#4CA9CD" transform="translate(171,161)"/>
<path d="M0 0 C0 13.2 0 26.4 0 40 C-3.91875 41.98 -7.8375 43.96 -11.875 46 C-13.10976074 46.62648437 -14.34452148 47.25296875 -15.61669922 47.8984375 C-17.07100342 48.62933594 -17.07100342 48.62933594 -18.5546875 49.375 C-19.54968262 49.87773437 -20.54467773 50.38046875 -21.56982422 50.8984375 C-24 52 -24 52 -26 52 C-26.33 52.99 -26.66 53.98 -27 55 C-28.32 55 -29.64 55 -31 55 C-31.04934926 49.34001954 -31.08569529 43.68016364 -31.10986328 38.02001953 C-31.11993582 36.09356506 -31.13359443 34.16712592 -31.15087891 32.24072266 C-31.17507241 29.47554748 -31.18647036 26.710574 -31.1953125 23.9453125 C-31.20563507 23.0806839 -31.21595764 22.2160553 -31.22659302 21.32522583 C-31.22699106 19.21546479 -31.12265243 17.10619282 -31 15 C-28.79892285 12.79892285 -27.26414715 12.20731209 -24.375 11.125 C-20.98285587 9.81730386 -17.7301656 8.41832729 -14.5 6.75 C-11 5 -11 5 -9 5 C-9 4.34 -9 3.68 -9 3 C-3.375 0 -3.375 0 0 0 Z " fill="#4CA8CB" transform="translate(214,140)"/>
<path d="M0 0 C0 13.2 0 26.4 0 40 C-3.7125 41.794375 -7.425 43.58875 -11.25 45.4375 C-12.4143457 46.00267334 -13.57869141 46.56784668 -14.77832031 47.15014648 C-15.70225586 47.59430908 -16.62619141 48.03847168 -17.578125 48.49609375 C-18.99206543 49.17949829 -18.99206543 49.17949829 -20.43457031 49.87670898 C-22.63855042 50.84173682 -24.65195416 51.51444731 -27 52 C-27 52.66 -27 53.32 -27 54 C-28.98 54.495 -28.98 54.495 -31 55 C-31.19806477 49.39514781 -31.34306251 43.79233864 -31.43945312 38.18481445 C-31.47963662 36.27852903 -31.53419687 34.37248945 -31.60351562 32.46704102 C-31.70080921 29.72350509 -31.74597204 26.98322978 -31.78125 24.23828125 C-31.82254028 23.38913651 -31.86383057 22.53999176 -31.90637207 21.66511536 C-31.90823265 19.20038665 -31.82058987 17.32721866 -31 15 C-28.5945616 12.72379254 -26.00563037 11.34794708 -23 10 C-21.99195313 9.5359375 -20.98390625 9.071875 -19.9453125 8.59375 C-19.01460937 8.2328125 -18.08390625 7.871875 -17.125 7.5 C-12.22935465 5.54049773 -7.54369001 3.34401795 -2.86328125 0.91796875 C-1 0 -1 0 0 0 Z " fill="#4CA8CB" transform="translate(214,86)"/>
<path d="M0 0 C1.55267578 0.90298828 1.55267578 0.90298828 3.13671875 1.82421875 C7.93122504 4.52285666 12.63930383 6.79267191 17.80078125 8.6875 C19.82421875 9.51171875 19.82421875 9.51171875 22.82421875 11.51171875 C22.82421875 12.17171875 22.82421875 12.83171875 22.82421875 13.51171875 C17.36384433 16.95412871 12.05146942 18.85780107 5.82421875 20.51171875 C5.82421875 21.17171875 5.82421875 21.83171875 5.82421875 22.51171875 C4.2195446 23.56421415 2.58894465 24.5772109 0.94921875 25.57421875 C0.04429688 26.14269531 -0.860625 26.71117188 -1.79296875 27.296875 C-7.29855048 29.27405273 -12.24565795 28.67058798 -17.66162109 26.52856445 C-20.13775053 25.31233772 -22.53144029 24.00657671 -24.92578125 22.63671875 C-26.5454206 21.74321342 -28.16520881 20.84997789 -29.78515625 19.95703125 C-30.53603516 19.53583008 -31.28691406 19.11462891 -32.06054688 18.68066406 C-34.72816062 17.20645647 -37.43604214 15.84623684 -40.17578125 14.51171875 C-40.17578125 13.85171875 -40.17578125 13.19171875 -40.17578125 12.51171875 C-36.04325723 10.33379269 -31.89920629 8.1803259 -27.74291992 6.0480957 C-26.33231356 5.32023382 -24.92501226 4.58592774 -23.52124023 3.8449707 C-21.49658329 2.77773749 -19.46096399 1.73464949 -17.421875 0.6953125 C-16.80179062 0.36204453 -16.18170624 0.02877655 -15.54283142 -0.31459045 C-9.84468008 -3.16689352 -5.65989639 -2.65242377 0 0 Z " fill="#4BA5C8" transform="translate(92.17578125,61.48828125)"/>
<path d="M0 0 C0.95068359 0.48404297 1.90136719 0.96808594 2.88085938 1.46679688 C3.85732422 1.97404297 4.83378906 2.48128906 5.83984375 3.00390625 C7.78817623 4.00433207 9.73736686 5.00308876 11.6875 6 C12.54480713 6.44400146 13.40211426 6.88800293 14.28540039 7.34545898 C16.74323732 8.54969554 19.22382027 9.5837983 21.77734375 10.56640625 C20.77734375 13.56640625 20.77734375 13.56640625 18.85473633 14.54760742 C17.61953247 14.98036987 17.61953247 14.98036987 16.359375 15.421875 C12.63712357 16.81233696 9.12187557 18.33526637 5.6015625 20.1796875 C4.75400391 20.62248047 3.90644531 21.06527344 3.03320312 21.52148438 C1.29761309 22.43877341 -0.43408489 23.36345886 -2.16210938 24.29492188 C-3.00322266 24.73126953 -3.84433594 25.16761719 -4.7109375 25.6171875 C-5.45899658 26.01591064 -6.20705566 26.41463379 -6.9777832 26.82543945 C-10.67161622 28.04466547 -13.25835919 26.98612706 -16.73046875 25.47485352 C-17.59414062 25.03197998 -18.4578125 24.58910645 -19.34765625 24.1328125 C-20.3015625 23.64876953 -21.25546875 23.16472656 -22.23828125 22.66601562 C-23.223125 22.15876953 -24.20796875 21.65152344 -25.22265625 21.12890625 C-27.18007595 20.12841882 -29.13838048 19.12966024 -31.09765625 18.1328125 C-31.96132812 17.68881104 -32.825 17.24480957 -33.71484375 16.78735352 C-36.17910683 15.58760861 -38.66586633 14.55126294 -41.22265625 13.56640625 C-40.03135155 9.99249214 -38.63450035 9.29730097 -35.41015625 7.55078125 C-31.48669526 5.7852238 -27.37319708 4.66876317 -23.22265625 3.56640625 C-23.22265625 2.90640625 -23.22265625 2.24640625 -23.22265625 1.56640625 C-21.97530058 0.91548035 -20.72463793 0.27088956 -19.47265625 -0.37109375 C-18.7765625 -0.73074219 -18.08046875 -1.09039062 -17.36328125 -1.4609375 C-11.06021144 -4.3249236 -6.06890872 -3.13099871 0 0 Z " fill="#4BA7CB" transform="translate(139.22265625,85.43359375)"/>
<path d="M0 0 C1.10408203 0.55880859 2.20816406 1.11761719 3.34570312 1.69335938 C6.0458042 3.06094304 8.74292033 4.43407834 11.4375 5.8125 C11.4375 6.4725 11.4375 7.1325 11.4375 7.8125 C-3.6015625 15.33203125 -3.6015625 15.33203125 -6.20361328 16.63012695 C-8.15187588 17.60667796 -10.09261036 18.59823235 -12.03125 19.59375 C-14.56376397 20.81310858 -16.79101115 21.40492811 -19.5625 21.8125 C-19.5625 21.1525 -19.5625 20.4925 -19.5625 19.8125 C-20.366875 19.565 -21.17125 19.3175 -22 19.0625 C-31.22110856 15.82702331 -39.86027468 11.2193168 -48.5625 6.8125 C-48.5625 5.8225 -48.5625 4.8325 -48.5625 3.8125 C-41.74130719 -0.19462657 -35.25720323 -3.28468835 -27.5625 -5.1875 C-27.5625 -5.8475 -27.5625 -6.5075 -27.5625 -7.1875 C-18.29113041 -11.70432108 -8.27640771 -4.23548532 0 0 Z " fill="#4AA4C7" transform="translate(193.5625,68.1875)"/>
<path d="M0 0 C3.8058963 1.76573577 7.56246865 3.61890845 11.3125 5.5 C12.83327148 6.24830078 12.83327148 6.24830078 14.38476562 7.01171875 C15.34705078 7.49253906 16.30933594 7.97335938 17.30078125 8.46875 C18.17903564 8.90638672 19.05729004 9.34402344 19.9621582 9.79492188 C22 11 22 11 23 13 C16.25 17 16.25 17 14 17 C14 17.66 14 18.32 14 19 C12.58521865 19.64995297 11.16808513 20.29478722 9.75 20.9375 C8.96109375 21.29714844 8.1721875 21.65679687 7.359375 22.02734375 C5 23 5 23 2.765625 23.44140625 C2.18296875 23.62574219 1.6003125 23.81007813 1 24 C0.505 25.485 0.505 25.485 0 27 C-4.74207119 28.54078517 -7.21859794 27.32962743 -11.578125 25.140625 C-12.19016785 24.83558044 -12.80221069 24.53053589 -13.43280029 24.21624756 C-14.72031791 23.57049429 -16.00439979 22.91785036 -17.28515625 22.25878906 C-19.24909432 21.250465 -21.22464081 20.26848094 -23.203125 19.2890625 C-32.86199002 14.41402993 -32.86199002 14.41402993 -34 11 C-26.80243266 7.30787612 -19.66557866 3.68275236 -12.0859375 0.82421875 C-9.96301356 0.06475326 -9.96301356 0.06475326 -8.1015625 -1.23046875 C-4.81607212 -2.43352006 -3.21706181 -1.36679688 0 0 Z " fill="#4BA5C9" transform="translate(134,39)"/>
</svg>
