<?xml version="1.0" encoding="UTF-8"?>
<svg version="1.1" xmlns="http://www.w3.org/2000/svg" width="256" height="256">
<path d="M0 0 C1.25165451 -0.00571014 2.50330902 -0.01142029 3.79289246 -0.01730347 C5.17246999 -0.01854869 6.55204764 -0.01967381 7.93162537 -0.02069092 C9.39070765 -0.02532254 10.84978873 -0.03034767 12.30886841 -0.03573608 C16.26792903 -0.0488326 20.22697271 -0.05530017 24.18605161 -0.05974674 C26.66381064 -0.06268311 29.1415651 -0.06678907 31.61932182 -0.07125092 C39.38382621 -0.08492127 47.14832008 -0.09458906 54.91283566 -0.09845281 C63.85248231 -0.10292656 72.79197553 -0.1204446 81.73157555 -0.1494534 C88.65580127 -0.17113595 95.57998404 -0.18116065 102.50424331 -0.18249393 C106.63274699 -0.18353765 110.76110636 -0.18935222 114.88957405 -0.20731354 C118.77941039 -0.22390737 122.66899573 -0.2258955 126.55885506 -0.21717453 C127.9777138 -0.21641005 129.39658666 -0.22066809 130.81541061 -0.23063278 C150.5520866 -0.36099095 165.50901918 5.63463774 179.90208435 19.12481689 C184.09555868 23.46514441 187.20024811 28.19592164 190.09739685 33.45294189 C190.58587097 34.32221313 190.58587097 34.32221313 191.08421326 35.20904541 C196.53005564 45.61788248 197.22785834 56.54199271 197.17308044 68.08184814 C197.17715602 69.54196564 197.18250338 71.00208004 197.18901062 72.46218872 C197.20257302 76.39198896 197.19743192 80.32155033 197.18787336 84.25135422 C197.1802188 88.38569479 197.18733833 92.52001643 197.19203186 96.65435791 C197.19747267 103.5940921 197.19034199 110.53373015 197.17601013 117.47344971 C197.15968683 125.46923178 197.16497653 133.46478428 197.18148935 141.4605608 C197.19515217 148.3552206 197.19700054 155.24981173 197.18917334 162.14448071 C197.18452307 166.24938399 197.18379837 170.35417977 197.19378281 174.45907593 C197.20252045 178.32030989 197.19630819 182.18125106 197.17910004 186.04245377 C197.17517115 187.45001873 197.17620659 188.85760883 197.18288803 190.26516342 C197.26287069 208.84361291 191.90065819 224.56032584 179.06419373 238.12896729 C166.57817914 250.59571333 150.62800502 256.32483667 133.27922058 256.42260742 C131.91416894 256.42031435 130.54911766 256.41780475 129.18406677 256.4151001 C127.72439312 256.41945463 126.26472174 256.42464023 124.80505371 256.43058777 C120.86273187 256.44391074 116.92050629 256.44456385 112.97816634 256.44202447 C109.67583687 256.44094999 106.3735265 256.44585039 103.07120115 256.45062989 C95.27352185 256.46170235 87.47589074 256.46217553 79.6782074 256.45611572 C71.6603443 256.45008014 63.64265688 256.46238156 55.62482375 256.48368579 C48.71749422 256.50135777 41.81022032 256.50729428 34.90286905 256.50404805 C30.78785025 256.50224362 26.67295673 256.50478654 22.5579586 256.51876259 C18.68446895 256.5314275 14.81125107 256.52931594 10.93776512 256.5163517 C9.52535913 256.51400492 8.11293349 256.51665154 6.70055008 256.52497482 C-11.81412317 256.626119 -27.62098898 251.32295508 -41.13331604 238.48345947 C-52.16744395 227.39263969 -59.31228469 212.71834568 -59.35554504 196.92533875 C-59.36125519 195.67368423 -59.36696533 194.42202972 -59.37284851 193.13244629 C-59.37409373 191.75286875 -59.37521886 190.3732911 -59.37623596 188.99371338 C-59.38086759 187.5346311 -59.38589271 186.07555002 -59.39128113 184.61647034 C-59.40437765 180.65740971 -59.41084521 176.69836603 -59.41529179 172.73928714 C-59.41822816 170.26152811 -59.42233412 167.78377364 -59.42679596 165.30601692 C-59.44046632 157.54151254 -59.45013411 149.77701867 -59.45399785 142.01250309 C-59.45847161 133.07285644 -59.47598964 124.13336322 -59.50499845 115.1937632 C-59.526681 108.26953748 -59.5367057 101.34535471 -59.53803897 94.42109543 C-59.5390827 90.29259175 -59.54489726 86.16423239 -59.56285858 82.03576469 C-59.57945241 78.14592835 -59.58144054 74.25634302 -59.57271957 70.36648369 C-59.57195509 68.94762495 -59.57621313 67.52875208 -59.58617783 66.10992813 C-59.7157728 46.48880248 -53.82062708 31.08730477 -40.09010315 16.95294189 C-29.38912636 6.86344949 -14.81472682 0.04058064 0 0 Z " fill="#252939" transform="translate(59.21510314941406,-0.14044189453125)"/>
<path d="M0 0 C1.23140213 -0.0087616 2.46280426 -0.01752319 3.73152161 -0.02655029 C7.10182983 -0.04477009 10.4706006 -0.0405248 13.84082222 -0.02465487 C17.37123777 -0.01197583 20.90158864 -0.02374151 24.43200684 -0.03158569 C30.3602271 -0.04067651 36.28813568 -0.02870959 42.21630859 -0.00488281 C49.06539242 0.02232783 55.91373203 0.01351324 62.76279783 -0.01401484 C68.64834309 -0.03672143 74.5336646 -0.03989856 80.41923952 -0.02682149 C83.93222022 -0.01903532 87.44485135 -0.01796188 90.95780945 -0.03450394 C94.87450987 -0.05165963 98.79037999 -0.02786752 102.70703125 0 C103.86874344 -0.01012115 105.03045563 -0.02024231 106.22737122 -0.03067017 C107.82973885 -0.00952148 107.82973885 -0.00952148 109.46447754 0.01205444 C110.85263546 0.01488214 110.85263546 0.01488214 112.26883698 0.01776695 C116.02667579 0.93256292 117.52039337 2.6118978 119.85351562 5.64697266 C120.47434139 8.671731 120.47434139 8.671731 120.46824646 12.10572815 C120.4780101 13.41101471 120.48777374 14.71630127 120.49783325 16.06114197 C120.48332854 17.50064578 120.46832781 18.94014466 120.45288086 20.37963867 C120.45474538 21.90096436 120.45878302 23.4222887 120.46482849 24.94360352 C120.47480101 29.0697398 120.45363747 33.19518885 120.42634845 37.3212254 C120.40251257 41.63950601 120.40546335 45.95777312 120.40504456 50.27610779 C120.40041709 57.52671946 120.3767784 64.77706848 120.34057617 72.02758789 C120.29882728 80.4113203 120.28126036 88.79481623 120.27795643 97.17864662 C120.27435725 106.10399958 120.25548388 115.0292674 120.23083615 123.95458484 C120.22460692 126.52689381 120.220971 129.0991963 120.21780205 131.6715107 C120.21190202 135.71234871 120.1955905 139.75301772 120.17119789 143.7937851 C120.16375664 145.27726116 120.15968588 146.7607585 120.15921783 148.24425316 C120.15796034 150.26792931 120.14316845 152.29158361 120.12767029 154.31520081 C120.12301978 155.44804284 120.11836927 156.58088488 120.11357784 157.74805546 C119.85239343 160.65948182 119.5422096 162.27834564 117.85351562 164.64697266 C114.82460965 166.72173968 112.27735244 166.90110084 108.66065979 166.91439819 C107.08559662 166.92719315 107.08559662 166.92719315 105.47871399 166.94024658 C103.75880501 166.93888702 103.75880501 166.93888702 102.00415039 166.9375 C100.18652695 166.94757584 100.18652695 166.94757584 98.33218384 166.95785522 C95.01186626 166.97359823 91.69179881 166.98021019 88.37146115 166.9814868 C86.29627935 166.98290923 84.22112371 166.98718051 82.14594841 166.99248123 C74.90416679 167.01097765 67.66245876 167.01915219 60.4206543 167.01757812 C53.67339056 167.01637628 46.92644648 167.03748781 40.17926365 167.06906545 C34.3829592 167.09522488 28.58675918 167.1059456 22.79039615 167.10466731 C19.32994814 167.10415764 15.86978436 167.10984313 12.40939522 167.13102341 C8.55022836 167.15400043 4.69149953 167.14488689 0.83227539 167.1328125 C-0.31230637 167.14405151 -1.45688812 167.15529053 -2.63615417 167.16687012 C-10.38028749 167.10516653 -10.38028749 167.10516653 -14.33265686 164.74160767 C-17.11527047 161.52820405 -17.27422285 159.73405678 -17.27929688 155.56103516 C-17.28058594 154.54783203 -17.281875 153.53462891 -17.28320312 152.49072266 C-17.27933594 151.42853516 -17.27546875 150.36634766 -17.27148438 149.27197266 C-17.27728516 147.69029297 -17.27728516 147.69029297 -17.28320312 146.07666016 C-17.28191406 145.06087891 -17.280625 144.04509766 -17.27929688 142.99853516 C-17.27816895 142.0686377 -17.27704102 141.13874023 -17.27587891 140.18066406 C-17.15656058 137.8442762 -16.74699106 135.8951752 -16.14648438 133.64697266 C-15.25778656 133.64150421 -15.25778656 133.64150421 -14.35113525 133.63592529 C-8.18649014 133.59412558 -2.02259132 133.52479807 4.14160156 133.43945312 C6.4423069 133.41122162 8.74310962 133.390018 11.04394531 133.37597656 C14.35076841 133.35457779 17.65641789 133.30794158 20.96289062 133.25634766 C21.99218689 133.25511902 23.02148315 133.25389038 24.08197021 133.25262451 C25.04266418 133.23290588 26.00335815 133.21318726 26.99316406 133.19287109 C27.83699646 133.18398865 28.68082886 133.1751062 29.55023193 133.16595459 C32.8351057 132.4257982 33.92847696 131.41296251 35.85351562 128.64697266 C36.24811688 125.7577821 36.40094009 123.24989511 36.37109375 120.36181641 C36.37810303 119.5288504 36.3851123 118.6958844 36.39233398 117.837677 C36.40992882 115.08626904 36.39828622 112.33589094 36.38476562 109.58447266 C36.38746012 107.67162885 36.39134218 105.75878638 36.3963623 103.84594727 C36.40225936 99.83775792 36.3936877 95.82992522 36.375 91.82177734 C36.35221034 86.68332023 36.36533231 81.54569879 36.38928986 76.40727234 C36.40374221 72.45757752 36.39914442 68.50808091 36.38877869 64.55838013 C36.38610984 62.66374615 36.38938669 60.76909419 36.3986969 58.8744812 C36.40885328 56.22654538 36.39337486 53.57996382 36.37109375 50.93212891 C36.37919067 50.14863068 36.3872876 49.36513245 36.39562988 48.55789185 C36.34062281 45.03031763 36.12030698 43.01108557 34.00866699 40.12915039 C31.87747887 38.3636419 31.87747887 38.3636419 28.85351562 38.64697266 C29.50284058 39.14588516 30.15216553 39.64479767 30.82116699 40.15882874 C33.54743292 43.49651494 33.41651746 46.33295505 33.37109375 50.45727539 C33.37810303 51.23986725 33.3851123 52.02245911 33.39233398 52.82876587 C33.40992402 55.41306148 33.3982871 57.99625985 33.38476562 60.58056641 C33.38746054 62.37891347 33.39134295 64.17725912 33.3963623 65.9756012 C33.40225893 69.74421057 33.39369024 73.5124406 33.375 77.28100586 C33.35222661 82.10774456 33.36532203 86.93359281 33.38928986 91.76029873 C33.40375748 95.47413314 33.39913717 99.18775716 33.38877869 102.90159798 C33.38611321 104.68097095 33.38937488 106.46036312 33.3986969 108.23971367 C33.40887675 110.72941392 33.39334196 113.21768161 33.37109375 115.70727539 C33.37919067 116.44042465 33.3872876 117.17357391 33.39562988 117.92893982 C33.33977224 121.30952434 32.88328636 123.58952407 31.32177734 126.60276794 C27.94953139 129.39564887 25.03656147 129.35011887 20.84375 129.29394531 C20.04004471 129.30270691 19.23633942 129.31146851 18.40827942 129.32049561 C15.75405746 129.34248585 13.10150423 129.32793918 10.44726562 129.31103516 C8.60168132 129.31440342 6.75609917 129.31925613 4.91052246 129.32553101 C1.04348623 129.3329018 -2.82297235 129.32219035 -6.68994141 129.29882812 C-11.64697497 129.27034001 -16.60265508 129.28674291 -21.55963898 129.31669044 C-25.37040405 129.33475797 -29.18084819 129.32900795 -32.99162292 129.31605148 C-34.81927144 129.31271595 -36.6469491 129.31680974 -38.4745636 129.32844925 C-41.0294003 129.34114939 -43.58204535 129.3217951 -46.13671875 129.29394531 C-46.89216476 129.30406647 -47.64761078 129.31418762 -48.4259491 129.32461548 C-52.00017144 129.25242824 -53.83278532 128.90700753 -56.61375427 126.60177612 C-58.52615946 122.91503345 -58.71613604 119.7818085 -58.67993164 115.72314453 C-58.692855 114.5490377 -58.692855 114.5490377 -58.70603943 113.35121155 C-58.72868116 110.77237572 -58.72196473 108.19462808 -58.71289062 105.61572266 C-58.71812674 103.81880369 -58.72440318 102.02188747 -58.73167419 100.22497559 C-58.74207483 96.46235198 -58.73752142 92.70010665 -58.72290039 88.9375 C-58.70570604 84.11850329 -58.7292171 79.30069818 -58.76438999 74.48183441 C-58.78636131 70.77227902 -58.78492332 67.06300894 -58.77662468 63.35340881 C-58.77580514 61.5768147 -58.78266904 59.80019965 -58.79739571 58.02366638 C-58.81483912 55.53863469 -58.80030372 53.05574665 -58.77758789 50.57080078 C-58.78928009 49.83922256 -58.80097229 49.10764435 -58.8130188 48.35389709 C-58.74135697 44.49616398 -58.24159205 42.76949949 -55.84906006 39.68721008 C-52.22017532 36.94768034 -49.14636716 37.01085745 -44.78320312 37.15869141 C-43.99122025 37.16576614 -43.19923737 37.17284088 -42.383255 37.18013 C-39.86585049 37.20801022 -37.35071081 37.27073066 -34.83398438 37.33447266 C-33.12242807 37.35956404 -31.41083673 37.38237575 -29.69921875 37.40283203 C-25.51410783 37.45781519 -21.33067942 37.54403848 -17.14648438 37.64697266 C-17.17266846 36.70378174 -17.19885254 35.76059082 -17.22583008 34.78881836 C-17.31125359 31.27564121 -17.37382736 27.76357358 -17.42114258 24.24975586 C-17.44622547 22.73167464 -17.48030097 21.21371348 -17.52368164 19.69604492 C-17.58461731 17.508813 -17.61275333 15.32318226 -17.63476562 13.13525391 C-17.66094971 11.82081299 -17.68713379 10.50637207 -17.71411133 9.15209961 C-17.14648438 5.64697266 -17.14648438 5.64697266 -15.37016296 2.96833801 C-10.46348091 -0.56495522 -5.90605888 -0.0514552 0 0 Z " fill="#C963E9" transform="translate(97.146484375,45.35302734375)"/>
<path d="M0 0 C0.33 0 0.66 0 1 0 C1 9.24 1 18.48 1 28 C4.69574219 27.95359375 8.39148438 27.9071875 12.19921875 27.859375 C15.78017809 27.8281765 19.36112226 27.80389024 22.94213867 27.78027344 C25.43016338 27.76016295 27.91814086 27.73287073 30.40600586 27.69824219 C33.98302875 27.64970147 37.55942651 27.62702505 41.13671875 27.609375 C42.80416389 27.57840729 42.80416389 27.57840729 44.5052948 27.54681396 C46.06634697 27.54636078 46.06634697 27.54636078 47.65893555 27.54589844 C48.5716069 27.53701599 49.48427826 27.52813354 50.42460632 27.51898193 C54.06029613 28.19803636 55.56308443 29.20061885 58 32 C58.74473194 35.01248836 58.70375629 37.95670218 58.67871094 41.04785156 C58.69068512 41.96217453 58.7026593 42.8764975 58.71499634 43.81852722 C58.74721241 46.8429891 58.74235896 49.86602021 58.734375 52.890625 C58.74282353 54.99567155 58.75246366 57.10071362 58.76324463 59.20574951 C58.7796498 63.6208946 58.77691414 68.03553849 58.76171875 72.45068359 C58.74446418 78.09810519 58.78151165 83.74366213 58.83398056 89.39081192 C58.86713252 93.74047172 58.86765019 98.08968654 58.85883331 102.4394455 C58.85919249 104.52059732 58.87044071 106.60177765 58.89293671 108.68280792 C58.92028799 111.60125071 58.90270127 114.51621044 58.87402344 117.43457031 C58.89133514 118.28784409 58.90864685 119.14111786 58.92648315 120.02024841 C58.79907508 126.10434585 56.8835587 129.12497573 52.69583511 133.48862839 C49.87012686 136.00697183 48.05994842 136.12319358 44.36669922 136.11352539 C43.40585419 136.11344986 42.44500916 136.11337433 41.45504761 136.11329651 C40.41542877 136.10813522 39.37580994 136.10297394 38.3046875 136.09765625 C37.24210724 136.0962413 36.17952698 136.09482635 35.08474731 136.09336853 C31.68146991 136.08775834 28.27825762 136.07520409 24.875 136.0625 C22.57161553 136.05748631 20.26823003 136.05292318 17.96484375 136.04882812 C12.30987064 136.03778559 6.65494637 136.02051409 1 136 C1 142.27 1 148.54 1 155 C0.67 155 0.34 155 0 155 C-0.02905924 151.2500163 -0.04681874 147.50006163 -0.0625 143.75 C-0.07087891 142.68652344 -0.07925781 141.62304688 -0.08789062 140.52734375 C-0.09111328 139.50253906 -0.09433594 138.47773438 -0.09765625 137.421875 C-0.10289307 136.47924805 -0.10812988 135.53662109 -0.11352539 134.56542969 C-0.00917147 132.20725547 0.39270108 130.26661259 1 128 C1.88869781 127.99453156 1.88869781 127.99453156 2.79534912 127.98895264 C8.95999423 127.94715293 15.12389306 127.87782542 21.28808594 127.79248047 C23.58879127 127.76424896 25.88959399 127.74304534 28.19042969 127.72900391 C31.49725279 127.70760514 34.80290226 127.66096892 38.109375 127.609375 C39.13867126 127.60814636 40.16796753 127.60691772 41.22845459 127.60565186 C42.18914856 127.58593323 43.14984253 127.5662146 44.13964844 127.54589844 C44.98348083 127.53701599 45.82731323 127.52813354 46.69671631 127.51898193 C49.98159008 126.77882554 51.07496133 125.76598985 53 123 C53.39460126 120.11080944 53.54742446 117.60292245 53.51757812 114.71484375 C53.5245874 113.88187775 53.53159668 113.04891174 53.53881836 112.19070435 C53.55641319 109.43929639 53.54477059 106.68891829 53.53125 103.9375 C53.53394449 102.0246562 53.53782656 100.11181372 53.54284668 98.19897461 C53.54874374 94.19078526 53.54017208 90.18295257 53.52148438 86.17480469 C53.49869472 81.03634758 53.51181669 75.89872613 53.53577423 70.76029968 C53.55022659 66.81060486 53.5456288 62.86110825 53.53526306 58.91140747 C53.53259422 57.01677349 53.53587106 55.12212153 53.54518127 53.22750854 C53.55533765 50.57957272 53.53985924 47.93299116 53.51757812 45.28515625 C53.52567505 44.50165802 53.53377197 43.71815979 53.54211426 42.91091919 C53.48710718 39.38334498 53.26679135 37.36411291 51.15515137 34.48217773 C49.02396325 32.71666924 49.02396325 32.71666924 46 33 C46.64932495 33.49891251 47.2986499 33.99782501 47.96765137 34.51185608 C50.69391729 37.84954228 50.56300184 40.68598239 50.51757812 44.81030273 C50.5245874 45.59289459 50.53159668 46.37548645 50.53881836 47.18179321 C50.55640839 49.76608883 50.54477147 52.34928719 50.53125 54.93359375 C50.53394491 56.73194082 50.53782732 58.53028646 50.54284668 60.32862854 C50.5487433 64.09723791 50.54017462 67.86546794 50.52148438 71.6340332 C50.49871098 76.4607719 50.51180641 81.28662015 50.53577423 86.11332607 C50.55024185 89.82716049 50.54562154 93.5407845 50.53526306 97.25462532 C50.53259758 99.03399829 50.53585926 100.81339046 50.54518127 102.59274101 C50.55536112 105.08244127 50.53982633 107.57070895 50.51757812 110.06030273 C50.52567505 110.793452 50.53377197 111.52660126 50.54211426 112.28196716 C50.48625661 115.66255169 50.02977074 117.94255141 48.46826172 120.95579529 C45.09601577 123.74867621 42.18304584 123.70314622 37.99023438 123.64697266 C36.78467644 123.66011505 36.78467644 123.66011505 35.55476379 123.67352295 C32.90054183 123.69551319 30.24798861 123.68096652 27.59375 123.6640625 C25.74816569 123.66743077 23.90258355 123.67228347 22.05700684 123.67855835 C18.1899706 123.68592914 14.32351203 123.6752177 10.45654297 123.65185547 C5.49950941 123.62336735 0.54382929 123.63977025 -4.4131546 123.66971779 C-8.22391967 123.68778531 -12.03436382 123.68203529 -15.84513855 123.66907883 C-17.67278707 123.66574329 -19.50046472 123.66983708 -21.32807922 123.68147659 C-23.88291592 123.69417673 -26.43556098 123.67482244 -28.99023438 123.64697266 C-29.74568039 123.65709381 -30.5011264 123.66721497 -31.27946472 123.67764282 C-34.85368706 123.60545558 -36.68630095 123.26003487 -39.4672699 120.95480347 C-41.37967508 117.26806079 -41.56965166 114.13483584 -41.53344727 110.07617188 C-41.54637062 108.90206505 -41.54637062 108.90206505 -41.55955505 107.70423889 C-41.58219678 105.12540307 -41.57548035 102.54765543 -41.56640625 99.96875 C-41.57164237 98.17183103 -41.5779188 96.37491482 -41.58518982 94.57800293 C-41.59559046 90.81537932 -41.59103705 87.05313399 -41.57641602 83.29052734 C-41.55922166 78.47153064 -41.58273272 73.65372552 -41.61790562 68.83486176 C-41.63987694 65.12530637 -41.63843895 61.41603629 -41.6301403 57.70643616 C-41.62932077 55.92984204 -41.63618467 54.15322699 -41.65091133 52.37669373 C-41.66835474 49.89166203 -41.65381935 47.40877399 -41.63110352 44.92382812 C-41.64279572 44.19224991 -41.65448792 43.46067169 -41.66653442 42.70692444 C-41.5948726 38.84919133 -41.09510767 37.12252684 -38.70257568 34.04023743 C-35.07369094 31.30070768 -31.99988278 31.3638848 -27.63671875 31.51171875 C-26.84473587 31.51879349 -26.05275299 31.52586823 -25.23677063 31.53315735 C-22.71936611 31.56103756 -20.20422644 31.623758 -17.6875 31.6875 C-15.9759437 31.71259139 -14.26435235 31.73540309 -12.55273438 31.75585938 C-8.36692574 31.80658415 -4.18598225 31.90442963 0 32 C0 21.44 0 10.88 0 0 Z " fill="#771BA9" transform="translate(80,51)"/>
<path d="M0 0 C13.53 0 27.06 0 41 0 C41.08021762 19.05614097 41.08021762 19.05614097 41.09765625 27.17578125 C41.10961424 32.71732409 41.12376442 38.25880086 41.15087891 43.80029297 C41.17260121 48.26769485 41.18456736 52.73502589 41.18975449 57.2024765 C41.19345134 58.90732692 41.20067031 60.61217343 41.21146011 62.31699371 C41.22596692 64.70392756 41.22797829 67.09056826 41.22705078 69.47753906 C41.23424133 70.18316483 41.24143188 70.88879059 41.24884033 71.61579895 C41.23370274 75.21330704 41.19533697 78.06027059 39 81 C27.3571672 86.8214164 13.01708279 83 0 83 C0 55.61 0 28.22 0 0 Z " fill="#7619A9" transform="translate(176,129)"/>
<path d="M0 0 C13.86 0 27.72 0 42 0 C42 13.86 42 27.72 42 42 C28.47 42 14.94 42 1 42 C1 69.39 1 96.78 1 125 C-28.7 125 -58.4 125 -89 125 C-89 124.67 -89 124.34 -89 124 C-59.63 124 -30.26 124 0 124 C0 83.08 0 42.16 0 0 Z " fill="#AE4BD4" transform="translate(175,87)"/>
<path d="M0 0 C13.53 0 27.06 0 41 0 C41 13.53 41 27.06 41 41 C27.47 41 13.94 41 0 41 C0 27.47 0 13.94 0 0 Z " fill="#9231BE" transform="translate(176,129)"/>
<path d="M0 0 C3.63 0 7.26 0 11 0 C13.48609036 2.6963235 14.58392636 4.29895361 16.0625 7.5 C16.87077602 9.05230616 17.68206027 10.60304906 18.49609375 12.15234375 C18.90069824 12.95140137 19.30530273 13.75045898 19.72216797 14.57373047 C21.80964876 18.53731168 24.21682678 22.28841441 26.625 26.0625 C28.06875 28.351875 29.5125 30.64125 31 33 C31.33 22.11 31.66 11.22 32 0 C34.97 0 37.94 0 41 0 C41 16.17 41 32.34 41 49 C31 49 31 49 28.69067383 47.1550293 C28.20107178 46.30336182 27.71146973 45.45169434 27.20703125 44.57421875 C26.3552832 43.15979492 26.3552832 43.15979492 25.48632812 41.71679688 C24.93396484 40.71712891 24.38160156 39.71746094 23.8125 38.6875 C23.24853516 37.73037109 22.68457031 36.77324219 22.10351562 35.78710938 C21.02549448 33.95755349 19.9625166 32.11897109 18.92114258 30.26831055 C16.07867986 25.43262006 13.01145982 20.732294 10 16 C9.67 27.22 9.34 38.44 9 50 C6.03 50 3.06 50 0 50 C0 33.5 0 17 0 0 Z " fill="#FAF7FC" transform="translate(64,104)"/>
<path d="M0 0 C7.31392566 -0.1014521 14.62766974 -0.17148763 21.94213867 -0.21972656 C24.43016338 -0.23983705 26.91814086 -0.26712927 29.40600586 -0.30175781 C32.98302875 -0.35029853 36.55942651 -0.37297495 40.13671875 -0.390625 C41.80416389 -0.42159271 41.80416389 -0.42159271 43.5052948 -0.45318604 C45.06634697 -0.45363922 45.06634697 -0.45363922 46.65893555 -0.45410156 C48.02794258 -0.46742523 48.02794258 -0.46742523 49.42460632 -0.48101807 C53.06029613 0.19803636 54.56308443 1.20061885 57 4 C57.74473194 7.01248836 57.70375629 9.95670218 57.67871094 13.04785156 C57.69068512 13.96217453 57.7026593 14.8764975 57.71499634 15.81852722 C57.74721241 18.8429891 57.74235896 21.86602021 57.734375 24.890625 C57.74282353 26.99567155 57.75246366 29.10071362 57.76324463 31.20574951 C57.7796498 35.6208946 57.77691414 40.03553849 57.76171875 44.45068359 C57.74446418 50.09810519 57.78151165 55.74366213 57.83398056 61.39081192 C57.86713252 65.74047172 57.86765019 70.08968654 57.85883331 74.4394455 C57.85919249 76.52059732 57.87044071 78.60177765 57.89293671 80.68280792 C57.92028799 83.60125071 57.90270127 86.51621044 57.87402344 89.43457031 C57.89133514 90.28784409 57.90864685 91.14111786 57.92648315 92.02024841 C57.79907508 98.10434585 55.8835587 101.12497573 51.69583511 105.48862839 C48.87012686 108.00697183 47.05994842 108.12319358 43.36669922 108.11352539 C42.40585419 108.11344986 41.44500916 108.11337433 40.45504761 108.11329651 C39.41542877 108.10813522 38.37580994 108.10297394 37.3046875 108.09765625 C36.24210724 108.0962413 35.17952698 108.09482635 34.08474731 108.09336853 C30.68146991 108.08775834 27.27825762 108.07520409 23.875 108.0625 C21.57161553 108.05748631 19.26823003 108.05292318 16.96484375 108.04882812 C11.30987064 108.03778559 5.65494637 108.02051409 0 108 C0 114.27 0 120.54 0 127 C-0.33 127 -0.66 127 -1 127 C-1.02905924 123.2500163 -1.04681874 119.50006163 -1.0625 115.75 C-1.07087891 114.68652344 -1.07925781 113.62304688 -1.08789062 112.52734375 C-1.09111328 111.50253906 -1.09433594 110.47773438 -1.09765625 109.421875 C-1.10289307 108.47924805 -1.10812988 107.53662109 -1.11352539 106.56542969 C-1.00917147 104.20725547 -0.60729892 102.26661259 0 100 C0.88869781 99.99453156 0.88869781 99.99453156 1.79534912 99.98895264 C7.95999423 99.94715293 14.12389306 99.87782542 20.28808594 99.79248047 C22.58879127 99.76424896 24.88959399 99.74304534 27.19042969 99.72900391 C30.49725279 99.70760514 33.80290226 99.66096892 37.109375 99.609375 C38.13867126 99.60814636 39.16796753 99.60691772 40.22845459 99.60565186 C41.18914856 99.58593323 42.14984253 99.5662146 43.13964844 99.54589844 C43.98348083 99.53701599 44.82731323 99.52813354 45.69671631 99.51898193 C48.98159008 98.77882554 50.07496133 97.76598985 52 95 C52.39460126 92.11080944 52.54742446 89.60292245 52.51757812 86.71484375 C52.5245874 85.88187775 52.53159668 85.04891174 52.53881836 84.19070435 C52.55641319 81.43929639 52.54477059 78.68891829 52.53125 75.9375 C52.53394449 74.0246562 52.53782656 72.11181372 52.54284668 70.19897461 C52.54874374 66.19078526 52.54017208 62.18295257 52.52148438 58.17480469 C52.49869472 53.03634758 52.51181669 47.89872613 52.53577423 42.76029968 C52.55022659 38.81060486 52.5456288 34.86110825 52.53526306 30.91140747 C52.53259422 29.01677349 52.53587106 27.12212153 52.54518127 25.22750854 C52.55533765 22.57957272 52.53985924 19.93299116 52.51757812 17.28515625 C52.52567505 16.50165802 52.53377197 15.71815979 52.54211426 14.91091919 C52.48847404 11.47100094 52.25877371 9.37181874 50.27142334 6.51629639 C47.6485383 4.76538054 46.27083235 4.48706139 43.13964844 4.45410156 C41.69860748 4.42452362 41.69860748 4.42452362 40.22845459 4.39434814 C39.19915833 4.39311951 38.16986206 4.39189087 37.109375 4.390625 C36.04962463 4.37408875 34.98987427 4.35755249 33.89801025 4.34051514 C30.51528169 4.29195445 27.13300295 4.27064563 23.75 4.25 C21.45570644 4.22184717 19.1614339 4.19192072 16.8671875 4.16015625 C11.24487355 4.08619345 5.62268653 4.03459821 0 4 C0 2.68 0 1.36 0 0 Z " fill="#9E4EB6" transform="translate(81,79)"/>
<path d="M0 0 C5.43480721 0.48309397 5.43480721 0.48309397 7.67297363 2.53004456 C9.55959565 6.04155904 9.4345001 9.37960591 9.41992188 13.26928711 C9.42839142 14.10064682 9.43686096 14.93200653 9.44558716 15.78855896 C9.46897399 18.53497644 9.46997894 21.28083425 9.46875 24.02734375 C9.47585047 25.9377922 9.4835493 27.84823851 9.49182129 29.75868225 C9.5052699 33.76260303 9.50683311 37.76632662 9.50097656 41.77026367 C9.49507956 46.89974184 9.52567022 52.02827381 9.56609344 57.15756893 C9.59195011 61.10300285 9.59484972 65.04820832 9.59120178 68.99371529 C9.59289488 70.88475485 9.60255566 72.77580476 9.62034607 74.6667614 C9.64249653 77.31225689 9.63285487 79.95582913 9.61523438 82.60131836 C9.62849762 83.38122131 9.64176086 84.16112427 9.65542603 84.96466064 C9.59478367 88.88551863 9.13878055 90.81375512 6.77241516 93.98944092 C3.80810623 96.13916161 2.61818005 96.61501557 -0.97387695 96.56762695 C-1.93449539 96.5672493 -2.89511383 96.56687164 -3.88484192 96.56648254 C-4.9089769 96.54067612 -5.93311188 96.51486969 -6.98828125 96.48828125 C-8.57578438 96.47766914 -8.57578438 96.47766914 -10.19535828 96.46684265 C-13.56846437 96.43890219 -16.93989746 96.37616121 -20.3125 96.3125 C-22.60218953 96.28741682 -24.89190514 96.26460369 -27.18164062 96.24414062 C-32.78832915 96.18907681 -38.39404504 96.1054533 -44 96 C-44.33 97.32 -44.66 98.64 -45 100 C-45 98.35 -45 96.7 -45 95 C-44.1455555 94.99120064 -44.1455555 94.99120064 -43.27384949 94.98222351 C-37.35272804 94.91836036 -31.43215371 94.83395962 -25.51147461 94.73754883 C-23.30093594 94.70426492 -21.09031157 94.67624388 -18.87963867 94.65356445 C-15.70454334 94.62008241 -12.53023583 94.56776948 -9.35546875 94.51171875 C-7.86940376 94.50213387 -7.86940376 94.50213387 -6.35331726 94.49235535 C-5.43258926 94.47256119 -4.51186127 94.45276703 -3.56323242 94.43237305 C-2.7527092 94.42126999 -1.94218597 94.41016693 -1.10710144 94.39872742 C1.02345181 94.11587025 1.02345181 94.11587025 2.75994873 92.98271179 C4.74112666 89.81501628 4.42481736 86.46759617 4.40405273 82.84423828 C4.41434761 81.59741776 4.41434761 81.59741776 4.42485046 80.32540894 C4.44317387 77.57353706 4.4392726 74.82223239 4.43359375 72.0703125 C4.43815345 70.1584352 4.44345839 68.24655954 4.44947815 66.33468628 C4.45842055 62.32478179 4.45597395 58.31507632 4.44604492 54.30517578 C4.43456381 49.16793871 4.45474781 44.03138987 4.48396206 38.89424324 C4.50231631 34.94452553 4.50203297 30.99497289 4.49632454 27.04522324 C4.49617118 25.15140697 4.50222791 23.25757962 4.51461601 21.36380386 C4.52950669 18.71361532 4.51886293 16.06469971 4.50170898 13.41455078 C4.51621094 12.24233978 4.51621094 12.24233978 4.53100586 11.04644775 C4.46367972 6.07506936 3.51525631 3.52498329 0 0 Z " fill="#442050" transform="translate(125,83)"/>
<path d="M0 0 C17.49 0 34.98 0 53 0 C49 4 49 4 46.69671631 4.48101807 C45.85288391 4.47213562 45.00905151 4.46325317 44.13964844 4.45410156 C42.69860748 4.45364838 42.69860748 4.45364838 41.22845459 4.45318604 C39.68451019 4.42221832 39.68451019 4.42221832 38.109375 4.390625 C36.51974945 4.38213531 36.51974945 4.38213531 34.89801025 4.37347412 C31.51487972 4.3510924 28.13281016 4.30089098 24.75 4.25 C22.45574447 4.2299374 20.16147233 4.21168621 17.8671875 4.1953125 C12.24438318 4.15122143 6.62237144 4.08217993 1 4 C1 10.27 1 16.54 1 23 C0.67 23 0.34 23 0 23 C0 15.41 0 7.82 0 0 Z " fill="#9F4FB8" transform="translate(80,183)"/>
<path d="M0 0 C0.33 0 0.66 0 1 0 C1.09765625 6.15234375 1.09765625 6.15234375 1 8 C0 9 0 9 -2.09437561 9.12025452 C-3.01592941 9.11803391 -3.93748322 9.11581329 -4.88696289 9.11352539 C-5.92796646 9.11344986 -6.96897003 9.11337433 -8.04151917 9.11329651 C-9.1737944 9.10813522 -10.30606964 9.10297394 -11.47265625 9.09765625 C-12.62543564 9.0962413 -13.77821503 9.09482635 -14.96592712 9.09336853 C-18.66481064 9.08775005 -22.36363464 9.07519442 -26.0625 9.0625 C-28.56315017 9.05748738 -31.06380129 9.05292406 -33.56445312 9.04882812 C-39.70965588 9.03777462 -45.85482369 9.02101852 -52 9 C-52 7.68 -52 6.36 -52 5 C-51.11130219 4.99453156 -51.11130219 4.99453156 -50.20465088 4.98895264 C-44.04000577 4.94715293 -37.87610694 4.87782542 -31.71191406 4.79248047 C-29.41120873 4.76424896 -27.11040601 4.74304534 -24.80957031 4.72900391 C-21.50274721 4.70760514 -18.19709774 4.66096892 -14.890625 4.609375 C-13.86132874 4.60814636 -12.83203247 4.60691772 -11.77154541 4.60565186 C-6.15325813 4.60306302 -6.15325813 4.60306302 -1.38183594 1.96191406 C-0.92583008 1.31448242 -0.46982422 0.66705078 0 0 Z " fill="#834098" transform="translate(133,174)"/>
<path d="M0 0 C0.75 1.75 0.75 1.75 1 4 C-0.33105469 6.11621094 -0.33105469 6.11621094 -3 8 C-6.48489266 8.56682826 -9.93075353 8.46441116 -13.453125 8.390625 C-14.46848328 8.38496521 -15.48384155 8.37930542 -16.52996826 8.37347412 C-19.77046001 8.35109753 -23.0098429 8.30089755 -26.25 8.25 C-28.44790069 8.22993671 -30.64581872 8.21168565 -32.84375 8.1953125 C-38.2295445 8.15122871 -43.61469303 8.08430373 -49 8 C-49 7.01 -49 6.02 -49 5 C-47.69329346 4.9906543 -46.38658691 4.98130859 -45.0402832 4.97167969 C-40.18512066 4.93176162 -35.33059056 4.86599725 -30.47583008 4.79248047 C-28.37597792 4.76428148 -26.27601983 4.74306163 -24.17602539 4.72900391 C-21.15455941 4.70755986 -18.13436566 4.66090133 -15.11328125 4.609375 C-14.17664139 4.60814636 -13.24000153 4.60691772 -12.27497864 4.60565186 C-7.90114371 4.50770461 -5.61443694 4.39982225 -1.86791992 1.96191406 C-1.25150635 1.31448242 -0.63509277 0.66705078 0 0 Z " fill="#201026" transform="translate(129,170)"/>
</svg>
