<?xml version="1.0" encoding="UTF-8"?>
<svg version="1.1" xmlns="http://www.w3.org/2000/svg" width="256" height="256">
<path d="M0 0 C1.25165451 -0.00571014 2.50330902 -0.01142029 3.79289246 -0.01730347 C5.17246999 -0.01854869 6.55204764 -0.01967381 7.93162537 -0.02069092 C9.39070765 -0.02532254 10.84978873 -0.03034767 12.30886841 -0.03573608 C16.26792903 -0.0488326 20.22697271 -0.05530017 24.18605161 -0.05974674 C26.66381064 -0.06268311 29.1415651 -0.06678907 31.61932182 -0.07125092 C39.38382621 -0.08492127 47.14832008 -0.09458906 54.91283566 -0.09845281 C63.85248231 -0.10292656 72.79197553 -0.1204446 81.73157555 -0.1494534 C88.65580127 -0.17113595 95.57998404 -0.18116065 102.50424331 -0.18249393 C106.63274699 -0.18353765 110.76110636 -0.18935222 114.88957405 -0.20731354 C118.77941039 -0.22390737 122.66899573 -0.2258955 126.55885506 -0.21717453 C127.9777138 -0.21641005 129.39658666 -0.22066809 130.81541061 -0.23063278 C150.5520866 -0.36099095 165.50901918 5.63463774 179.90208435 19.12481689 C184.09555868 23.46514441 187.20024811 28.19592164 190.09739685 33.45294189 C190.58587097 34.32221313 190.58587097 34.32221313 191.08421326 35.20904541 C196.53005564 45.61788248 197.22785834 56.54199271 197.17308044 68.08184814 C197.17715602 69.54196564 197.18250338 71.00208004 197.18901062 72.46218872 C197.20257302 76.39198896 197.19743192 80.32155033 197.18787336 84.25135422 C197.1802188 88.38569479 197.18733833 92.52001643 197.19203186 96.65435791 C197.19747267 103.5940921 197.19034199 110.53373015 197.17601013 117.47344971 C197.15968683 125.46923178 197.16497653 133.46478428 197.18148935 141.4605608 C197.19515217 148.3552206 197.19700054 155.24981173 197.18917334 162.14448071 C197.18452307 166.24938399 197.18379837 170.35417977 197.19378281 174.45907593 C197.20252045 178.32030989 197.19630819 182.18125106 197.17910004 186.04245377 C197.17517115 187.45001873 197.17620659 188.85760883 197.18288803 190.26516342 C197.26287069 208.84361291 191.90065819 224.56032584 179.06419373 238.12896729 C166.57817914 250.59571333 150.62800502 256.32483667 133.27922058 256.42260742 C131.91416894 256.42031435 130.54911766 256.41780475 129.18406677 256.4151001 C127.72439312 256.41945463 126.26472174 256.42464023 124.80505371 256.43058777 C120.86273187 256.44391074 116.92050629 256.44456385 112.97816634 256.44202447 C109.67583687 256.44094999 106.3735265 256.44585039 103.07120115 256.45062989 C95.27352185 256.46170235 87.47589074 256.46217553 79.6782074 256.45611572 C71.6603443 256.45008014 63.64265688 256.46238156 55.62482375 256.48368579 C48.71749422 256.50135777 41.81022032 256.50729428 34.90286905 256.50404805 C30.78785025 256.50224362 26.67295673 256.50478654 22.5579586 256.51876259 C18.68446895 256.5314275 14.81125107 256.52931594 10.93776512 256.5163517 C9.52535913 256.51400492 8.11293349 256.51665154 6.70055008 256.52497482 C-11.81412317 256.626119 -27.62098898 251.32295508 -41.13331604 238.48345947 C-52.16744395 227.39263969 -59.31228469 212.71834568 -59.35554504 196.92533875 C-59.36125519 195.67368423 -59.36696533 194.42202972 -59.37284851 193.13244629 C-59.37409373 191.75286875 -59.37521886 190.3732911 -59.37623596 188.99371338 C-59.38086759 187.5346311 -59.38589271 186.07555002 -59.39128113 184.61647034 C-59.40437765 180.65740971 -59.41084521 176.69836603 -59.41529179 172.73928714 C-59.41822816 170.26152811 -59.42233412 167.78377364 -59.42679596 165.30601692 C-59.44046632 157.54151254 -59.45013411 149.77701867 -59.45399785 142.01250309 C-59.45847161 133.07285644 -59.47598964 124.13336322 -59.50499845 115.1937632 C-59.526681 108.26953748 -59.5367057 101.34535471 -59.53803897 94.42109543 C-59.5390827 90.29259175 -59.54489726 86.16423239 -59.56285858 82.03576469 C-59.57945241 78.14592835 -59.58144054 74.25634302 -59.57271957 70.36648369 C-59.57195509 68.94762495 -59.57621313 67.52875208 -59.58617783 66.10992813 C-59.7157728 46.48880248 -53.82062708 31.08730477 -40.09010315 16.95294189 C-29.38912636 6.86344949 -14.81472682 0.04058064 0 0 Z " fill="#F3F1EC" transform="translate(59.21510314941406,-0.14044189453125)"/>
<path d="M0 0 C1.22164856 -0.00554901 2.44329712 -0.01109802 3.70196533 -0.01681519 C7.04544512 -0.02659328 10.38737523 -0.01402605 13.73069 0.00946999 C17.2330542 0.029607 20.7353851 0.02369796 24.23779297 0.0213623 C30.11895311 0.02141585 35.99979166 0.04115418 41.88085938 0.07324219 C48.67526891 0.11013389 55.46925727 0.11891747 62.26375389 0.11194468 C68.80612232 0.10563419 75.34834669 0.116404 81.89068604 0.13591003 C84.67207903 0.14407385 87.45339828 0.14679547 90.23480225 0.1452179 C94.12023267 0.14417383 98.0052831 0.16837589 101.890625 0.1953125 C103.61916718 0.1909166 103.61916718 0.1909166 105.38262939 0.18643188 C106.97237579 0.20345657 106.97237579 0.20345657 108.59423828 0.2208252 C109.97133469 0.22641827 109.97133469 0.22641827 111.37625122 0.23212433 C114.49655466 0.6974381 116.39672777 1.78465978 118.9453125 3.61523438 C120.32851625 6.38164187 120.07445634 8.61614223 120.07902527 11.71322632 C120.08542274 13.66497017 120.08542274 13.66497017 120.09194946 15.65614319 C120.09159992 17.1065369 120.09113837 18.55693058 120.09057617 20.00732422 C120.09356692 21.52820417 120.09696925 23.04908336 120.10075378 24.56996155 C120.1096071 28.7084135 120.11193247 32.8468448 120.11256957 36.98530531 C120.11351775 40.4371518 120.11719504 43.88899344 120.12074167 47.34083807 C120.12889145 55.48373828 120.13132544 63.62662743 120.13061523 71.76953125 C120.13001444 80.17533515 120.14056532 88.58107488 120.1563589 96.98686254 C120.16942603 104.19794911 120.17479947 111.40901469 120.17415982 118.62011302 C120.17390457 122.92945714 120.17677063 127.23874427 120.18733788 131.54807663 C120.19700485 135.60114256 120.1971077 139.65409685 120.18982124 143.70716667 C120.18877362 145.19549281 120.1911488 146.68382584 120.1971817 148.17214012 C120.20487921 150.20250446 120.1990676 152.23290668 120.19255066 154.26327515 C120.19309543 155.40001364 120.19364019 156.53675213 120.19420147 157.70793724 C119.94406376 160.62982107 119.64159188 162.24094354 117.9453125 164.61523438 C114.91640652 166.6900014 112.36914931 166.86936255 108.75245667 166.88265991 C107.17739349 166.89545486 107.17739349 166.89545486 105.57051086 166.9085083 C103.85060188 166.90714874 103.85060188 166.90714874 102.09594727 166.90576172 C100.27832382 166.91583755 100.27832382 166.91583755 98.42398071 166.92611694 C95.10366314 166.94185995 91.78359569 166.94847191 88.46325803 166.94974852 C86.38807623 166.95117094 84.31292058 166.95544223 82.23774529 166.96074295 C74.99596367 166.97923937 67.75425563 166.98741391 60.51245117 166.98583984 C53.76518744 166.98463799 47.01824336 167.00574953 40.27106053 167.03732717 C34.47475607 167.0634866 28.67855606 167.07420731 22.88219303 167.07292902 C19.42174501 167.07241936 15.96158123 167.07810485 12.50119209 167.09928513 C8.64202524 167.12226215 4.7832964 167.11314861 0.92407227 167.10107422 C-0.22050949 167.11231323 -1.36509125 167.12355225 -2.5443573 167.13513184 C-10.28849062 167.07342825 -10.28849062 167.07342825 -14.24085999 164.70986938 C-17.42067969 161.03776626 -17.18718628 158.07549571 -17.15234375 153.41992188 C-17.1509288 152.71247833 -17.14951385 152.00503479 -17.14805603 151.27615356 C-17.1424535 149.01413769 -17.12990068 146.75222039 -17.1171875 144.49023438 C-17.11217282 142.95768372 -17.10760986 141.42513152 -17.10351562 139.89257812 C-17.09248327 136.13342549 -17.07521702 132.37434665 -17.0546875 128.61523438 C-18.15458008 128.64141846 -19.25447266 128.66760254 -20.38769531 128.69458008 C-24.47261168 128.78515315 -28.55743953 128.84250871 -32.64306641 128.88989258 C-34.41047088 128.91502078 -36.1777716 128.94912954 -37.94482422 128.99243164 C-40.48691399 129.05316172 -43.02762915 129.08145953 -45.5703125 129.10351562 C-46.75333954 129.14222527 -46.75333954 129.14222527 -47.96026611 129.18171692 C-51.5858391 129.18356605 -53.55091883 129.08087015 -56.26200867 126.57499695 C-58.49419333 122.88959803 -58.62544925 119.87451589 -58.58813477 115.69140625 C-58.60105812 114.51729942 -58.60105812 114.51729942 -58.61424255 113.31947327 C-58.63688428 110.74063744 -58.63016785 108.1628898 -58.62109375 105.58398438 C-58.62632987 103.78706541 -58.6326063 101.99014919 -58.63987732 100.1932373 C-58.65027796 96.4306137 -58.64572455 92.66836837 -58.63110352 88.90576172 C-58.61390916 84.08676501 -58.63742022 79.2689599 -58.67259312 74.45009613 C-58.69456444 70.74054074 -58.69312645 67.03127066 -58.6848278 63.32167053 C-58.68400827 61.54507642 -58.69087217 59.76846136 -58.70559883 57.9919281 C-58.72304224 55.50689641 -58.70850685 53.02400836 -58.68579102 50.5390625 C-58.69748322 49.80748428 -58.70917542 49.07590607 -58.72122192 48.32215881 C-58.6495601 44.4644257 -58.14979517 42.73776121 -55.75726318 39.6554718 C-52.12837844 36.91594206 -49.05457028 36.97911917 -44.69140625 37.12695312 C-43.89942337 37.13402786 -43.10744049 37.1411026 -42.29145813 37.14839172 C-39.77405361 37.17627194 -37.25891394 37.23899238 -34.7421875 37.30273438 C-33.0306312 37.32782576 -31.31903985 37.35063747 -29.60742188 37.37109375 C-25.42231096 37.42607691 -21.23888254 37.5123002 -17.0546875 37.61523438 C-17.08087158 36.67204346 -17.10705566 35.72885254 -17.1340332 34.75708008 C-17.21945672 31.24390293 -17.28203048 27.7318353 -17.3293457 24.21801758 C-17.35442859 22.69993636 -17.3885041 21.1819752 -17.43188477 19.66430664 C-17.49282043 17.47707472 -17.52095645 15.29144398 -17.54296875 13.10351562 C-17.56915283 11.78907471 -17.59533691 10.47463379 -17.62231445 9.12036133 C-17.0546875 5.61523438 -17.0546875 5.61523438 -15.27262878 2.93461609 C-10.38670198 -0.58699238 -5.88168829 -0.06769601 0 0 Z " fill="#C964E9" transform="translate(97.0546875,45.384765625)"/>
<path d="M0 0 C7.31392566 -0.1014521 14.62766974 -0.17148763 21.94213867 -0.21972656 C24.43016338 -0.23983705 26.91814086 -0.26712927 29.40600586 -0.30175781 C32.98302875 -0.35029853 36.55942651 -0.37297495 40.13671875 -0.390625 C41.80416389 -0.42159271 41.80416389 -0.42159271 43.5052948 -0.45318604 C45.06634697 -0.45363922 45.06634697 -0.45363922 46.65893555 -0.45410156 C48.02794258 -0.46742523 48.02794258 -0.46742523 49.42460632 -0.48101807 C53.06029613 0.19803636 54.56308443 1.20061885 57 4 C57.74473194 7.01248836 57.70375629 9.95670218 57.67871094 13.04785156 C57.69068512 13.96217453 57.7026593 14.8764975 57.71499634 15.81852722 C57.74721241 18.8429891 57.74235896 21.86602021 57.734375 24.890625 C57.74282353 26.99567155 57.75246366 29.10071362 57.76324463 31.20574951 C57.7796498 35.6208946 57.77691414 40.03553849 57.76171875 44.45068359 C57.74446418 50.09810519 57.78151165 55.74366213 57.83398056 61.39081192 C57.86713252 65.74047172 57.86765019 70.08968654 57.85883331 74.4394455 C57.85919249 76.52059732 57.87044071 78.60177765 57.89293671 80.68280792 C57.92028799 83.60125071 57.90270127 86.51621044 57.87402344 89.43457031 C57.89133514 90.28784409 57.90864685 91.14111786 57.92648315 92.02024841 C57.79907508 98.10434585 55.8835587 101.12497573 51.69583511 105.48862839 C48.87012686 108.00697183 47.05994842 108.12319358 43.36669922 108.11352539 C42.40585419 108.11344986 41.44500916 108.11337433 40.45504761 108.11329651 C39.41542877 108.10813522 38.37580994 108.10297394 37.3046875 108.09765625 C36.24210724 108.0962413 35.17952698 108.09482635 34.08474731 108.09336853 C30.68146991 108.08775834 27.27825762 108.07520409 23.875 108.0625 C21.57161553 108.05748631 19.26823003 108.05292318 16.96484375 108.04882812 C11.30987064 108.03778559 5.65494637 108.02051409 0 108 C-0.33 103.71 -0.66 99.42 -1 95 C-2.09989258 95.02618408 -3.19978516 95.05236816 -4.33300781 95.0793457 C-8.41792418 95.16991878 -12.50275203 95.22727433 -16.58837891 95.2746582 C-18.35578338 95.29978641 -20.1230841 95.33389516 -21.89013672 95.37719727 C-24.43222649 95.43792735 -26.97294165 95.46622515 -29.515625 95.48828125 C-30.69865204 95.52699089 -30.69865204 95.52699089 -31.90557861 95.56648254 C-35.5311516 95.56833167 -37.49623133 95.46563577 -40.20732117 92.95976257 C-42.43950583 89.27436366 -42.57076175 86.25928152 -42.53344727 82.07617188 C-42.54637062 80.90206505 -42.54637062 80.90206505 -42.55955505 79.70423889 C-42.58219678 77.12540307 -42.57548035 74.54765543 -42.56640625 71.96875 C-42.57164237 70.17183103 -42.5779188 68.37491482 -42.58518982 66.57800293 C-42.59559046 62.81537932 -42.59103705 59.05313399 -42.57641602 55.29052734 C-42.55922166 50.47153064 -42.58273272 45.65372552 -42.61790562 40.83486176 C-42.63987694 37.12530637 -42.63843895 33.41603629 -42.6301403 29.70643616 C-42.62932077 27.92984204 -42.63618467 26.15322699 -42.65091133 24.37669373 C-42.66835474 21.89166203 -42.65381935 19.40877399 -42.63110352 16.92382812 C-42.64279572 16.19224991 -42.65448792 15.46067169 -42.66653442 14.70692444 C-42.59494726 10.85321077 -42.09435903 9.1218667 -39.70831299 6.04023743 C-36.1749076 3.37843801 -36.1749076 3.37843801 -33.03588867 3.43237305 C-32.2954985 3.4327507 -31.55510834 3.43312836 -30.7922821 3.43351746 C-30.0087587 3.45932388 -29.22523529 3.48513031 -28.41796875 3.51171875 C-27.60378983 3.51879349 -26.7896109 3.52586823 -25.95075989 3.53315735 C-23.36205357 3.56104402 -20.77554727 3.62376684 -18.1875 3.6875 C-16.42776572 3.7125905 -14.66799737 3.73540236 -12.90820312 3.75585938 C-8.60462704 3.81085128 -4.3026859 3.89708008 0 4 C0 2.68 0 1.36 0 0 Z " fill="#771BA9" transform="translate(81,79)"/>
<path d="M0 0 C13.53 0 27.06 0 41 0 C41.08021762 19.05614097 41.08021762 19.05614097 41.09765625 27.17578125 C41.10961424 32.71732409 41.12376442 38.25880086 41.15087891 43.80029297 C41.17260121 48.26769485 41.18456736 52.73502589 41.18975449 57.2024765 C41.19345134 58.90732692 41.20067031 60.61217343 41.21146011 62.31699371 C41.22596692 64.70392756 41.22797829 67.09056826 41.22705078 69.47753906 C41.23424133 70.18316483 41.24143188 70.88879059 41.24884033 71.61579895 C41.23366064 75.22331048 41.09910559 77.9909302 39 81 C27.36862481 86.8156876 13.0042728 82 0 82 C0 54.94 0 27.88 0 0 Z " fill="#9231BE" transform="translate(176,129)"/>
<path d="M0 0 C13.86 0 27.72 0 42 0 C42 13.86 42 27.72 42 42 C28.47 42 14.94 42 1 42 C1 69.06 1 96.12 1 124 C12.55 124 24.1 124 36 124 C36 124.33 36 124.66 36 125 C24.12 125 12.24 125 0 125 C0 83.75 0 42.5 0 0 Z " fill="#AD4BD4" transform="translate(175,87)"/>
<path d="M0 0 C13.53 0 27.06 0 41 0 C41.04125 5.8575 41.0825 11.715 41.125 17.75 C41.14320801 19.59303711 41.16141602 21.43607422 41.18017578 23.33496094 C41.18601891 24.80142933 41.1911149 26.26790097 41.1953125 27.734375 C41.20554443 28.49121582 41.21577637 29.24805664 41.22631836 30.02783203 C41.22859374 36.90402467 41.22859374 36.90402467 39 40 C35.77353541 41.61323229 32.2533805 41.12063563 28.7109375 41.09765625 C27.62292847 41.09614563 27.62292847 41.09614563 26.51293945 41.09460449 C23.80027691 41.08936769 21.08763689 41.07540644 18.375 41.0625 C9.279375 41.0315625 9.279375 41.0315625 0 41 C0 27.47 0 13.94 0 0 Z " fill="#7719AA" transform="translate(176,170)"/>
<path d="M0 0 C3.63 0 7.26 0 11 0 C13.48609036 2.6963235 14.58392636 4.29895361 16.0625 7.5 C16.87077602 9.05230616 17.68206027 10.60304906 18.49609375 12.15234375 C18.90069824 12.95140137 19.30530273 13.75045898 19.72216797 14.57373047 C21.80964876 18.53731168 24.21682678 22.28841441 26.625 26.0625 C28.06875 28.351875 29.5125 30.64125 31 33 C31.33 22.11 31.66 11.22 32 0 C34.97 0 37.94 0 41 0 C41 16.17 41 32.34 41 49 C31 49 31 49 28.69067383 47.1550293 C28.20107178 46.30336182 27.71146973 45.45169434 27.20703125 44.57421875 C26.3552832 43.15979492 26.3552832 43.15979492 25.48632812 41.71679688 C24.93396484 40.71712891 24.38160156 39.71746094 23.8125 38.6875 C23.24853516 37.73037109 22.68457031 36.77324219 22.10351562 35.78710938 C21.02549448 33.95755349 19.9625166 32.11897109 18.92114258 30.26831055 C16.07867986 25.43262006 13.01145982 20.732294 10 16 C9.67 27.22 9.34 38.44 9 50 C6.03 50 3.06 50 0 50 C0 33.5 0 17 0 0 Z " fill="#FAF7FC" transform="translate(64,104)"/>
<path d="M0 0 C7.31392566 -0.1014521 14.62766974 -0.17148763 21.94213867 -0.21972656 C24.43016338 -0.23983705 26.91814086 -0.26712927 29.40600586 -0.30175781 C32.98302875 -0.35029853 36.55942651 -0.37297495 40.13671875 -0.390625 C41.80416389 -0.42159271 41.80416389 -0.42159271 43.5052948 -0.45318604 C45.06634697 -0.45363922 45.06634697 -0.45363922 46.65893555 -0.45410156 C48.02794258 -0.46742523 48.02794258 -0.46742523 49.42460632 -0.48101807 C53.06029613 0.19803636 54.56308443 1.20061885 57 4 C57.74473194 7.01248836 57.70375629 9.95670218 57.67871094 13.04785156 C57.69068512 13.96217453 57.7026593 14.8764975 57.71499634 15.81852722 C57.74721241 18.8429891 57.74235896 21.86602021 57.734375 24.890625 C57.74282353 26.99567155 57.75246366 29.10071362 57.76324463 31.20574951 C57.7796498 35.6208946 57.77691414 40.03553849 57.76171875 44.45068359 C57.74446418 50.09810519 57.78151165 55.74366213 57.83398056 61.39081192 C57.86713252 65.74047172 57.86765019 70.08968654 57.85883331 74.4394455 C57.85919249 76.52059732 57.87044071 78.60177765 57.89293671 80.68280792 C57.92028799 83.60125071 57.90270127 86.51621044 57.87402344 89.43457031 C57.89133514 90.28784409 57.90864685 91.14111786 57.92648315 92.02024841 C57.79907508 98.10434585 55.8835587 101.12497573 51.69583511 105.48862839 C48.87012686 108.00697183 47.05994842 108.12319358 43.36669922 108.11352539 C42.40585419 108.11344986 41.44500916 108.11337433 40.45504761 108.11329651 C39.41542877 108.10813522 38.37580994 108.10297394 37.3046875 108.09765625 C36.24210724 108.0962413 35.17952698 108.09482635 34.08474731 108.09336853 C30.68146991 108.08775834 27.27825762 108.07520409 23.875 108.0625 C21.57161553 108.05748631 19.26823003 108.05292318 16.96484375 108.04882812 C11.30987351 108.0377856 5.65494141 108.02103752 0 108 C0 105.36 0 102.72 0 100 C0.88869781 99.99453156 0.88869781 99.99453156 1.79534912 99.98895264 C7.95999423 99.94715293 14.12389306 99.87782542 20.28808594 99.79248047 C22.58879127 99.76424896 24.88959399 99.74304534 27.19042969 99.72900391 C30.49725279 99.70760514 33.80290226 99.66096892 37.109375 99.609375 C38.13867126 99.60814636 39.16796753 99.60691772 40.22845459 99.60565186 C41.18914856 99.58593323 42.14984253 99.5662146 43.13964844 99.54589844 C43.98348083 99.53701599 44.82731323 99.52813354 45.69671631 99.51898193 C48.98159008 98.77882554 50.07496133 97.76598985 52 95 C52.39460126 92.11080944 52.54742446 89.60292245 52.51757812 86.71484375 C52.5245874 85.88187775 52.53159668 85.04891174 52.53881836 84.19070435 C52.55641319 81.43929639 52.54477059 78.68891829 52.53125 75.9375 C52.53394449 74.0246562 52.53782656 72.11181372 52.54284668 70.19897461 C52.54874374 66.19078526 52.54017208 62.18295257 52.52148438 58.17480469 C52.49869472 53.03634758 52.51181669 47.89872613 52.53577423 42.76029968 C52.55022659 38.81060486 52.5456288 34.86110825 52.53526306 30.91140747 C52.53259422 29.01677349 52.53587106 27.12212153 52.54518127 25.22750854 C52.55533765 22.57957272 52.53985924 19.93299116 52.51757812 17.28515625 C52.52567505 16.50165802 52.53377197 15.71815979 52.54211426 14.91091919 C52.48847404 11.47100094 52.25877371 9.37181874 50.27142334 6.51629639 C47.6485383 4.76538054 46.27083235 4.48706139 43.13964844 4.45410156 C41.69860748 4.42452362 41.69860748 4.42452362 40.22845459 4.39434814 C39.19915833 4.39311951 38.16986206 4.39189087 37.109375 4.390625 C36.04962463 4.37408875 34.98987427 4.35755249 33.89801025 4.34051514 C30.51528169 4.29195445 27.13300295 4.27064563 23.75 4.25 C21.45570644 4.22184717 19.1614339 4.19192072 16.8671875 4.16015625 C11.24487355 4.08619345 5.62268653 4.03459821 0 4 C0 2.68 0 1.36 0 0 Z " fill="#9E4EB6" transform="translate(81,79)"/>
<path d="M0 0 C5.43480721 0.48309397 5.43480721 0.48309397 7.67297363 2.53004456 C9.55959565 6.04155904 9.4345001 9.37960591 9.41992188 13.26928711 C9.42839142 14.10064682 9.43686096 14.93200653 9.44558716 15.78855896 C9.46897399 18.53497644 9.46997894 21.28083425 9.46875 24.02734375 C9.47585047 25.9377922 9.4835493 27.84823851 9.49182129 29.75868225 C9.5052699 33.76260303 9.50683311 37.76632662 9.50097656 41.77026367 C9.49507956 46.89974184 9.52567022 52.02827381 9.56609344 57.15756893 C9.59195011 61.10300285 9.59484972 65.04820832 9.59120178 68.99371529 C9.59289488 70.88475485 9.60255566 72.77580476 9.62034607 74.6667614 C9.64249653 77.31225689 9.63285487 79.95582913 9.61523438 82.60131836 C9.62849762 83.38122131 9.64176086 84.16112427 9.65542603 84.96466064 C9.59478367 88.88551863 9.13878055 90.81375512 6.77241516 93.98944092 C3.80810623 96.13916161 2.61818005 96.61501557 -0.97387695 96.56762695 C-1.93449539 96.5672493 -2.89511383 96.56687164 -3.88484192 96.56648254 C-4.9089769 96.54067612 -5.93311188 96.51486969 -6.98828125 96.48828125 C-8.57578438 96.47766914 -8.57578438 96.47766914 -10.19535828 96.46684265 C-13.56846437 96.43890219 -16.93989746 96.37616121 -20.3125 96.3125 C-22.60218953 96.28741682 -24.89190514 96.26460369 -27.18164062 96.24414062 C-32.78832915 96.18907681 -38.39404504 96.1054533 -44 96 C-44 94.35 -44 92.7 -44 91 C-43.16434761 90.99453156 -43.16434761 90.99453156 -42.31181335 90.98895264 C-36.52035606 90.94718528 -30.72969557 90.87788139 -24.9387207 90.79248047 C-22.77669234 90.76423139 -20.61455995 90.74303654 -18.45239258 90.72900391 C-15.34662459 90.70762904 -12.24211268 90.66100657 -9.13671875 90.609375 C-7.68346443 90.60753204 -7.68346443 90.60753204 -6.20085144 90.60565186 C-4.84979057 90.57607391 -4.84979057 90.57607391 -3.47143555 90.54589844 C-2.67867722 90.53701599 -1.88591888 90.52813354 -1.06913757 90.51898193 C1.11125913 90.14026397 1.11125913 90.14026397 2.75421143 88.45402527 C4.47676791 85.06083542 4.42683089 81.90964592 4.40405273 78.18969727 C4.41434761 77.01580948 4.41434761 77.01580948 4.42485046 75.81820679 C4.44313525 73.23408813 4.43927861 70.65057565 4.43359375 68.06640625 C4.43815486 66.26805931 4.44346022 64.46971412 4.44947815 62.67137146 C4.45841262 58.9028312 4.45598246 55.13450281 4.44604492 51.3659668 C4.43455664 46.53925988 4.45476265 41.7132847 4.48396206 36.88667393 C4.50231868 33.17286034 4.50203266 29.45922225 4.49632454 25.74537468 C4.49617125 23.96599234 4.50222204 22.18659817 4.51461601 20.40725899 C4.52951383 17.91760651 4.51885876 15.42930772 4.50170898 12.93969727 C4.51621094 11.83997337 4.51621094 11.83997337 4.53100586 10.71803284 C4.46123985 5.87520753 3.3839299 3.44430804 0 0 Z " fill="#442050" transform="translate(125,83)"/>
<path d="M0 0 C0.33 0 0.66 0 1 0 C1.60536104 7.14326023 1.60536104 7.14326023 -0.84375 10.609375 C-5.45528524 14.1022705 -9.35530315 13.63022254 -14.98828125 13.48828125 C-16.04661667 13.48120651 -17.10495209 13.47413177 -18.19535828 13.46684265 C-21.56846437 13.43890219 -24.93989746 13.37616121 -28.3125 13.3125 C-30.60218953 13.28741682 -32.89190514 13.26460369 -35.18164062 13.24414062 C-40.78832915 13.18907681 -46.39404504 13.1054533 -52 13 C-52 10.36 -52 7.72 -52 5 C-51.11130219 4.99453156 -51.11130219 4.99453156 -50.20465088 4.98895264 C-44.04000577 4.94715293 -37.87610694 4.87782542 -31.71191406 4.79248047 C-29.41120873 4.76424896 -27.11040601 4.74304534 -24.80957031 4.72900391 C-21.50274721 4.70760514 -18.19709774 4.66096892 -14.890625 4.609375 C-13.86132874 4.60814636 -12.83203247 4.60691772 -11.77154541 4.60565186 C-6.15325813 4.60306302 -6.15325813 4.60306302 -1.38183594 1.96191406 C-0.92583008 1.31448242 -0.46982422 0.66705078 0 0 Z " fill="#834098" transform="translate(133,174)"/>
<path d="M0 0 C17.16 0 34.32 0 52 0 C48 4 48 4 45.69671631 4.48101807 C44.85288391 4.47213562 44.00905151 4.46325317 43.13964844 4.45410156 C41.69860748 4.45364838 41.69860748 4.45364838 40.22845459 4.45318604 C38.68451019 4.42221832 38.68451019 4.42221832 37.109375 4.390625 C35.51974945 4.38213531 35.51974945 4.38213531 33.89801025 4.37347412 C30.51487972 4.3510924 27.13281016 4.30089098 23.75 4.25 C21.45574447 4.2299374 19.16147233 4.21168621 16.8671875 4.1953125 C11.24442997 4.1512218 5.62229079 4.08429136 0 4 C0 2.68 0 1.36 0 0 Z " fill="#A350BC" transform="translate(81,183)"/>
<path d="M0 0 C0.75 1.75 0.75 1.75 1 4 C-0.34472656 6.11621094 -0.34472656 6.11621094 -3 8 C-6.41239692 8.56527037 -9.78389481 8.46454583 -13.234375 8.390625 C-14.22753723 8.38496521 -15.22069946 8.37930542 -16.24395752 8.37347412 C-19.41313059 8.35110026 -22.5811692 8.30090106 -25.75 8.25 C-27.89972324 8.22993635 -30.04946423 8.21168534 -32.19921875 8.1953125 C-37.46653229 8.15123239 -42.73318509 8.08431033 -48 8 C-48 6.68 -48 5.36 -48 4 C-47.44289841 3.99413376 -46.88579681 3.98826752 -46.31181335 3.98222351 C-40.52044539 3.91835586 -34.72963656 3.83395404 -28.9387207 3.73754883 C-26.77668625 3.70426678 -24.61456423 3.67624515 -22.45239258 3.65356445 C-19.34678782 3.62007892 -16.24198802 3.567766 -13.13671875 3.51171875 C-12.16788254 3.50532883 -11.19904633 3.4989389 -10.20085144 3.49235535 C-9.3001442 3.47256119 -8.39943695 3.45276703 -7.47143555 3.43237305 C-6.28229805 3.41571846 -6.28229805 3.41571846 -5.06913757 3.39872742 C-2.52875863 2.90919074 -1.62487516 1.96094555 0 0 Z " fill="#24102D" transform="translate(129,170)"/>
</svg>
