<?xml version="1.0" encoding="UTF-8"?>
<svg version="1.1" xmlns="http://www.w3.org/2000/svg" width="256" height="256">
<path d="M0 0 C1.25165451 -0.00571014 2.50330902 -0.01142029 3.79289246 -0.01730347 C5.17246999 -0.01854869 6.55204764 -0.01967381 7.93162537 -0.02069092 C9.39070765 -0.02532254 10.84978873 -0.03034767 12.30886841 -0.03573608 C16.26792903 -0.0488326 20.22697271 -0.05530017 24.18605161 -0.05974674 C26.66381064 -0.06268311 29.1415651 -0.06678907 31.61932182 -0.07125092 C39.38382621 -0.08492127 47.14832008 -0.09458906 54.91283566 -0.09845281 C63.85248231 -0.10292656 72.79197553 -0.1204446 81.73157555 -0.1494534 C88.65580127 -0.17113595 95.57998404 -0.18116065 102.50424331 -0.18249393 C106.63274699 -0.18353765 110.76110636 -0.18935222 114.88957405 -0.20731354 C118.77941039 -0.22390737 122.66899573 -0.2258955 126.55885506 -0.21717453 C127.9777138 -0.21641005 129.39658666 -0.22066809 130.81541061 -0.23063278 C150.5520866 -0.36099095 165.50901918 5.63463774 179.90208435 19.12481689 C184.09555868 23.46514441 187.20024811 28.19592164 190.09739685 33.45294189 C190.58587097 34.32221313 190.58587097 34.32221313 191.08421326 35.20904541 C196.53005564 45.61788248 197.22785834 56.54199271 197.17308044 68.08184814 C197.17715602 69.54196564 197.18250338 71.00208004 197.18901062 72.46218872 C197.20257302 76.39198896 197.19743192 80.32155033 197.18787336 84.25135422 C197.1802188 88.38569479 197.18733833 92.52001643 197.19203186 96.65435791 C197.19747267 103.5940921 197.19034199 110.53373015 197.17601013 117.47344971 C197.15968683 125.46923178 197.16497653 133.46478428 197.18148935 141.4605608 C197.19515217 148.3552206 197.19700054 155.24981173 197.18917334 162.14448071 C197.18452307 166.24938399 197.18379837 170.35417977 197.19378281 174.45907593 C197.20252045 178.32030989 197.19630819 182.18125106 197.17910004 186.04245377 C197.17517115 187.45001873 197.17620659 188.85760883 197.18288803 190.26516342 C197.26287069 208.84361291 191.90065819 224.56032584 179.06419373 238.12896729 C166.57817914 250.59571333 150.62800502 256.32483667 133.27922058 256.42260742 C131.91416894 256.42031435 130.54911766 256.41780475 129.18406677 256.4151001 C127.72439312 256.41945463 126.26472174 256.42464023 124.80505371 256.43058777 C120.86273187 256.44391074 116.92050629 256.44456385 112.97816634 256.44202447 C109.67583687 256.44094999 106.3735265 256.44585039 103.07120115 256.45062989 C95.27352185 256.46170235 87.47589074 256.46217553 79.6782074 256.45611572 C71.6603443 256.45008014 63.64265688 256.46238156 55.62482375 256.48368579 C48.71749422 256.50135777 41.81022032 256.50729428 34.90286905 256.50404805 C30.78785025 256.50224362 26.67295673 256.50478654 22.5579586 256.51876259 C18.68446895 256.5314275 14.81125107 256.52931594 10.93776512 256.5163517 C9.52535913 256.51400492 8.11293349 256.51665154 6.70055008 256.52497482 C-11.81412317 256.626119 -27.62098898 251.32295508 -41.13331604 238.48345947 C-52.16744395 227.39263969 -59.31228469 212.71834568 -59.35554504 196.92533875 C-59.36125519 195.67368423 -59.36696533 194.42202972 -59.37284851 193.13244629 C-59.37409373 191.75286875 -59.37521886 190.3732911 -59.37623596 188.99371338 C-59.38086759 187.5346311 -59.38589271 186.07555002 -59.39128113 184.61647034 C-59.40437765 180.65740971 -59.41084521 176.69836603 -59.41529179 172.73928714 C-59.41822816 170.26152811 -59.42233412 167.78377364 -59.42679596 165.30601692 C-59.44046632 157.54151254 -59.45013411 149.77701867 -59.45399785 142.01250309 C-59.45847161 133.07285644 -59.47598964 124.13336322 -59.50499845 115.1937632 C-59.526681 108.26953748 -59.5367057 101.34535471 -59.53803897 94.42109543 C-59.5390827 90.29259175 -59.54489726 86.16423239 -59.56285858 82.03576469 C-59.57945241 78.14592835 -59.58144054 74.25634302 -59.57271957 70.36648369 C-59.57195509 68.94762495 -59.57621313 67.52875208 -59.58617783 66.10992813 C-59.7157728 46.48880248 -53.82062708 31.08730477 -40.09010315 16.95294189 C-29.38912636 6.86344949 -14.81472682 0.04058064 0 0 Z " fill="#F3F1EC" transform="translate(59.21510314941406,-0.14044189453125)"/>
<path d="M0 0 C16.41765628 14.39999819 28.65215626 33.27925513 30.53173828 55.5390625 C31.84682309 80.8414827 25.64213039 101.86551687 9.0078125 121.16015625 C-3.06928053 134.15064287 -17.43883826 142.11208876 -34.6796875 146.03515625 C-36.06220703 146.37160156 -36.06220703 146.37160156 -37.47265625 146.71484375 C-59.26114898 151.41369152 -80.27317485 145.83750042 -98.71875 134.1015625 C-101.09337456 132.47294831 -103.39633628 130.7884438 -105.6796875 129.03515625 C-106.5665625 128.39578125 -107.4534375 127.75640625 -108.3671875 127.09765625 C-112.68482596 123.24678952 -116.71885712 119.06248377 -119.20703125 113.8125 C-121.33574266 110.86947917 -121.33574266 110.86947917 -123.99438477 110.54296875 C-126.90254339 110.39827139 -129.76885782 110.39932139 -132.6796875 110.47265625 C-134.65850095 110.51484026 -136.63792847 110.53522974 -138.6171875 110.53125 C-139.49246094 110.55372803 -140.36773437 110.57620605 -141.26953125 110.59936523 C-144.84609047 109.76210547 -145.7306369 108.09943943 -147.6796875 105.03515625 C-148.07182051 102.25970697 -148.2378513 99.88215482 -148.21313477 97.11132812 C-148.22605812 95.9372213 -148.22605812 95.9372213 -148.23924255 94.73939514 C-148.26188428 92.16055932 -148.25516785 89.58281168 -148.24609375 87.00390625 C-148.25132987 85.20698728 -148.2576063 83.41007107 -148.26487732 81.61315918 C-148.27527796 77.85053557 -148.27072455 74.08829024 -148.25610352 70.32568359 C-148.23890916 65.50668689 -148.26242022 60.68888177 -148.29759312 55.87001801 C-148.31956444 52.16046262 -148.31812645 48.45119254 -148.3098278 44.74159241 C-148.30900827 42.96499829 -148.31587217 41.18838324 -148.33059883 39.41184998 C-148.34804224 36.92681828 -148.33350685 34.44393024 -148.31079102 31.95898438 C-148.32248322 31.22740616 -148.33417542 30.49582794 -148.34622192 29.74208069 C-148.27331575 25.81736144 -147.78557607 24.16639541 -145.28826904 21.07121277 C-142.42612258 18.83724313 -141.42484935 18.46792035 -137.87890625 18.6796875 C-136.98768066 18.70272949 -136.09645508 18.72577148 -135.17822266 18.74951172 C-134.25058105 18.78189941 -133.32293945 18.81428711 -132.3671875 18.84765625 C-125.1475876 18.92489376 -125.1475876 18.92489376 -118.76953125 16.0078125 C-116.82783013 13.44075237 -115.24810677 10.84245989 -113.6796875 8.03515625 C-86.06989006 -24.84915438 -32.19785632 -26.25452442 0 0 Z " fill="#C23E1E" transform="translate(186.6796875,63.96484375)"/>
<path d="M0 0 C27.39 0 54.78 0 83 0 C83 24.42269096 74.19146077 43.72329232 57 61 C45.91942477 71.37492758 32.71350509 77.65201681 18 81 C17.07832031 81.22429687 16.15664062 81.44859375 15.20703125 81.6796875 C-6.58146148 86.37853527 -27.59348735 80.80234417 -46.0390625 69.06640625 C-48.41399355 67.43758186 -50.7176933 65.75527697 -53 64 C-54.03125 63.236875 -55.0625 62.47375 -56.125 61.6875 C-56.74375 61.130625 -57.3625 60.57375 -58 60 C-58 59.34 -58 58.68 -58 58 C-57.01734161 57.99453156 -57.01734161 57.99453156 -56.01483154 57.98895264 C-49.20142029 57.94716887 -42.38868525 57.87785202 -35.57568359 57.79248047 C-33.03245809 57.76424044 -30.48914433 57.7430411 -27.94580078 57.72900391 C-24.29153147 57.70761723 -20.63832686 57.66098609 -16.984375 57.609375 C-15.27637726 57.60753204 -15.27637726 57.60753204 -13.53387451 57.60565186 C-11.94267792 57.57607391 -11.94267792 57.57607391 -10.31933594 57.54589844 C-9.38667908 57.53701599 -8.45402222 57.52813354 -7.49310303 57.51898193 C-4.17724835 56.82873021 -3.00237438 55.70449819 -1 53 C-0.38905879 50.47012834 -0.38905879 50.47012834 -0.45410156 47.68066406 C-0.43428223 46.60510254 -0.41446289 45.52954102 -0.39404297 44.42138672 C-0.39291504 43.29748535 -0.39178711 42.17358398 -0.390625 41.015625 C-0.37499512 39.97776855 -0.35936523 38.93991211 -0.34326172 37.87060547 C-0.29069829 33.99730221 -0.27240129 30.12359513 -0.25 26.25 C-0.1675 17.5875 -0.085 8.925 0 0 Z " fill="#D35230" transform="translate(134,129)"/>
<path d="M0 0 C23.84946507 0 43.52563929 8.87281937 60.625 25.25 C76.2190194 40.9137913 83 61.33214181 83 83 C55.61 83 28.22 83 0 83 C0 55.61 0 28.22 0 0 Z " fill="#FE8F6B" transform="translate(134,46)"/>
<path d="M0 0 C0 13.86 0 27.72 0 42 C-1.65 40.68 -3.3 39.36 -5 38 C-8.07893626 37.38909353 -8.07893626 37.38909353 -11.44262695 37.45410156 C-12.72357742 37.43438293 -14.00452789 37.41466431 -15.32429504 37.39434814 C-16.71229 37.39268524 -18.10028554 37.39145424 -19.48828125 37.390625 C-20.91604991 37.37563641 -22.34380128 37.35890782 -23.77153015 37.34051514 C-27.51812556 37.29690467 -31.26448711 37.27685687 -35.0112915 37.26177979 C-38.83904818 37.24218567 -42.66655314 37.20021836 -46.49414062 37.16015625 C-53.99602598 37.08492269 -61.49780545 37.03459016 -69 37 C-68.0479397 35.55285423 -67.09335072 34.10737184 -66.13769531 32.66259766 C-65.60638 31.85746735 -65.0750647 31.05233704 -64.52764893 30.22280884 C-53.53649904 14.23011268 -33.27605594 4.29995636 -14.7265625 0.5390625 C-9.78842272 -0.18311605 -5.03128169 0 0 0 Z " fill="#EC6C48" transform="translate(134,46)"/>
<path d="M0 0 C25 0 25 0 34 4 C38.47631057 8.7001261 39.42768872 11.9789409 39.3359375 18.328125 C38.68743784 23.48595947 36.27826266 26.96850131 32.44921875 30.3828125 C25.84967477 34.56788917 17.43829107 33.24794304 10 33 C10 38.94 10 44.88 10 51 C6.7 51 3.4 51 0 51 C0 34.17 0 17.34 0 0 Z " fill="#FCF7F6" transform="translate(65,103)"/>
<path d="M0 0 C6.40696129 0.48354425 6.40696129 0.48354425 8.70422363 2.48414612 C10.65422027 6.27022119 10.43429487 9.801857 10.41992188 14.00366211 C10.42839142 14.91305038 10.43686096 15.82243866 10.44558716 16.75938416 C10.46898645 19.76551294 10.46997863 22.77113078 10.46875 25.77734375 C10.47584969 27.86715399 10.48354841 29.95696227 10.49182129 32.04676819 C10.50527277 36.42731139 10.50683179 40.80767434 10.50097656 45.18823242 C10.49507926 50.80195136 10.52567061 56.41480581 10.56609344 62.02835751 C10.59194188 66.34437215 10.59485045 70.66017785 10.59120178 74.97625923 C10.59289564 77.04592627 10.60256359 79.11560268 10.62034607 81.18519402 C10.64247959 84.07969921 10.6328624 86.97244423 10.61523438 89.86694336 C10.62849762 90.72165222 10.64176086 91.57636108 10.65542603 92.45697021 C10.59558182 96.68561092 10.35418869 98.51170711 7.80187988 102.03038025 C4.70620719 104.20652567 3.28975248 104.63104977 -0.4453125 104.64697266 C-1.50991699 104.66273346 -2.57452148 104.67849426 -3.67138672 104.69473267 C-4.8110791 104.68461151 -5.95077148 104.67449036 -7.125 104.6640625 C-8.89447998 104.67123795 -8.89447998 104.67123795 -10.69970703 104.67855835 C-13.19109431 104.68195727 -15.68252619 104.67275565 -18.17382812 104.65185547 C-21.98668899 104.62509343 -25.79660568 104.65160743 -29.609375 104.68359375 C-32.0312565 104.68028966 -34.45313616 104.67388344 -36.875 104.6640625 C-38.58453857 104.67924423 -38.58453857 104.67924423 -40.32861328 104.69473267 C-48.24533757 104.57753052 -48.24533757 104.57753052 -52.15893555 101.58251953 C-53.07026245 100.30417236 -53.07026245 100.30417236 -54 99 C-54.52207031 98.34515625 -55.04414062 97.6903125 -55.58203125 97.015625 C-59 92.11111111 -59 92.11111111 -59 91 C-58.24244919 90.99635437 -57.48489838 90.99270874 -56.70439148 90.98895264 C-49.56770734 90.95109739 -42.43154666 90.89427408 -35.29519939 90.81609726 C-31.62622466 90.77657492 -27.95749162 90.74441026 -24.28833008 90.72900391 C-20.74781155 90.71386791 -17.20795727 90.67947887 -13.66773415 90.63169098 C-11.65869347 90.60961645 -9.64946564 90.60752363 -7.64030457 90.60565186 C-6.41926529 90.58593323 -5.19822601 90.5662146 -3.94018555 90.54589844 C-2.86318893 90.53701599 -1.78619232 90.52813354 -0.67655945 90.51898193 C2.04530304 90.2149472 2.04530304 90.2149472 3.84799194 88.45600891 C5.45011742 85.04037791 5.41058329 81.85438083 5.37231445 78.15795898 C5.37596512 77.37215454 5.37961578 76.5863501 5.38337708 75.7767334 C5.39147385 73.18296606 5.37788118 70.58982511 5.36328125 67.99609375 C5.36276259 66.19295756 5.36328052 64.38982081 5.36479187 62.58668518 C5.36470219 58.80973864 5.35428024 55.03300574 5.33618164 51.25610352 C5.31347836 46.41144835 5.31295375 41.56710489 5.31969929 36.72241116 C5.32303811 33.00011925 5.31641108 29.2778986 5.30657005 25.55562019 C5.30271749 23.76901688 5.30157007 21.98240564 5.3031559 20.19579887 C5.30352614 17.7012606 5.29091874 15.20712444 5.2746582 12.71264648 C5.27713562 11.97230667 5.27961304 11.23196686 5.28216553 10.4691925 C5.24353941 6.76245775 5.11218561 5.16827842 3 2 C2.01 1.34 1.02 0.68 0 0 Z " fill="#7C2F1A" transform="translate(124,83)"/>
<path d="M0 0 C0.33 0 0.66 0 1 0 C1.60305556 7.1160556 1.60305556 7.1160556 -0.77270508 10.59838867 C-4.94737845 14.58805077 -10.70989725 13.71215187 -16.125 13.6640625 C-17.89447998 13.67123795 -17.89447998 13.67123795 -19.69970703 13.67855835 C-22.19109431 13.68195727 -24.68252619 13.67275565 -27.17382812 13.65185547 C-30.98668899 13.62509343 -34.79660568 13.65160743 -38.609375 13.68359375 C-41.0312565 13.68028966 -43.45313616 13.67388344 -45.875 13.6640625 C-47.01469238 13.67418365 -48.15438477 13.68430481 -49.32861328 13.69473267 C-57.23111666 13.57774105 -57.23111666 13.57774105 -61.1328125 10.64599609 C-62.44803772 8.78218713 -63.73465101 6.89802349 -65 5 C-64.2446698 4.99635437 -63.4893396 4.99270874 -62.71112061 4.98895264 C-55.58946433 4.95107077 -48.46833106 4.89421699 -41.34701157 4.81609726 C-37.68591277 4.77660357 -34.02505515 4.74442479 -30.36376953 4.72900391 C-26.82973078 4.71384913 -23.29635499 4.67942639 -19.76261139 4.63169098 C-17.75971038 4.60965376 -15.75662244 4.60752524 -13.75360107 4.60565186 C-11.92215546 4.57607391 -11.92215546 4.57607391 -10.05371094 4.54589844 C-8.97893494 4.53701599 -7.90415894 4.52813354 -6.79681396 4.51898193 C-3.36588358 3.88233219 -2.2298827 2.60291711 0 0 Z " fill="#993B22" transform="translate(133,174)"/>
<path d="M0 0 C12.2152519 -0.49354553 12.2152519 -0.49354553 15.86328125 1.80078125 C18.7910093 4.81414668 19 6.84629747 19 11 C17.65437601 13.94755732 16.91445456 15.54277272 14 17 C9.33091139 17.13996069 4.67201378 17.04247285 0 17 C0 11.39 0 5.78 0 0 Z " fill="#C74625" transform="translate(75,111)"/>
<path d="M0 0 C1.27779831 -0.00292557 2.55559662 -0.00585114 3.87211609 -0.00886536 C5.26216337 0.00824448 6.6522035 0.02594333 8.04223633 0.04418945 C9.46901494 0.0491141 10.89580001 0.0524125 12.32258606 0.05415344 C15.30771626 0.06178488 18.29236549 0.08232325 21.27734375 0.11328125 C25.11100366 0.15296337 28.94435154 0.17090776 32.77819347 0.18059063 C36.42875032 0.1905418 40.07923035 0.21044084 43.72973633 0.23168945 C44.7796428 0.23678308 44.7796428 0.23678308 45.85075951 0.2419796 C47.82111885 0.25350585 49.79142658 0.27302999 51.76171875 0.29296875 C52.88438644 0.30281296 54.00705414 0.31265717 55.16374207 0.32279968 C57.68676758 0.4699707 57.68676758 0.4699707 58.68676758 1.4699707 C58.82791919 4.14055921 58.72923865 6.79429308 58.68676758 9.4699707 C57.99464676 8.82122986 57.30252594 8.17248901 56.58943176 7.50408936 C53.14691467 5.09165451 51.40552019 4.95690366 47.24414062 4.92407227 C45.96319016 4.90435364 44.68223969 4.88463501 43.36247253 4.86431885 C41.97447757 4.86265594 40.58648204 4.86142494 39.19848633 4.8605957 C37.77071766 4.84560711 36.3429663 4.82887852 34.91523743 4.81048584 C31.16864202 4.76687537 27.42228047 4.74682757 23.67547607 4.73175049 C19.8477194 4.71215637 16.02021444 4.67018907 12.19262695 4.63012695 C4.6907416 4.55489339 -2.81103787 4.50456086 -10.31323242 4.4699707 C-7.07684424 0.49736442 -5.05962174 -0.0263818 0 0 Z " fill="#D5603F" transform="translate(75.313232421875,78.530029296875)"/>
<path d="M0 0 C0.75 1.75 0.75 1.75 1 4 C-1.08842552 6.7272232 -2.29909299 7.87608856 -5.72088623 8.48101807 C-6.76013245 8.47213562 -7.79937866 8.46325317 -8.87011719 8.45410156 C-10.05103943 8.45379944 -11.23196167 8.45349731 -12.44866943 8.45318604 C-13.71857727 8.43254089 -14.98848511 8.41189575 -16.296875 8.390625 C-17.60078186 8.38496521 -18.90468872 8.37930542 -20.24810791 8.37347412 C-23.70732523 8.35823338 -27.16586606 8.31896662 -30.62481689 8.2746582 C-34.15733693 8.23367087 -37.68996674 8.21545582 -41.22265625 8.1953125 C-48.14871462 8.15246968 -55.0743248 8.08423815 -62 8 C-62.66 6.68 -63.32 5.36 -64 4 C-63.24244919 3.99413376 -62.48489838 3.98826752 -61.70439148 3.98222351 C-54.5677729 3.92433762 -47.4315051 3.8522853 -40.29519939 3.76428509 C-36.62626526 3.71954286 -32.95744315 3.68029566 -29.28833008 3.65356445 C-25.74789938 3.62756926 -22.20789888 3.58719483 -18.66773415 3.53681374 C-16.65868965 3.51199022 -14.64947883 3.50209019 -12.64030457 3.49235535 C-11.41926529 3.47256119 -10.19822601 3.45276703 -8.94018555 3.43237305 C-7.86318893 3.42126999 -6.78619232 3.41016693 -5.67655945 3.39872742 C-2.70200289 2.95560733 -1.7992901 2.34803065 0 0 Z " fill="#682616" transform="translate(129,170)"/>
<path d="M0 0 C20.13 0 40.26 0 61 0 C56.49914936 4.50085064 56.49914936 4.50085064 51.63647461 4.50170898 C50.0297715 4.51578041 50.0297715 4.51578041 48.39060974 4.53013611 C47.23948196 4.51890213 46.08835419 4.50766815 44.90234375 4.49609375 C43.12362633 4.4982766 43.12362633 4.4982766 41.30897522 4.50050354 C38.80320782 4.498844 36.29743029 4.48727678 33.79174805 4.46655273 C29.94861756 4.4375838 26.10686467 4.4459466 22.26367188 4.45898438 C19.83072244 4.45274761 17.39777737 4.44435716 14.96484375 4.43359375 C13.81169174 4.43652939 12.65853973 4.43946503 11.47044373 4.44248962 C10.40246048 4.42980545 9.33447723 4.41712128 8.23413086 4.40405273 C7.29355331 4.39864975 6.35297577 4.39324677 5.38389587 4.38768005 C2.59787662 3.93460486 1.69059727 3.21582283 0 1 C0 0.67 0 0.34 0 0 Z " fill="#AA4226" transform="translate(72,183)"/>
<path d="M0 0 C1.32 0 2.64 0 4 0 C4.10126926 7.06571232 4.17141018 14.13123812 4.21972656 21.19750977 C4.23986447 23.6022033 4.2671767 26.00684775 4.30175781 28.41137695 C4.35017877 31.86421814 4.37294711 35.31641298 4.390625 38.76953125 C4.41127014 39.84773636 4.43191528 40.92594147 4.45318604 42.03681946 C4.45348816 43.03763046 4.45379028 44.03844147 4.45410156 45.06958008 C4.46298401 45.95116287 4.47186646 46.83274567 4.48101807 47.74104309 C4 50 4 50 0 53 C0 35.51 0 18.02 0 0 Z " fill="#B94829" transform="translate(134,129)"/>
<path d="M0 0 C4 3 4 3 4.48101807 5.10710144 C4.47213562 5.91762466 4.46325317 6.72814789 4.45410156 7.56323242 C4.45379944 8.48396042 4.45349731 9.40468842 4.45318604 10.35331726 C4.43254089 11.34402725 4.41189575 12.33473724 4.390625 13.35546875 C4.38496521 14.37224197 4.37930542 15.3890152 4.37347412 16.43659973 C4.35106519 19.68737672 4.30085942 22.93705559 4.25 26.1875 C4.22994089 28.38995805 4.2116891 30.59243336 4.1953125 32.79492188 C4.1511858 38.1969899 4.08422889 43.59841651 4 49 C2.68 49 1.36 49 0 49 C0 32.83 0 16.66 0 0 Z " fill="#E07C5D" transform="translate(134,80)"/>
<path d="M0 0 C6.39399334 0.48256553 6.39399334 0.48256553 8.7121582 2.46191406 C10.68829461 6.35649493 10.3690293 10.05536179 10.29296875 14.359375 C10.28872391 15.26375305 10.28447906 16.1681311 10.28010559 17.09991455 C10.26333574 19.98358139 10.22568669 22.866545 10.1875 25.75 C10.17245097 27.70702114 10.15876295 29.66405326 10.14648438 31.62109375 C10.11343774 36.41433275 10.06166705 41.20704721 10 46 C8.68 46 7.36 46 6 46 C5.98018066 44.77369873 5.96036133 43.54739746 5.93994141 42.28393555 C5.86392381 37.73831492 5.77520053 33.19301601 5.68261719 28.64770508 C5.64431153 26.67967069 5.60946145 24.7115659 5.578125 22.7434082 C5.53250889 19.91592228 5.47450902 17.08892166 5.4140625 14.26171875 C5.40251129 13.38037766 5.39096008 12.49903656 5.37905884 11.59098816 C5.35918915 10.77036392 5.33931946 9.94973969 5.31884766 9.10424805 C5.30552399 8.38254929 5.29220032 7.66085052 5.2784729 6.9172821 C5.09273845 4.67398371 5.09273845 4.67398371 3 2 C2.01 1.34 1.02 0.68 0 0 Z " fill="#8B3E28" transform="translate(124,83)"/>
</svg>
