<?xml version="1.0" encoding="UTF-8"?>
<svg version="1.1" xmlns="http://www.w3.org/2000/svg" width="256" height="256">
<path d="M0 0 C1.25165451 -0.00571014 2.50330902 -0.01142029 3.79289246 -0.01730347 C5.17246999 -0.01854869 6.55204764 -0.01967381 7.93162537 -0.02069092 C9.39070765 -0.02532254 10.84978873 -0.03034767 12.30886841 -0.03573608 C16.26792903 -0.0488326 20.22697271 -0.05530017 24.18605161 -0.05974674 C26.66381064 -0.06268311 29.1415651 -0.06678907 31.61932182 -0.07125092 C39.38382621 -0.08492127 47.14832008 -0.09458906 54.91283566 -0.09845281 C63.85248231 -0.10292656 72.79197553 -0.1204446 81.73157555 -0.1494534 C88.65580127 -0.17113595 95.57998404 -0.18116065 102.50424331 -0.18249393 C106.63274699 -0.18353765 110.76110636 -0.18935222 114.88957405 -0.20731354 C118.77941039 -0.22390737 122.66899573 -0.2258955 126.55885506 -0.21717453 C127.9777138 -0.21641005 129.39658666 -0.22066809 130.81541061 -0.23063278 C150.5520866 -0.36099095 165.50901918 5.63463774 179.90208435 19.12481689 C184.09555868 23.46514441 187.20024811 28.19592164 190.09739685 33.45294189 C190.58587097 34.32221313 190.58587097 34.32221313 191.08421326 35.20904541 C196.53005564 45.61788248 197.22785834 56.54199271 197.17308044 68.08184814 C197.17715602 69.54196564 197.18250338 71.00208004 197.18901062 72.46218872 C197.20257302 76.39198896 197.19743192 80.32155033 197.18787336 84.25135422 C197.1802188 88.38569479 197.18733833 92.52001643 197.19203186 96.65435791 C197.19747267 103.5940921 197.19034199 110.53373015 197.17601013 117.47344971 C197.15968683 125.46923178 197.16497653 133.46478428 197.18148935 141.4605608 C197.19515217 148.3552206 197.19700054 155.24981173 197.18917334 162.14448071 C197.18452307 166.24938399 197.18379837 170.35417977 197.19378281 174.45907593 C197.20252045 178.32030989 197.19630819 182.18125106 197.17910004 186.04245377 C197.17517115 187.45001873 197.17620659 188.85760883 197.18288803 190.26516342 C197.26287069 208.84361291 191.90065819 224.56032584 179.06419373 238.12896729 C166.57817914 250.59571333 150.62800502 256.32483667 133.27922058 256.42260742 C131.91416894 256.42031435 130.54911766 256.41780475 129.18406677 256.4151001 C127.72439312 256.41945463 126.26472174 256.42464023 124.80505371 256.43058777 C120.86273187 256.44391074 116.92050629 256.44456385 112.97816634 256.44202447 C109.67583687 256.44094999 106.3735265 256.44585039 103.07120115 256.45062989 C95.27352185 256.46170235 87.47589074 256.46217553 79.6782074 256.45611572 C71.6603443 256.45008014 63.64265688 256.46238156 55.62482375 256.48368579 C48.71749422 256.50135777 41.81022032 256.50729428 34.90286905 256.50404805 C30.78785025 256.50224362 26.67295673 256.50478654 22.5579586 256.51876259 C18.68446895 256.5314275 14.81125107 256.52931594 10.93776512 256.5163517 C9.52535913 256.51400492 8.11293349 256.51665154 6.70055008 256.52497482 C-11.81412317 256.626119 -27.62098898 251.32295508 -41.13331604 238.48345947 C-52.16744395 227.39263969 -59.31228469 212.71834568 -59.35554504 196.92533875 C-59.36125519 195.67368423 -59.36696533 194.42202972 -59.37284851 193.13244629 C-59.37409373 191.75286875 -59.37521886 190.3732911 -59.37623596 188.99371338 C-59.38086759 187.5346311 -59.38589271 186.07555002 -59.39128113 184.61647034 C-59.40437765 180.65740971 -59.41084521 176.69836603 -59.41529179 172.73928714 C-59.41822816 170.26152811 -59.42233412 167.78377364 -59.42679596 165.30601692 C-59.44046632 157.54151254 -59.45013411 149.77701867 -59.45399785 142.01250309 C-59.45847161 133.07285644 -59.47598964 124.13336322 -59.50499845 115.1937632 C-59.526681 108.26953748 -59.5367057 101.34535471 -59.53803897 94.42109543 C-59.5390827 90.29259175 -59.54489726 86.16423239 -59.56285858 82.03576469 C-59.57945241 78.14592835 -59.58144054 74.25634302 -59.57271957 70.36648369 C-59.57195509 68.94762495 -59.57621313 67.52875208 -59.58617783 66.10992813 C-59.7157728 46.48880248 -53.82062708 31.08730477 -40.09010315 16.95294189 C-29.38912636 6.86344949 -14.81472682 0.04058064 0 0 Z " fill="#252A38" transform="translate(59.21510314941406,-0.14044189453125)"/>
<path d="M0 0 C18.20904877 13.54338503 30.40004796 32.20373285 34.25390625 54.70703125 C36.86257702 76.79993325 33.1717016 99.08884724 19.56640625 117.1484375 C6.0498705 133.74076114 -9.25944374 144.75762632 -30.3046875 149.4453125 C-31.81482422 149.78175781 -31.81482422 149.78175781 -33.35546875 150.125 C-55.36302581 154.380766 -75.64719517 149.34068477 -94.30859375 137.546875 C-96.70272041 135.91273191 -99.01568585 134.22275696 -101.3046875 132.4453125 C-101.9440625 131.95804688 -102.5834375 131.47078125 -103.2421875 130.96875 C-104.64761423 129.85612051 -105.98619983 128.65970904 -107.3046875 127.4453125 C-107.3046875 126.7853125 -107.3046875 126.1253125 -107.3046875 125.4453125 C-107.9646875 125.4453125 -108.6246875 125.4453125 -109.3046875 125.4453125 C-109.69140625 124.66285156 -110.078125 123.88039062 -110.4765625 123.07421875 C-112.29255198 119.54562533 -113.90073571 116.56156055 -117.3046875 114.4453125 C-122.01296402 113.41654289 -126.73776041 113.50227451 -131.53417969 113.68188477 C-132.47422852 113.70951904 -133.41427734 113.73715332 -134.3828125 113.765625 C-135.23262695 113.81992676 -136.08244141 113.87422852 -136.95800781 113.93017578 C-139.3046875 113.4453125 -139.3046875 113.4453125 -141.41801453 111.4102478 C-143.76376143 107.72387082 -143.8758863 104.75358861 -143.83813477 100.52148438 C-143.85105812 99.34737755 -143.85105812 99.34737755 -143.86424255 98.14955139 C-143.88688428 95.57071557 -143.88016785 92.99296793 -143.87109375 90.4140625 C-143.87632987 88.61714353 -143.8826063 86.82022732 -143.88987732 85.02331543 C-143.90027796 81.26069182 -143.89572455 77.49844649 -143.88110352 73.73583984 C-143.86390916 68.91684314 -143.88742022 64.09903802 -143.92259312 59.28017426 C-143.94456444 55.57061887 -143.94312645 51.86134879 -143.9348278 48.15174866 C-143.93400827 46.37515454 -143.94087217 44.59853949 -143.95559883 42.82200623 C-143.97304224 40.33697453 -143.95850685 37.85408649 -143.93579102 35.36914062 C-143.94748322 34.63756241 -143.95917542 33.90598419 -143.97122192 33.15223694 C-143.89831575 29.22751769 -143.41057607 27.57655166 -140.91326904 24.48136902 C-138.05112258 22.24739938 -137.04984935 21.8780766 -133.50390625 22.08984375 C-132.61268066 22.11288574 -131.72145508 22.13592773 -130.80322266 22.15966797 C-129.87558105 22.19205566 -128.94793945 22.22444336 -127.9921875 22.2578125 C-120.7725876 22.33505001 -120.7725876 22.33505001 -114.39453125 19.41796875 C-112.45283013 16.85090862 -110.87310677 14.25261614 -109.3046875 11.4453125 C-98.27949037 -1.68611333 -81.60173427 -9.38515421 -65.3046875 -13.5546875 C-64.56089844 -13.74804688 -63.81710938 -13.94140625 -63.05078125 -14.140625 C-41.05607657 -17.45703851 -18.39133156 -12.40635587 0 0 Z " fill="#D2512F" transform="translate(182.3046875,60.5546875)"/>
<path d="M0 0 C0.82175217 -0.0087616 1.64350433 -0.01752319 2.49015808 -0.02655029 C5.19905834 -0.04850773 7.90631833 -0.03400528 10.61523438 -0.01708984 C12.50183423 -0.02045905 14.38843198 -0.02531253 16.27502441 -0.03158569 C20.22604062 -0.03895205 24.17649105 -0.02825922 28.12744141 -0.00488281 C33.18859134 0.02360491 38.2484156 0.00719966 43.30951691 -0.02274513 C47.20438604 -0.04082457 51.09894155 -0.03505713 54.99382019 -0.02210617 C56.85971738 -0.01877394 58.72564317 -0.02285282 60.59150696 -0.03450394 C63.20109317 -0.04722354 65.80854156 -0.02782195 68.41796875 0 C69.57144051 -0.01518173 69.57144051 -0.01518173 70.74821472 -0.03067017 C74.46270867 0.04259143 76.57083666 0.55554952 79.68673706 2.61758423 C82.45257843 6.76089933 82.41387029 9.88250454 82.35595703 14.76416016 C82.36471863 15.67369446 82.37348022 16.58322876 82.38250732 17.52032471 C82.40448125 20.52136191 82.38995553 23.52092095 82.37304688 26.52197266 C82.37641558 28.61035444 82.38126865 30.6987343 82.38754272 32.78710938 C82.39491135 37.16181117 82.38420855 41.53600216 82.36083984 45.91064453 C82.33235245 51.51655739 82.34875642 57.12127339 82.37870216 62.72714233 C82.39677518 67.03891 82.391017 71.35039418 82.3780632 75.66217041 C82.37472922 77.72902569 82.37881597 79.79590677 82.39046097 81.86273193 C82.40316946 84.75244249 82.38379239 87.6402186 82.35595703 90.52978516 C82.37113876 91.80949188 82.37113876 91.80949188 82.3866272 93.11505127 C82.31140929 97.33273401 82.05779125 99.16572871 79.51383972 102.67558289 C76.39694421 104.86628977 74.94726758 105.27995896 71.18432617 105.30639648 C70.10358322 105.32603958 69.02284027 105.34568268 67.90934753 105.36592102 C66.17628105 105.36002205 66.17628105 105.36002205 64.40820312 105.35400391 C63.21669144 105.36912521 62.02517975 105.38424652 60.79756165 105.39982605 C56.99701099 105.44276687 53.19725365 105.45154788 49.39648438 105.45947266 C46.81768715 105.48261177 44.23890886 105.50797586 41.66015625 105.53564453 C35.34309149 105.59856035 29.02633753 105.6334437 22.70898438 105.64697266 C22.70898438 104.98697266 22.70898438 104.32697266 22.70898438 103.64697266 C22.04898438 103.64697266 21.38898438 103.64697266 20.70898438 103.64697266 C20.32226562 102.86451172 19.93554688 102.08205078 19.53710938 101.27587891 C17.7211199 97.74728549 16.11293617 94.76322071 12.70898438 92.64697266 C8.00070786 91.61820304 3.27591146 91.70393466 -1.52050781 91.88354492 C-2.93058105 91.92499634 -2.93058105 91.92499634 -4.36914062 91.96728516 C-5.21895508 92.02158691 -6.06876953 92.07588867 -6.94433594 92.13183594 C-9.29101562 91.64697266 -9.29101562 91.64697266 -11.40434265 89.61190796 C-13.75008956 85.92553098 -13.86221442 82.95524876 -13.82446289 78.72314453 C-13.83738625 77.5490377 -13.83738625 77.5490377 -13.85057068 76.35121155 C-13.87321241 73.77237572 -13.86649598 71.19462808 -13.85742188 68.61572266 C-13.86265799 66.81880369 -13.86893443 65.02188747 -13.87620544 63.22497559 C-13.88660608 59.46235198 -13.88205267 55.70010665 -13.86743164 51.9375 C-13.85023729 47.11850329 -13.87374835 42.30069818 -13.90892124 37.48183441 C-13.93089256 33.77227902 -13.92945457 30.06300894 -13.92115593 26.35340881 C-13.92033639 24.5768147 -13.92720029 22.80019965 -13.94192696 21.02366638 C-13.95937037 18.53863469 -13.94483497 16.05574665 -13.92211914 13.57080078 C-13.93381134 12.83922256 -13.94550354 12.10764435 -13.95755005 11.35389709 C-13.88944833 7.68781326 -13.35309069 5.73771804 -11.26976013 2.69216919 C-7.48521163 0.09371019 -4.43720167 -0.05840144 0 0 Z " fill="#C23E1D" transform="translate(52.291015625,82.35302734375)"/>
<path d="M0 0 C23.25184474 -0.19874658 43.04454906 9.36981334 59.625 25.25 C75.14713313 40.84158339 82 61.393176 82 83 C55.93 83 29.86 83 3 83 C2.625 60.125 2.625 60.125 2.52197266 52.90283203 C2.4867788 51.02114418 2.4508589 49.1394697 2.4140625 47.2578125 C2.40270264 46.27482178 2.39134277 45.29183105 2.37963867 44.27905273 C2.35957764 43.34536865 2.3395166 42.41168457 2.31884766 41.44970703 C2.30552399 40.6369632 2.29220032 39.82421936 2.2784729 38.98684692 C2.17100919 36.76959942 2.17100919 36.76959942 0 35 C-0.17510386 32.34708243 -0.23155483 29.80013826 -0.1953125 27.1484375 C-0.1924826 26.37440582 -0.18965271 25.60037415 -0.18673706 24.80288696 C-0.17552754 22.32676843 -0.15042203 19.8510095 -0.125 17.375 C-0.11497118 15.69792188 -0.10584516 14.02083811 -0.09765625 12.34375 C-0.07558574 8.22902777 -0.04105102 4.11457489 0 0 Z " fill="#FE8E6A" transform="translate(135,46)"/>
<path d="M0 0 C1.16144531 0.00902344 2.32289063 0.01804688 3.51953125 0.02734375 C4.39996094 0.03894531 5.28039062 0.05054688 6.1875 0.0625 C6.217229 1.63717041 6.217229 1.63717041 6.24755859 3.24365234 C6.32352198 7.13143261 6.41225298 11.01883403 6.50488281 14.90625 C6.54321104 16.59009329 6.57805712 18.27401955 6.609375 19.95800781 C6.65494287 22.37595306 6.71294923 24.79332528 6.7734375 27.2109375 C6.78498871 27.9661972 6.79653992 28.72145691 6.80844116 29.49960327 C6.79080066 33.74075198 6.79080066 33.74075198 9.1875 37.0625 C9.42800903 39.04934692 9.42800903 39.04934692 9.41455078 41.51220703 C9.41439972 42.43301056 9.41424866 43.35381409 9.41409302 44.30252075 C9.40377045 45.29839203 9.39344788 46.29426331 9.3828125 47.3203125 C9.3799826 48.33850067 9.37715271 49.35668884 9.37423706 50.4057312 C9.3630177 53.666439 9.33790996 56.92687484 9.3125 60.1875 C9.30247247 62.39452729 9.29334623 64.60155888 9.28515625 66.80859375 C9.26307268 72.22665572 9.22957795 77.64455843 9.1875 83.0625 C7.8675 83.0625 6.5475 83.0625 5.1875 83.0625 C5.1781543 81.84143555 5.16880859 80.62037109 5.15917969 79.36230469 C5.11929077 74.82954501 5.05353507 70.29746485 4.97998047 65.76513672 C4.95176447 63.80396253 4.93055306 61.84267449 4.91650391 59.88134766 C4.89508301 57.06093023 4.84843791 54.24188257 4.796875 51.421875 C4.79564636 50.54569519 4.79441772 49.66951538 4.79315186 48.76678467 C4.77343323 47.94623596 4.7537146 47.12568726 4.73339844 46.28027344 C4.72451599 45.56079529 4.71563354 44.84131714 4.70648193 44.10003662 C3.93857885 41.08522906 2.65946007 39.91586309 0.1875 38.0625 C-2.79135648 37.4473882 -2.79135648 37.4473882 -6.14160156 37.51660156 C-7.42262756 37.49688293 -8.70365356 37.47716431 -10.02349854 37.45684814 C-11.41670692 37.45518511 -12.80991587 37.45395417 -14.203125 37.453125 C-15.63232293 37.43814099 -17.06150356 37.42141337 -18.49066162 37.40301514 C-22.24549155 37.35935319 -26.00008791 37.33934544 -29.75512695 37.32427979 C-33.58949589 37.30470426 -37.42361275 37.26273486 -41.2578125 37.22265625 C-48.77597388 37.1473669 -56.29402941 37.09706812 -63.8125 37.0625 C-62.8604397 35.61535423 -61.90585072 34.16987184 -60.95019531 32.72509766 C-60.41888 31.91996735 -59.8875647 31.11483704 -59.34014893 30.28530884 C-48.13196831 13.97682166 -28.18632997 5.00017265 -9.56079102 0.52099609 C-6.33174402 -0.01770429 -3.27216867 -0.03305221 0 0 Z " fill="#EB6B46" transform="translate(128.8125,45.9375)"/>
<path d="M0 0 C25 0 25 0 34 4 C38.47631057 8.7001261 39.42768872 11.9789409 39.3359375 18.328125 C38.68743784 23.48595947 36.27826266 26.96850131 32.44921875 30.3828125 C25.84967477 34.56788917 17.43829107 33.24794304 10 33 C10 38.94 10 44.88 10 51 C6.7 51 3.4 51 0 51 C0 34.17 0 17.34 0 0 Z " fill="#FCF7F6" transform="translate(65,103)"/>
<path d="M0 0 C6.40696129 0.48354425 6.40696129 0.48354425 8.70422363 2.48414612 C10.65422027 6.27022119 10.43429487 9.801857 10.41992188 14.00366211 C10.42839142 14.91305038 10.43686096 15.82243866 10.44558716 16.75938416 C10.46898645 19.76551294 10.46997863 22.77113078 10.46875 25.77734375 C10.47584969 27.86715399 10.48354841 29.95696227 10.49182129 32.04676819 C10.50527277 36.42731139 10.50683179 40.80767434 10.50097656 45.18823242 C10.49507926 50.80195136 10.52567061 56.41480581 10.56609344 62.02835751 C10.59194188 66.34437215 10.59485045 70.66017785 10.59120178 74.97625923 C10.59289564 77.04592627 10.60256359 79.11560268 10.62034607 81.18519402 C10.64247959 84.07969921 10.6328624 86.97244423 10.61523438 89.86694336 C10.62849762 90.72165222 10.64176086 91.57636108 10.65542603 92.45697021 C10.59563287 96.6820038 10.35324027 98.51203881 7.80683899 102.02960205 C4.68889667 104.2183942 3.23806022 104.63298787 -0.5246582 104.65942383 C-1.60540115 104.67906693 -2.6861441 104.69871002 -3.79963684 104.71894836 C-5.53270332 104.71304939 -5.53270332 104.71304939 -7.30078125 104.70703125 C-8.49229294 104.72215256 -9.68380463 104.73727386 -10.91142273 104.75285339 C-14.71197338 104.79579421 -18.51173073 104.80457523 -22.3125 104.8125 C-24.89129723 104.83563911 -27.47007552 104.86100321 -30.04882812 104.88867188 C-36.36589289 104.9515877 -42.68264684 104.98647104 -49 105 C-49 104.34 -49 103.68 -49 103 C-49.66 103 -50.32 103 -51 103 C-52.44300327 101.24115867 -53.80691214 99.41679923 -55.125 97.5625 C-55.84945312 96.55316406 -56.57390625 95.54382813 -57.3203125 94.50390625 C-59 92 -59 92 -59 91 C-58.24244919 90.99635437 -57.48489838 90.99270874 -56.70439148 90.98895264 C-49.56770734 90.95109739 -42.43154666 90.89427408 -35.29519939 90.81609726 C-31.62622466 90.77657492 -27.95749162 90.74441026 -24.28833008 90.72900391 C-20.74781155 90.71386791 -17.20795727 90.67947887 -13.66773415 90.63169098 C-11.65869347 90.60961645 -9.64946564 90.60752363 -7.64030457 90.60565186 C-6.41926529 90.58593323 -5.19822601 90.5662146 -3.94018555 90.54589844 C-2.86318893 90.53701599 -1.78619232 90.52813354 -0.67655945 90.51898193 C2.04530304 90.2149472 2.04530304 90.2149472 3.84799194 88.45600891 C5.45011742 85.04037791 5.41058329 81.85438083 5.37231445 78.15795898 C5.37596512 77.37215454 5.37961578 76.5863501 5.38337708 75.7767334 C5.39147385 73.18296606 5.37788118 70.58982511 5.36328125 67.99609375 C5.36276259 66.19295756 5.36328052 64.38982081 5.36479187 62.58668518 C5.36470219 58.80973864 5.35428024 55.03300574 5.33618164 51.25610352 C5.31347836 46.41144835 5.31295375 41.56710489 5.31969929 36.72241116 C5.32303811 33.00011925 5.31641108 29.2778986 5.30657005 25.55562019 C5.30271749 23.76901688 5.30157007 21.98240564 5.3031559 20.19579887 C5.30352614 17.7012606 5.29091874 15.20712444 5.2746582 12.71264648 C5.27713562 11.97230667 5.27961304 11.23196686 5.28216553 10.4691925 C5.24353941 6.76245775 5.11218561 5.16827842 3 2 C2.01 1.34 1.02 0.68 0 0 Z " fill="#7C2F1A" transform="translate(124,83)"/>
<path d="M0 0 C0.33 0 0.66 0 1 0 C1.60270952 7.11197234 1.60270952 7.11197234 -0.76171875 10.59570312 C-4.96554399 14.61487319 -10.84869336 13.72558894 -16.30078125 13.70703125 C-17.49229294 13.72215256 -18.68380463 13.73727386 -19.91142273 13.75285339 C-23.71197338 13.79579421 -27.51173073 13.80457523 -31.3125 13.8125 C-33.89129723 13.83563911 -36.47007552 13.86100321 -39.04882812 13.88867188 C-45.36589289 13.9515877 -51.68264684 13.98647104 -58 14 C-58 13.34 -58 12.68 -58 12 C-58.66 12 -59.32 12 -60 12 C-64 7.52941176 -64 7.52941176 -64 5 C-62.88579681 4.99453156 -62.88579681 4.99453156 -61.74908447 4.98895264 C-54.74517014 4.95106904 -47.74172601 4.89421287 -40.73816299 4.81609726 C-37.13759807 4.77660548 -33.5372783 4.74442579 -29.93652344 4.72900391 C-26.4608341 4.71384782 -22.98581867 4.6794229 -19.51042938 4.63169098 C-17.5407688 4.60965628 -15.5709182 4.60752535 -13.60113525 4.60565186 C-12.40019226 4.58593323 -11.19924927 4.5662146 -9.96191406 4.54589844 C-8.90490295 4.53701599 -7.84789185 4.52813354 -6.7588501 4.51898193 C-3.35712279 3.87906496 -2.2164176 2.57841566 0 0 Z " fill="#983B21" transform="translate(133,174)"/>
<path d="M0 0 C12.2152519 -0.49354553 12.2152519 -0.49354553 15.86328125 1.80078125 C18.7910093 4.81414668 19 6.84629747 19 11 C17.65437601 13.94755732 16.91445456 15.54277272 14 17 C9.33091139 17.13996069 4.67201378 17.04247285 0 17 C0 11.39 0 5.78 0 0 Z " fill="#C74625" transform="translate(75,111)"/>
<path d="M0 0 C1.71755997 0.03877762 1.71755997 0.03877762 3.46981812 0.07833862 C4.76771271 0.09550934 6.0656073 0.11268005 7.40283203 0.13037109 C8.82020174 0.17468216 10.23754976 0.21969187 11.65487671 0.26535034 C13.1054694 0.29458073 14.55610554 0.32172353 16.0067749 0.34686279 C19.82447489 0.41927652 23.64074925 0.52282884 27.45755005 0.63198853 C30.58036369 0.71592333 33.70343051 0.7773746 36.8267765 0.83769417 C40.54048926 0.90995486 44.25394203 0.99259889 47.96737671 1.07785034 C48.67990223 1.09383396 49.39242775 1.10981758 50.12654495 1.12628555 C52.13303707 1.17369446 54.13933004 1.22931992 56.14559937 1.28536987 C57.28904816 1.31599518 58.43249695 1.34662048 59.6105957 1.37817383 C62.17831421 1.57003784 62.17831421 1.57003784 63.17831421 2.57003784 C63.31946582 5.24062635 63.22078528 7.89436022 63.17831421 10.57003784 C62.48619339 9.921297 61.79407257 9.27255615 61.08097839 8.60415649 C57.6384613 6.19172165 55.89706682 6.0569708 51.73568726 6.0241394 C50.45473679 6.00442078 49.17378632 5.98470215 47.85401917 5.96438599 C46.4660242 5.96272308 45.07802867 5.96149208 43.69003296 5.96066284 C42.26226429 5.94567425 40.83451293 5.92894566 39.40678406 5.91055298 C35.66018865 5.86694251 31.9138271 5.84689471 28.16702271 5.83181763 C24.33926603 5.81222351 20.51176107 5.77025621 16.68417358 5.73019409 C9.18228823 5.65496053 1.68050876 5.604628 -5.82168579 5.57003784 C-3.65613426 0.73861338 -3.65613426 0.73861338 0 0 Z " fill="#D5603F" transform="translate(70.82168579101563,77.42996215820313)"/>
<path d="M0 0 C0.75 1.75 0.75 1.75 1 4 C-1.08842552 6.7272232 -2.29909299 7.87608856 -5.72088623 8.48101807 C-6.76013245 8.47213562 -7.79937866 8.46325317 -8.87011719 8.45410156 C-10.05103943 8.45379944 -11.23196167 8.45349731 -12.44866943 8.45318604 C-13.71857727 8.43254089 -14.98848511 8.41189575 -16.296875 8.390625 C-17.60078186 8.38496521 -18.90468872 8.37930542 -20.24810791 8.37347412 C-23.70732523 8.35823338 -27.16586606 8.31896662 -30.62481689 8.2746582 C-34.15733693 8.23367087 -37.68996674 8.21545582 -41.22265625 8.1953125 C-48.14871462 8.15246968 -55.0743248 8.08423815 -62 8 C-62.66 6.68 -63.32 5.36 -64 4 C-63.24244919 3.99413376 -62.48489838 3.98826752 -61.70439148 3.98222351 C-54.5677729 3.92433762 -47.4315051 3.8522853 -40.29519939 3.76428509 C-36.62626526 3.71954286 -32.95744315 3.68029566 -29.28833008 3.65356445 C-25.74789938 3.62756926 -22.20789888 3.58719483 -18.66773415 3.53681374 C-16.65868965 3.51199022 -14.64947883 3.50209019 -12.64030457 3.49235535 C-11.41926529 3.47256119 -10.19822601 3.45276703 -8.94018555 3.43237305 C-7.86318893 3.42126999 -6.78619232 3.41016693 -5.67655945 3.39872742 C-2.70200289 2.95560733 -1.7992901 2.34803065 0 0 Z " fill="#682615" transform="translate(129,170)"/>
<path d="M0 0 C20.13 0 40.26 0 61 0 C56.5 4.5 56.5 4.5 51.58886719 4.54589844 C50.50804871 4.56561707 49.42723022 4.58533569 48.31365967 4.60565186 C47.15312073 4.60688049 45.99258179 4.60810913 44.796875 4.609375 C43.60394836 4.62591125 42.41102173 4.64244751 41.1819458 4.65948486 C37.3712454 4.7080753 33.5609444 4.72936138 29.75 4.75 C27.16664645 4.77815027 24.5833116 4.80807635 22 4.83984375 C15.66673944 4.91383747 9.33359172 4.96541527 3 5 C3 4.34 3 3.68 3 3 C2.34 3 1.68 3 1 3 C0.67 2.01 0.34 1.02 0 0 Z " fill="#A94226" transform="translate(72,183)"/>
<path d="M0 0 C0.33 0 0.66 0 1 0 C1.01981934 1.04978027 1.03963867 2.09956055 1.06005859 3.18115234 C1.13602198 7.06893261 1.22475298 10.95633403 1.31738281 14.84375 C1.35571104 16.52759329 1.39055712 18.21151955 1.421875 19.89550781 C1.46744287 22.31345306 1.52544923 24.73082528 1.5859375 27.1484375 C1.59748871 27.9036972 1.60903992 28.65895691 1.62094116 29.43710327 C1.60330066 33.67825198 1.60330066 33.67825198 4 37 C4.24050903 38.98684692 4.24050903 38.98684692 4.22705078 41.44970703 C4.22689972 42.37051056 4.22674866 43.29131409 4.22659302 44.24002075 C4.21627045 45.23589203 4.20594788 46.23176331 4.1953125 47.2578125 C4.1924826 48.27600067 4.18965271 49.29418884 4.18673706 50.3432312 C4.1755177 53.603939 4.15040996 56.86437484 4.125 60.125 C4.11497247 62.33202729 4.10584623 64.53905888 4.09765625 66.74609375 C4.07557268 72.16415572 4.04207795 77.58205843 4 83 C2.68 83 1.36 83 0 83 C0 55.61 0 28.22 0 0 Z " fill="#E47D5D" transform="translate(134,46)"/>
<path d="M0 0 C1.32 0 2.64 0 4 0 C4.10137822 6.90498319 4.1714562 13.80977465 4.21972656 20.71533203 C4.23984814 23.06468884 4.26714851 25.41399554 4.30175781 27.76318359 C4.3502504 31.13912315 4.37296357 34.51440086 4.390625 37.890625 C4.41127014 38.94179504 4.43191528 39.99296509 4.45318604 41.07598877 C4.45348816 42.05670349 4.45379028 43.03741821 4.45410156 44.04785156 C4.46298401 44.90944885 4.47186646 45.77104614 4.48101807 46.65875244 C4 49 4 49 0 53 C0 35.51 0 18.02 0 0 Z " fill="#B94829" transform="translate(134,129)"/>
<path d="M0 0 C6.39399334 0.48256553 6.39399334 0.48256553 8.7121582 2.46191406 C10.68829461 6.35649493 10.3690293 10.05536179 10.29296875 14.359375 C10.28872391 15.26375305 10.28447906 16.1681311 10.28010559 17.09991455 C10.26333574 19.98358139 10.22568669 22.866545 10.1875 25.75 C10.17245097 27.70702114 10.15876295 29.66405326 10.14648438 31.62109375 C10.11343774 36.41433275 10.06166705 41.20704721 10 46 C8.68 46 7.36 46 6 46 C5.98018066 44.77369873 5.96036133 43.54739746 5.93994141 42.28393555 C5.86392381 37.73831492 5.77520053 33.19301601 5.68261719 28.64770508 C5.64431153 26.67967069 5.60946145 24.7115659 5.578125 22.7434082 C5.53250889 19.91592228 5.47450902 17.08892166 5.4140625 14.26171875 C5.40251129 13.38037766 5.39096008 12.49903656 5.37905884 11.59098816 C5.35918915 10.77036392 5.33931946 9.94973969 5.31884766 9.10424805 C5.30552399 8.38254929 5.29220032 7.66085052 5.2784729 6.9172821 C5.09273845 4.67398371 5.09273845 4.67398371 3 2 C2.01 1.34 1.02 0.68 0 0 Z " fill="#8B3E28" transform="translate(124,83)"/>
</svg>
