<?xml version="1.0" encoding="UTF-8"?>
<svg version="1.1" xmlns="http://www.w3.org/2000/svg" width="256" height="256">
<path d="M0 0 C1.25165451 -0.00571014 2.50330902 -0.01142029 3.79289246 -0.01730347 C5.17246999 -0.01854869 6.55204764 -0.01967381 7.93162537 -0.02069092 C9.39070765 -0.02532254 10.84978873 -0.03034767 12.30886841 -0.03573608 C16.26792903 -0.0488326 20.22697271 -0.05530017 24.18605161 -0.05974674 C26.66381064 -0.06268311 29.1415651 -0.06678907 31.61932182 -0.07125092 C39.38382621 -0.08492127 47.14832008 -0.09458906 54.91283566 -0.09845281 C63.85248231 -0.10292656 72.79197553 -0.1204446 81.73157555 -0.1494534 C88.65580127 -0.17113595 95.57998404 -0.18116065 102.50424331 -0.18249393 C106.63274699 -0.18353765 110.76110636 -0.18935222 114.88957405 -0.20731354 C118.77941039 -0.22390737 122.66899573 -0.2258955 126.55885506 -0.21717453 C127.9777138 -0.21641005 129.39658666 -0.22066809 130.81541061 -0.23063278 C150.5520866 -0.36099095 165.50901918 5.63463774 179.90208435 19.12481689 C184.09555868 23.46514441 187.20024811 28.19592164 190.09739685 33.45294189 C190.58587097 34.32221313 190.58587097 34.32221313 191.08421326 35.20904541 C196.53005564 45.61788248 197.22785834 56.54199271 197.17308044 68.08184814 C197.17715602 69.54196564 197.18250338 71.00208004 197.18901062 72.46218872 C197.20257302 76.39198896 197.19743192 80.32155033 197.18787336 84.25135422 C197.1802188 88.38569479 197.18733833 92.52001643 197.19203186 96.65435791 C197.19747267 103.5940921 197.19034199 110.53373015 197.17601013 117.47344971 C197.15968683 125.46923178 197.16497653 133.46478428 197.18148935 141.4605608 C197.19515217 148.3552206 197.19700054 155.24981173 197.18917334 162.14448071 C197.18452307 166.24938399 197.18379837 170.35417977 197.19378281 174.45907593 C197.20252045 178.32030989 197.19630819 182.18125106 197.17910004 186.04245377 C197.17517115 187.45001873 197.17620659 188.85760883 197.18288803 190.26516342 C197.26287069 208.84361291 191.90065819 224.56032584 179.06419373 238.12896729 C166.57817914 250.59571333 150.62800502 256.32483667 133.27922058 256.42260742 C131.91416894 256.42031435 130.54911766 256.41780475 129.18406677 256.4151001 C127.72439312 256.41945463 126.26472174 256.42464023 124.80505371 256.43058777 C120.86273187 256.44391074 116.92050629 256.44456385 112.97816634 256.44202447 C109.67583687 256.44094999 106.3735265 256.44585039 103.07120115 256.45062989 C95.27352185 256.46170235 87.47589074 256.46217553 79.6782074 256.45611572 C71.6603443 256.45008014 63.64265688 256.46238156 55.62482375 256.48368579 C48.71749422 256.50135777 41.81022032 256.50729428 34.90286905 256.50404805 C30.78785025 256.50224362 26.67295673 256.50478654 22.5579586 256.51876259 C18.68446895 256.5314275 14.81125107 256.52931594 10.93776512 256.5163517 C9.52535913 256.51400492 8.11293349 256.51665154 6.70055008 256.52497482 C-11.81412317 256.626119 -27.62098898 251.32295508 -41.13331604 238.48345947 C-52.16744395 227.39263969 -59.31228469 212.71834568 -59.35554504 196.92533875 C-59.36125519 195.67368423 -59.36696533 194.42202972 -59.37284851 193.13244629 C-59.37409373 191.75286875 -59.37521886 190.3732911 -59.37623596 188.99371338 C-59.38086759 187.5346311 -59.38589271 186.07555002 -59.39128113 184.61647034 C-59.40437765 180.65740971 -59.41084521 176.69836603 -59.41529179 172.73928714 C-59.41822816 170.26152811 -59.42233412 167.78377364 -59.42679596 165.30601692 C-59.44046632 157.54151254 -59.45013411 149.77701867 -59.45399785 142.01250309 C-59.45847161 133.07285644 -59.47598964 124.13336322 -59.50499845 115.1937632 C-59.526681 108.26953748 -59.5367057 101.34535471 -59.53803897 94.42109543 C-59.5390827 90.29259175 -59.54489726 86.16423239 -59.56285858 82.03576469 C-59.57945241 78.14592835 -59.58144054 74.25634302 -59.57271957 70.36648369 C-59.57195509 68.94762495 -59.57621313 67.52875208 -59.58617783 66.10992813 C-59.7157728 46.48880248 -53.82062708 31.08730477 -40.09010315 16.95294189 C-29.38912636 6.86344949 -14.81472682 0.04058064 0 0 Z " fill="#ED3125" transform="translate(59.21510314941406,-0.14044189453125)"/>
<path d="M0 0 C0.88945313 -0.01224609 1.77890625 -0.02449219 2.6953125 -0.03710938 C8.29369472 -0.04945875 12.99907058 0.62693137 18.375 2.1875 C19.25027344 2.38730469 20.12554687 2.58710937 21.02734375 2.79296875 C27.62969572 4.47459344 32.42703738 7.51004103 37.375 12.1875 C39.31190902 16.06131804 39.0042753 19.97786525 38.375 24.1875 C31.2145281 44.78611779 14.23707613 57.19953637 -3.625 68.1875 C-4.39972656 68.70054687 -5.17445312 69.21359375 -5.97265625 69.7421875 C-12.83774504 74.16610115 -20.12866265 76.79420267 -27.77734375 79.51464844 C-30.25684372 80.41759531 -32.68946689 81.42269454 -35.125 82.4375 C-42.00882816 85.2002404 -48.18794199 86.45310921 -55.625 86.1875 C-55.22757816 79.18800922 -53.0196457 74.23693065 -49.6875 68.125 C-49.19169434 67.20033936 -48.69588867 66.27567871 -48.18505859 65.32299805 C-43.79487244 57.2594051 -38.93582996 49.66681065 -33.625 42.1875 C-33.0902002 41.42179687 -32.55540039 40.65609375 -32.00439453 39.8671875 C-30.28375414 37.404243 -28.55067948 34.9505924 -26.8125 32.5 C-26.27318848 31.73276611 -25.73387695 30.96553223 -25.17822266 30.17504883 C-22.36637907 26.26544265 -19.76997374 22.78410338 -15.625 20.1875 C-14.305 20.1875 -12.985 20.1875 -11.625 20.1875 C-11.74103429 27.38162576 -13.48287873 30.96798456 -17.79296875 36.65625 C-20.07657268 39.81142132 -21.69940032 43.09528804 -23.36328125 46.60546875 C-25.1945344 50.35301776 -27.29625857 53.94111012 -29.390625 57.546875 C-30.7435321 60.44106866 -31.23708819 63.02878958 -31.625 66.1875 C-15.22201166 64.67570384 1.44971613 51.49775752 11.79296875 39.23828125 C13.20304436 37.41040546 14.50067161 35.56486626 15.75 33.625 C16.28625 32.820625 16.8225 32.01625 17.375 31.1875 C18.035 31.1875 18.695 31.1875 19.375 31.1875 C19.34179516 29.43669913 19.27220607 27.68656579 19.1875 25.9375 C19.15269531 24.96296875 19.11789063 23.9884375 19.08203125 22.984375 C18.1249518 19.19835904 16.57258534 18.36979365 13.375 16.1875 C2.8365884 12.04848532 -7.76223572 11.56846826 -18.9375 11.5 C-21.17013387 11.47083572 -23.40257042 11.43639344 -25.63505554 11.39750671 C-27.62546632 11.36511707 -29.61609175 11.34680819 -31.60668945 11.3293457 C-34.625 11.1875 -34.625 11.1875 -36.625 10.1875 C-36.5 8.375 -36.5 8.375 -35.625 6.1875 C-25.57658704 -0.34396843 -11.55766389 0.00844858 0 0 Z " fill="#FDF5F4" transform="translate(97.625,122.8125)"/>
<path d="M0 0 C1.43061768 0.00519653 1.43061768 0.00519653 2.89013672 0.01049805 C9.25818576 0.10627808 15.46354047 0.60552124 21.75 1.625 C22.48911621 1.74254639 23.22823242 1.86009277 23.98974609 1.98120117 C27.90473726 2.7001593 30.67923771 3.58805146 33.625 6.3125 C33.295 7.3025 32.965 8.2925 32.625 9.3125 C29.36148228 10.62199778 25.90308952 10.482594 22.42578125 10.55859375 C21.21599609 10.59146484 20.00621094 10.62433594 18.75976562 10.65820312 C16.23119996 10.71893005 13.7025506 10.77627552 11.17382812 10.83007812 C2.83713493 11.06423008 -4.90157291 11.35329511 -12.375 15.3125 C-10.90413002 26.71174232 -3.33732934 33.27097018 4.12109375 41.46875 C7.15054768 44.90937787 10.05863782 48.43303882 12.9375 52 C13.44120117 52.61770264 13.94490234 53.23540527 14.46386719 53.87182617 C19.97094086 60.75566826 23.51513986 66.31586113 23.20703125 75.43359375 C22.23185167 80.25713301 19.55749412 82.58383061 15.625 85.3125 C6.33726725 91.43396022 -6.05026915 90.6581499 -16.76171875 90.62817383 C-19.10724881 90.62502384 -21.45150072 90.64851656 -23.796875 90.67382812 C-33.55497119 90.71474553 -42.96165239 90.10359161 -52.375 87.3125 C-53.035 86.6525 -53.695 85.9925 -54.375 85.3125 C-54.1875 83.25 -54.1875 83.25 -53.375 81.3125 C-50.60100588 80.38783529 -48.78276718 80.15595508 -45.90698242 80.07885742 C-44.55493965 80.03827461 -44.55493965 80.03827461 -43.17558289 79.99687195 C-42.20369522 79.97083389 -41.23180756 79.94479584 -40.23046875 79.91796875 C-38.1711947 79.84917769 -36.11195051 79.779488 -34.05273438 79.70898438 C-30.80734447 79.60171296 -27.56218517 79.49999164 -24.31616211 79.41381836 C-21.18261274 79.32822571 -18.05062314 79.21876074 -14.91796875 79.10546875 C-13.95215378 79.08550339 -12.98633881 79.06553802 -11.99125671 79.04496765 C-6.23707293 78.81430149 -2.72932457 78.20534515 1.625 74.3125 C2.53215302 71.13746441 2.63438182 70.32391538 1.625 67.3125 C-2.31991962 60.56161393 -7.59924806 54.90859863 -12.87109375 49.1875 C-15.97869055 45.61933893 -18.84388604 41.90506341 -21.6875 38.125 C-22.19120117 37.45960205 -22.69490234 36.7942041 -23.21386719 36.10864258 C-28.28255093 29.2987627 -32.2373676 23.77124531 -31.88671875 14.96875 C-31.03589725 10.55227197 -28.88556811 8.01710987 -25.375 5.3125 C-17.24413908 0.94592654 -9.06038955 -0.0536734 0 0 Z " fill="#FEF7F7" transform="translate(176.375,100.6875)"/>
<path d="M0 0 C1.92875977 0.01353516 1.92875977 0.01353516 3.89648438 0.02734375 C7.03535732 0.0506811 10.17382476 0.08341967 13.3125 0.125 C13.3125 0.785 13.3125 1.445 13.3125 2.125 C14.7975 2.24875 14.7975 2.24875 16.3125 2.375 C22.57043292 3.27624389 28.34673888 6.14852654 32.3125 11.125 C33.6443257 17.13370198 33.37624015 22.88485757 30.7265625 28.46484375 C28.72985967 31.498149 26.61246583 34.3162666 24.3125 37.125 C23.82394531 37.77984375 23.33539063 38.4346875 22.83203125 39.109375 C12.22808703 52.66749722 -6.49886808 64.40691013 -22.6875 70.125 C-26.12109375 70.3046875 -26.12109375 70.3046875 -28.6875 70.125 C-27.26045694 62.1196365 -18.6862063 57.5995957 -12.5234375 53.2265625 C-7.95118696 49.83831073 -3.82255299 46.02651179 0.3125 42.125 C1.04726562 41.4546875 1.78203125 40.784375 2.5390625 40.09375 C7.58806852 35.328396 12.69601215 29.93680777 13.61328125 22.77734375 C13.66146465 20.35485862 13.66146465 20.35485862 13.3125 17.125 C10.6725 16.135 8.0325 15.145 5.3125 14.125 C5.3125 13.465 5.3125 12.805 5.3125 12.125 C4.17184082 12.06965088 3.03118164 12.01430176 1.85595703 11.95727539 C-2.36725555 11.75116945 -6.59015683 11.53920084 -10.81298828 11.32543945 C-12.64233547 11.23366347 -14.47176365 11.14348768 -16.30126953 11.05493164 C-18.92763736 10.92752789 -21.55366221 10.79441321 -24.1796875 10.66015625 C-25.00056854 10.62156998 -25.82144958 10.5829837 -26.66720581 10.54322815 C-32.45975659 10.23887171 -32.45975659 10.23887171 -34.6875 9.125 C-34.3984375 7.2265625 -34.3984375 7.2265625 -33.6875 5.125 C-23.0516482 0.00403432 -11.59217312 -0.15624495 0 0 Z " fill="#FDF4F4" transform="translate(132.6875,45.875)"/>
<path d="M0 0 C0.66 0 1.32 0 2 0 C2 0.99 2 1.98 2 3 C3.10456543 3.029729 3.10456543 3.029729 4.23144531 3.06005859 C7.57132056 3.15537828 10.91057639 3.26502996 14.25 3.375 C15.40886719 3.4059375 16.56773438 3.436875 17.76171875 3.46875 C19.43427734 3.52675781 19.43427734 3.52675781 21.140625 3.5859375 C22.16704102 3.6173584 23.19345703 3.6487793 24.25097656 3.68115234 C26.96867073 3.99636625 28.66924435 4.61032351 31 6 C26.76396537 5.88184693 22.52816674 5.75760568 18.29248047 5.62768555 C16.8511238 5.58433769 15.40971582 5.54266248 13.96826172 5.50268555 C11.89795459 5.44497912 9.82790568 5.38128629 7.7578125 5.31640625 C5.88826904 5.26141968 5.88826904 5.26141968 3.98095703 5.20532227 C1 5 1 5 -1 4 C-0.67 2.68 -0.34 1.36 0 0 Z " fill="#FBD7D5" transform="translate(99,51)"/>
<path d="M0 0 C0.66 0 1.32 0 2 0 C2 0.99 2 1.98 2 3 C14.87 3.495 14.87 3.495 28 4 C28 4.33 28 4.66 28 5 C23.54168018 5.02891546 19.08338431 5.04676981 14.625 5.0625 C13.35398437 5.07087891 12.08296875 5.07925781 10.7734375 5.08789062 C8.95585938 5.09272461 8.95585938 5.09272461 7.1015625 5.09765625 C5.42054443 5.10551147 5.42054443 5.10551147 3.70556641 5.11352539 C1 5 1 5 -1 4 C-0.67 2.68 -0.34 1.36 0 0 Z " fill="#FDDFDC" transform="translate(62,129)"/>
<path d="M0 0 C0 0.66 0 1.32 0 2 C-3.47279404 3.15759801 -5.98038824 3.02260483 -9.63671875 2.87890625 C-10.93544922 2.83056641 -12.23417969 2.78222656 -13.57226562 2.73242188 C-14.94401533 2.67590048 -16.31576007 2.61925831 -17.6875 2.5625 C-19.07094416 2.50925949 -20.45440766 2.45651922 -21.83789062 2.40429688 C-25.22548325 2.27445883 -28.61279314 2.13948625 -32 2 C-32 1.67 -32 1.34 -32 1 C-27.41670862 0.83216619 -22.83336053 0.6659338 -18.25 0.5 C-16.94804687 0.45230469 -15.64609375 0.40460938 -14.3046875 0.35546875 C-12.42910156 0.28779297 -12.42910156 0.28779297 -10.515625 0.21875 C-9.36352539 0.17685547 -8.21142578 0.13496094 -7.02441406 0.09179688 C-4.68382066 0.02075529 -2.34167128 0 0 0 Z " fill="#F0756C" transform="translate(209,110)"/>
<path d="M0 0 C-1.08183897 2.52429092 -1.94182148 3.9506364 -4.0625 5.75 C-6.61664331 8.7161019 -6.4174767 10.39803592 -6.25 14.25 C-6.21390625 15.32765625 -6.1778125 16.4053125 -6.140625 17.515625 C-6.09421875 18.33546875 -6.0478125 19.1553125 -6 20 C-8.53722054 17.46277946 -8.38319839 16.34088191 -8.5 12.8125 C-8.43018884 7.50685163 -7.15473777 4.9059735 -3.5078125 1.14453125 C-2 0 -2 0 0 0 Z " fill="#FAD2CF" transform="translate(153,106)"/>
<path d="M0 0 C0.33 0.66 0.66 1.32 1 2 C-1.78999451 5.48749314 -4.25235831 8.50157221 -8 11 C-8.66 10.67 -9.32 10.34 -10 10 C-9.44570312 9.52949219 -8.89140625 9.05898437 -8.3203125 8.57421875 C-7.59585938 7.95160156 -6.87140625 7.32898438 -6.125 6.6875 C-5.40570313 6.07261719 -4.68640625 5.45773438 -3.9453125 4.82421875 C-1.80820669 2.9587676 -1.80820669 2.9587676 0 0 Z " fill="#ED584E" transform="translate(154,85)"/>
</svg>
