<?xml version="1.0" encoding="UTF-8"?>
<!DOCTYPE svg PUBLIC "-//W3C//DTD SVG 1.1//EN" "http://www.w3.org/Graphics/SVG/1.1/DTD/svg11.dtd">
<svg xmlns="http://www.w3.org/2000/svg" version="1.1" width="256px" height="256px" style="shape-rendering:geometricPrecision; text-rendering:geometricPrecision; image-rendering:optimizeQuality; fill-rule:evenodd; clip-rule:evenodd" xmlns:xlink="http://www.w3.org/1999/xlink">
<g><path style="opacity:0.998" fill="#f3f1ed" d="M 52.5,-0.5 C 102.5,-0.5 152.5,-0.5 202.5,-0.5C 231.14,6.13989 248.807,23.8066 255.5,52.5C 255.5,102.5 255.5,152.5 255.5,202.5C 248.833,231.167 231.167,248.833 202.5,255.5C 152.5,255.5 102.5,255.5 52.5,255.5C 23.8066,248.807 6.13989,231.14 -0.5,202.5C -0.5,152.5 -0.5,102.5 -0.5,52.5C 6.16667,23.8333 23.8333,6.16667 52.5,-0.5 Z"/></g>
<g><path style="opacity:1" fill="#41a5ed" d="M 216.5,86.5 C 190.167,86.5 163.833,86.5 137.5,86.5C 137.673,82.8296 136.007,80.3296 132.5,79C 115.17,78.5001 97.8365,78.3334 80.5,78.5C 80.5,79.8333 80.5,81.1667 80.5,82.5C 80.1667,82.5 79.8333,82.5 79.5,82.5C 79.3335,71.8281 79.5002,61.1615 80,50.5C 80.9476,48.4299 82.4476,46.9299 84.5,46C 126.833,45.3333 169.167,45.3333 211.5,46C 213.286,46.7845 214.786,47.9512 216,49.5C 216.5,61.8288 216.667,74.1622 216.5,86.5 Z"/></g>
<g><path style="opacity:1" fill="#3a94d6" d="M 137.5,86.5 C 135.833,86.5 134.167,86.5 132.5,86.5C 130.685,83.5926 128.019,82.2593 124.5,82.5C 109.833,82.5 95.1667,82.5 80.5,82.5C 80.5,81.1667 80.5,79.8333 80.5,78.5C 97.8365,78.3334 115.17,78.5001 132.5,79C 136.007,80.3296 137.673,82.8296 137.5,86.5 Z"/></g>
<g><path style="opacity:1" fill="#2366c2" d="M 79.5,82.5 C 79.8333,82.5 80.1667,82.5 80.5,82.5C 95.1667,82.5 109.833,82.5 124.5,82.5C 124.5,82.8333 124.5,83.1667 124.5,83.5C 111.829,83.3334 99.1623,83.5001 86.5,84C 75.5703,90.2875 64.9036,96.7875 54.5,103.5C 53.5084,103.328 52.8417,103.662 52.5,104.5C 47.5499,106.308 42.8832,108.642 38.5,111.5C 38.3336,103.493 38.5003,95.4931 39,87.5C 39.4652,86.0692 40.2986,84.9025 41.5,84C 54.0668,82.5391 66.7335,82.0391 79.5,82.5 Z"/></g>
<g><path style="opacity:1" fill="#1e60bf" d="M 124.5,83.5 C 126.752,83.9156 128.252,85.249 129,87.5C 129.5,96.8274 129.666,106.161 129.5,115.5C 128.751,116.531 128.085,117.698 127.5,119C 121.333,122.36 115.333,125.86 109.5,129.5C 111.627,120.867 113.627,112.2 115.5,103.5C 112.223,103.216 109.057,103.549 106,104.5C 103.538,117.145 101.204,129.811 99,142.5C 95.8319,129.828 92.6653,117.161 89.5,104.5C 85.8927,103.511 82.226,103.177 78.5,103.5C 76.1152,116.256 73.2819,128.923 70,141.5C 67.1747,128.874 64.6747,116.207 62.5,103.5C 59.8333,103.5 57.1667,103.5 54.5,103.5C 64.9036,96.7875 75.5703,90.2875 86.5,84C 99.1623,83.5001 111.829,83.3334 124.5,83.5 Z"/></g>
<g><path style="opacity:1" fill="#1a4a7d" d="M 124.5,83.5 C 124.5,83.1667 124.5,82.8333 124.5,82.5C 128.019,82.2593 130.685,83.5926 132.5,86.5C 133.482,100.421 133.815,114.421 133.5,128.5C 132.167,128.5 130.833,128.5 129.5,128.5C 129.5,124.167 129.5,119.833 129.5,115.5C 129.666,106.161 129.5,96.8274 129,87.5C 128.252,85.249 126.752,83.9156 124.5,83.5 Z"/></g>
<g><path style="opacity:1" fill="#266eba" d="M 132.5,86.5 C 134.167,86.5 135.833,86.5 137.5,86.5C 137.5,100.5 137.5,114.5 137.5,128.5C 136.167,128.5 134.833,128.5 133.5,128.5C 133.815,114.421 133.482,100.421 132.5,86.5 Z"/></g>
<g><path style="opacity:1" fill="#2b7cd3" d="M 137.5,86.5 C 163.833,86.5 190.167,86.5 216.5,86.5C 216.5,100.5 216.5,114.5 216.5,128.5C 190.167,128.5 163.833,128.5 137.5,128.5C 137.5,114.5 137.5,100.5 137.5,86.5 Z"/></g>
<g><path style="opacity:1" fill="#f7f9fc" d="M 54.5,103.5 C 57.1667,103.5 59.8333,103.5 62.5,103.5C 64.6747,116.207 67.1747,128.874 70,141.5C 73.2819,128.923 76.1152,116.256 78.5,103.5C 82.226,103.177 85.8927,103.511 89.5,104.5C 92.6653,117.161 95.8319,129.828 99,142.5C 101.204,129.811 103.538,117.145 106,104.5C 109.057,103.549 112.223,103.216 115.5,103.5C 113.627,112.2 111.627,120.867 109.5,129.5C 107.83,136.851 106.164,144.184 104.5,151.5C 104.5,151.833 104.5,152.167 104.5,152.5C 100.4,152.763 96.3998,152.43 92.5,151.5C 89.6049,138.859 86.7716,126.193 84,113.5C 81.0517,126.836 78.2184,140.169 75.5,153.5C 71.8183,153.665 68.1516,153.499 64.5,153C 63.6634,151.989 63.33,150.822 63.5,149.5C 59.9624,134.482 56.2958,119.482 52.5,104.5C 52.8417,103.662 53.5084,103.328 54.5,103.5 Z"/></g>
<g><path style="opacity:1" fill="#1e60bf" d="M 52.5,104.5 C 56.2958,119.482 59.9624,134.482 63.5,149.5C 55.1878,153.797 46.8544,158.13 38.5,162.5C 38.5,145.5 38.5,128.5 38.5,111.5C 42.8832,108.642 47.5499,106.308 52.5,104.5 Z"/></g>
<g><path style="opacity:1" fill="#1955b7" d="M 129.5,115.5 C 129.5,119.833 129.5,124.167 129.5,128.5C 129.5,129.833 129.5,131.167 129.5,132.5C 128.839,133.718 128.172,135.051 127.5,136.5C 121.41,140.472 115.077,143.972 108.5,147C 106.714,148.196 105.381,149.696 104.5,151.5C 106.164,144.184 107.83,136.851 109.5,129.5C 115.333,125.86 121.333,122.36 127.5,119C 128.085,117.698 128.751,116.531 129.5,115.5 Z"/></g>
<g><path style="opacity:1" fill="#0e346e" d="M 129.5,128.5 C 130.833,128.5 132.167,128.5 133.5,128.5C 133.5,142.167 133.5,155.833 133.5,169.5C 132.167,169.5 130.833,169.5 129.5,169.5C 129.5,157.167 129.5,144.833 129.5,132.5C 129.5,131.167 129.5,129.833 129.5,128.5 Z"/></g>
<g><path style="opacity:1" fill="#1759bc" d="M 133.5,128.5 C 134.833,128.5 136.167,128.5 137.5,128.5C 163.833,128.5 190.167,128.5 216.5,128.5C 216.5,142.167 216.5,155.833 216.5,169.5C 188.833,169.5 161.167,169.5 133.5,169.5C 133.5,155.833 133.5,142.167 133.5,128.5 Z"/></g>
<g><path style="opacity:1" fill="#134db1" d="M 129.5,132.5 C 129.5,144.833 129.5,157.167 129.5,169.5C 128.038,170.458 126.705,171.624 125.5,173C 110.504,173.5 95.5037,173.667 80.5,173.5C 75.1667,173.5 69.8333,173.5 64.5,173.5C 75.4797,166.865 86.4797,160.198 97.5,153.5C 100.059,153.802 102.393,153.468 104.5,152.5C 104.5,152.167 104.5,151.833 104.5,151.5C 105.381,149.696 106.714,148.196 108.5,147C 115.077,143.972 121.41,140.472 127.5,136.5C 128.172,135.051 128.839,133.718 129.5,132.5 Z"/></g>
<g><path style="opacity:1" fill="#1a57b9" d="M 92.5,151.5 C 93.5521,153.256 95.2188,153.923 97.5,153.5C 86.4797,160.198 75.4797,166.865 64.5,173.5C 57.8333,173.5 51.1667,173.5 44.5,173.5C 39.6716,171.519 37.6716,167.852 38.5,162.5C 46.8544,158.13 55.1878,153.797 63.5,149.5C 63.33,150.822 63.6634,151.989 64.5,153C 68.1516,153.499 71.8183,153.665 75.5,153.5C 78.2184,140.169 81.0517,126.836 84,113.5C 86.7716,126.193 89.6049,138.859 92.5,151.5 Z"/></g>
<g><path style="opacity:1" fill="#7f9fd5" d="M 92.5,151.5 C 96.3998,152.43 100.4,152.763 104.5,152.5C 102.393,153.468 100.059,153.802 97.5,153.5C 95.2188,153.923 93.5521,153.256 92.5,151.5 Z"/></g>
<g><path style="opacity:1" fill="#113f91" d="M 133.5,169.5 C 161.167,169.5 188.833,169.5 216.5,169.5C 216.667,181.505 216.5,193.505 216,205.5C 214.833,208 213,209.833 210.5,211C 168.833,211.667 127.167,211.667 85.5,211C 82.921,209.924 81.2543,208.091 80.5,205.5C 80.5,199.167 80.5,192.833 80.5,186.5C 96.1702,186.667 111.837,186.5 127.5,186C 130.232,185.602 132.065,184.102 133,181.5C 133.497,178.854 133.664,176.187 133.5,173.5C 133.5,172.167 133.5,170.833 133.5,169.5 Z"/></g>
<g><path style="opacity:1" fill="#07214b" d="M 129.5,169.5 C 130.833,169.5 132.167,169.5 133.5,169.5C 133.5,170.833 133.5,172.167 133.5,173.5C 131.12,176.763 127.786,178.263 123.5,178C 109.171,178.5 94.8372,178.667 80.5,178.5C 80.5,176.833 80.5,175.167 80.5,173.5C 95.5037,173.667 110.504,173.5 125.5,173C 126.705,171.624 128.038,170.458 129.5,169.5 Z"/></g>
<g><path style="opacity:1" fill="#0c3070" d="M 133.5,173.5 C 133.664,176.187 133.497,178.854 133,181.5C 132.065,184.102 130.232,185.602 127.5,186C 111.837,186.5 96.1702,186.667 80.5,186.5C 80.5,183.833 80.5,181.167 80.5,178.5C 94.8372,178.667 109.171,178.5 123.5,178C 127.786,178.263 131.12,176.763 133.5,173.5 Z"/></g>
<g><path style="opacity:1" fill="#869bbf" d="M 44.5,173.5 C 51.1667,173.5 57.8333,173.5 64.5,173.5C 69.8333,173.5 75.1667,173.5 80.5,173.5C 80.5,175.167 80.5,176.833 80.5,178.5C 80.5,181.167 80.5,183.833 80.5,186.5C 80.5,192.833 80.5,199.167 80.5,205.5C 79.5058,195.347 79.1724,185.014 79.5,174.5C 67.6547,174.828 55.988,174.495 44.5,173.5 Z"/></g>
</svg>
